<?xml version="1.0" encoding="utf-8"?>
<!-- Generator: Adobe Illustrator 23.0.2, SVG Export Plug-In . SVG Version: 6.00 Build 0)  -->
<svg version="1.1" xmlns="http://www.w3.org/2000/svg" xmlns:xlink="http://www.w3.org/1999/xlink" x="0px" y="0px"
	 viewBox="0 0 500 500" style="enable-background:new 0 0 500 500;" xml:space="preserve">
<style type="text/css">
	.st0{fill:#29ABE2;stroke:#29ABE2;stroke-miterlimit:10;}
	.st1{fill:#A2BC53;}
	.st2{fill:#E56575;}
	.st3{fill:#F2D453;}
	.st4{fill:#B3B3B3;}
	.st5{fill:#65C4E5;stroke:#0071BC;stroke-miterlimit:10;}
	.st6{fill:#EF97AA;}
	.st7{fill:#FBB03B;}
	.st8{fill:#29ABE2;}
	.st9{fill:#44AD5C;}
	.st10{fill:#EF525E;}
	.st11{fill:#FCEE21;}
	.st12{fill:none;stroke:#FCEE21;stroke-width:2.2538;stroke-miterlimit:10;}
	.st13{fill:none;stroke:#FCEE21;stroke-width:2.273;stroke-miterlimit:10;}
	.st14{fill:#C7DFE2;}
	.st15{fill:#29ABE2;stroke:#0071BC;stroke-miterlimit:10;}
	.st16{fill:#FFFFFF;}
	.st17{fill:none;stroke:#FFFFFF;stroke-width:2.2538;stroke-miterlimit:10;}
	.st18{fill:none;stroke:#FFFFFF;stroke-width:2.273;stroke-miterlimit:10;}
	.st19{fill:#F7931E;}
	.st20{fill:#63703A;}
	.st21{fill:#50592A;}
	.st22{fill:#8C9663;}
	.st23{fill:#848964;}
	.st24{fill:#AA8465;}
	.st25{fill:#736357;}
	.st26{fill:#332823;}
	.st27{fill:#666666;}
	.st28{fill:#333333;}
	.st29{fill:#F43122;}
	.st30{fill:#C93C35;}
	.st31{fill:#F44E45;}
	.st32{fill:#E2AAB7;}
	.st33{fill:#E593A3;}
	.st34{fill:#40A4BF;}
	.st35{fill:#1A8DB5;}
	.st36{fill:#ACB5BC;}
	.st37{fill:#939BA0;}
	.st38{fill:#E8E8E8;}
	.st39{fill:#C9C7C7;}
	.st40{fill:none;stroke:#35302D;stroke-width:5;stroke-miterlimit:10;}
	.st41{fill:#ED1C24;}
	.st42{fill:#493C38;}
	.st43{fill:#F4D9BD;}
	.st44{fill:#EBA288;}
	.st45{opacity:0.4;fill:#E4847C;}
	.st46{fill:#5B5B5B;}
	.st47{fill:#303030;}
	.st48{fill:#F7F2F2;}
	.st49{fill:#AFAFAF;}
	.st50{fill:#FFDDBB;}
	.st51{fill:#FFCCAA;}
	.st52{fill:#AA663F;}
	.st53{fill:#9C4C2E;}
	.st54{fill:#EA7DB1;}
	.st55{fill:#ED5AA7;}
	.st56{fill:#F4E65D;}
	.st57{fill:#F2D34E;}
	.st58{fill:#ED1E79;}
	.st59{fill:#543D34;}
	.st60{fill:#C4A58A;}
	.st61{fill:#A67C52;}
	.st62{fill:#F15A24;}
	.st63{fill:#42210B;}
	.st64{fill:#949494;}
	.st65{fill:#E0E2E2;}
	.st66{fill:#F2715B;}
	.st67{fill:#D1D3D5;}
	.st68{fill:#E6E6E6;}
	.st69{fill:#1C8FB7;}
	.st70{fill-rule:evenodd;clip-rule:evenodd;fill:#FCEE21;}
	.st71{opacity:0.5;fill:#FFFFFF;}
	.st72{fill:none;stroke:#F7931E;stroke-width:8.2777;stroke-miterlimit:10;}
	.st73{fill:#FFFFFF;stroke:#FFFFFF;stroke-width:7.468;stroke-miterlimit:10;}
	.st74{fill:#65C4E5;}
	.st75{fill:none;stroke:#29ABE2;stroke-width:2;stroke-miterlimit:10;}
	.st76{fill:none;stroke:#29ABE2;stroke-width:2;stroke-miterlimit:10;stroke-dasharray:8.5707,5.3567;}
	.st77{fill:none;stroke:#1D8EB5;stroke-width:2;stroke-miterlimit:10;}
	.st78{fill:none;stroke:#1D8EB5;stroke-width:2;stroke-miterlimit:10;stroke-dasharray:8.5707,5.3567;}
	.st79{fill-rule:evenodd;clip-rule:evenodd;fill:#FFFFFF;}
	.st80{fill:#29ABE2;stroke:#FFFFFF;stroke-width:1.2;stroke-miterlimit:10;}
	.st81{fill-rule:evenodd;clip-rule:evenodd;fill:#29ABE2;}
	.st82{opacity:0.4;}
	.st83{fill-rule:evenodd;clip-rule:evenodd;}
	.st84{fill-rule:evenodd;clip-rule:evenodd;fill:#FFFFFF;stroke:#000000;stroke-width:3.9;stroke-miterlimit:10;}
	.st85{fill-rule:evenodd;clip-rule:evenodd;fill:none;stroke:#000000;stroke-width:1.3;stroke-miterlimit:10;}
	.st86{fill:none;}
	.st87{fill:#23170D;}
	.st88{fill:#025599;}
	.st89{fill:#7BA4A6;}
	.st90{fill:#7FAACC;}
	.st91{fill:#0071BC;}
	.st92{fill:#10212B;}
	.st93{fill:#5783A0;}
</style>
<g id="BG">
	<rect x="0" class="st14" width="500" height="500"/>
</g>
<g id="Layer_1">
	<g class="st82">
		<g>
			<polygon class="st79" points="515.1,49 484.2,49 480.8,30.1 491.1,37 499.6,28.4 508.2,37 518.5,30.1 			"/>
		</g>
	</g>
	<g class="st82">
		<g>
			<polygon class="st79" points="444.1,49 413.2,49 409.8,30.1 420.1,37 428.6,28.4 437.2,37 447.5,30.1 			"/>
		</g>
	</g>
	<g class="st82">
		<g>
			<polygon class="st79" points="373.1,49 342.2,49 338.8,30.1 349.1,37 357.6,28.4 366.2,37 376.5,30.1 			"/>
		</g>
	</g>
	<g class="st82">
		<g>
			<polygon class="st79" points="302.1,49 271.2,49 267.8,30.1 278.1,37 286.6,28.4 295.2,37 305.5,30.1 			"/>
		</g>
	</g>
	<g class="st82">
		<g>
			<polygon class="st79" points="231.1,49 200.2,49 196.8,30.1 207.1,37 215.6,28.4 224.2,37 234.5,30.1 			"/>
		</g>
	</g>
	<g class="st82">
		<g>
			<polygon class="st79" points="160.1,49 129.2,49 125.8,30.1 136.1,37 144.6,28.4 153.2,37 163.5,30.1 			"/>
		</g>
	</g>
	<g class="st82">
		<g>
			<polygon class="st79" points="89.1,49 58.2,49 54.8,30.1 65.1,37 73.6,28.4 82.2,37 92.5,30.1 			"/>
		</g>
	</g>
	<g class="st82">
		<g>
			<polygon class="st79" points="18.1,49 -12.8,49 -16.2,30.1 -5.9,37 2.6,28.4 11.2,37 21.5,30.1 			"/>
		</g>
	</g>
	<g class="st82">
		<g>
			<polygon class="st79" points="481.1,104 450.2,104 446.8,85.1 457.1,92 465.6,83.4 474.2,92 484.5,85.1 			"/>
		</g>
	</g>
	<g class="st82">
		<g>
			<polygon class="st79" points="410.1,104 379.2,104 375.8,85.1 386.1,92 394.6,83.4 403.2,92 413.5,85.1 			"/>
		</g>
	</g>
	<g class="st82">
		<g>
			<polygon class="st79" points="339.1,104 308.2,104 304.8,85.1 315.1,92 323.6,83.4 332.2,92 342.5,85.1 			"/>
		</g>
	</g>
	<g class="st82">
		<g>
			<polygon class="st79" points="268.1,104 237.2,104 233.8,85.1 244.1,92 252.6,83.4 261.2,92 271.5,85.1 			"/>
		</g>
	</g>
	<g class="st82">
		<g>
			<polygon class="st79" points="197.1,104 166.2,104 162.8,85.1 173.1,92 181.6,83.4 190.2,92 200.5,85.1 			"/>
		</g>
	</g>
	<g class="st82">
		<g>
			<polygon class="st79" points="126.1,104 95.2,104 91.8,85.1 102.1,92 110.6,83.4 119.2,92 129.5,85.1 			"/>
		</g>
	</g>
	<g class="st82">
		<g>
			<polygon class="st79" points="55.1,104 24.2,104 20.8,85.1 31.1,92 39.6,83.4 48.2,92 58.5,85.1 			"/>
		</g>
	</g>
	<g class="st82">
		<g>
			<polygon class="st79" points="515.1,159 484.2,159 480.8,140.1 491.1,147 499.6,138.4 508.2,147 518.5,140.1 			"/>
		</g>
	</g>
	<g class="st82">
		<g>
			<polygon class="st79" points="444.1,159 413.2,159 409.8,140.1 420.1,147 428.6,138.4 437.2,147 447.5,140.1 			"/>
		</g>
	</g>
	<g class="st82">
		<g>
			<polygon class="st79" points="373.1,159 342.2,159 338.8,140.1 349.1,147 357.6,138.4 366.2,147 376.5,140.1 			"/>
		</g>
	</g>
	<g class="st82">
		<g>
			<polygon class="st79" points="302.1,159 271.2,159 267.8,140.1 278.1,147 286.6,138.4 295.2,147 305.5,140.1 			"/>
		</g>
	</g>
	<g class="st82">
		<g>
			<polygon class="st79" points="231.1,159 200.2,159 196.8,140.1 207.1,147 215.6,138.4 224.2,147 234.5,140.1 			"/>
		</g>
	</g>
	<g class="st82">
		<g>
			<polygon class="st79" points="160.1,159 129.2,159 125.8,140.1 136.1,147 144.6,138.4 153.2,147 163.5,140.1 			"/>
		</g>
	</g>
	<g class="st82">
		<g>
			<polygon class="st79" points="89.1,159 58.2,159 54.8,140.1 65.1,147 73.6,138.4 82.2,147 92.5,140.1 			"/>
		</g>
	</g>
	<g class="st82">
		<g>
			<polygon class="st79" points="18.1,159 -12.8,159 -16.2,140.1 -5.9,147 2.6,138.4 11.2,147 21.5,140.1 			"/>
		</g>
	</g>
	<g class="st82">
		<g>
			<polygon class="st79" points="481.1,214 450.2,214 446.8,195.1 457.1,202 465.6,193.4 474.2,202 484.5,195.1 			"/>
		</g>
	</g>
	<g class="st82">
		<g>
			<polygon class="st79" points="410.1,214 379.2,214 375.8,195.1 386.1,202 394.6,193.4 403.2,202 413.5,195.1 			"/>
		</g>
	</g>
	<g class="st82">
		<g>
			<polygon class="st79" points="339.1,214 308.2,214 304.8,195.1 315.1,202 323.6,193.4 332.2,202 342.5,195.1 			"/>
		</g>
	</g>
	<g class="st82">
		<g>
			<polygon class="st79" points="268.1,214 237.2,214 233.8,195.1 244.1,202 252.6,193.4 261.2,202 271.5,195.1 			"/>
		</g>
	</g>
	<g class="st82">
		<g>
			<polygon class="st79" points="197.1,214 166.2,214 162.8,195.1 173.1,202 181.6,193.4 190.2,202 200.5,195.1 			"/>
		</g>
	</g>
	<g class="st82">
		<g>
			<polygon class="st79" points="126.1,214 95.2,214 91.8,195.1 102.1,202 110.6,193.4 119.2,202 129.5,195.1 			"/>
		</g>
	</g>
	<g class="st82">
		<g>
			<polygon class="st79" points="55.1,214 24.2,214 20.8,195.1 31.1,202 39.6,193.4 48.2,202 58.5,195.1 			"/>
		</g>
	</g>
	<g class="st82">
		<g>
			<polygon class="st79" points="515.1,269 484.2,269 480.8,250.1 491.1,257 499.6,248.4 508.2,257 518.5,250.1 			"/>
		</g>
	</g>
	<g class="st82">
		<g>
			<polygon class="st79" points="444.1,269 413.2,269 409.8,250.1 420.1,257 428.6,248.4 437.2,257 447.5,250.1 			"/>
		</g>
	</g>
	<g class="st82">
		<g>
			<polygon class="st79" points="373.1,269 342.2,269 338.8,250.1 349.1,257 357.6,248.4 366.2,257 376.5,250.1 			"/>
		</g>
	</g>
	<g class="st82">
		<g>
			<polygon class="st79" points="302.1,269 271.2,269 267.8,250.1 278.1,257 286.6,248.4 295.2,257 305.5,250.1 			"/>
		</g>
	</g>
	<g class="st82">
		<g>
			<polygon class="st79" points="231.1,269 200.2,269 196.8,250.1 207.1,257 215.6,248.4 224.2,257 234.5,250.1 			"/>
		</g>
	</g>
	<g class="st82">
		<g>
			<polygon class="st79" points="160.1,269 129.2,269 125.8,250.1 136.1,257 144.6,248.4 153.2,257 163.5,250.1 			"/>
		</g>
	</g>
	<g class="st82">
		<g>
			<polygon class="st79" points="89.1,269 58.2,269 54.8,250.1 65.1,257 73.6,248.4 82.2,257 92.5,250.1 			"/>
		</g>
	</g>
	<g class="st82">
		<g>
			<polygon class="st79" points="18.1,269 -12.8,269 -16.2,250.1 -5.9,257 2.6,248.4 11.2,257 21.5,250.1 			"/>
		</g>
	</g>
	<g class="st82">
		<g>
			<polygon class="st79" points="481.1,324 450.2,324 446.8,305.1 457.1,312 465.6,303.4 474.2,312 484.5,305.1 			"/>
		</g>
	</g>
	<g class="st82">
		<g>
			<polygon class="st79" points="410.1,324 379.2,324 375.8,305.1 386.1,312 394.6,303.4 403.2,312 413.5,305.1 			"/>
		</g>
	</g>
	<g class="st82">
		<g>
			<polygon class="st79" points="339.1,324 308.2,324 304.8,305.1 315.1,312 323.6,303.4 332.2,312 342.5,305.1 			"/>
		</g>
	</g>
	<g class="st82">
		<g>
			<polygon class="st79" points="268.1,324 237.2,324 233.8,305.1 244.1,312 252.6,303.4 261.2,312 271.5,305.1 			"/>
		</g>
	</g>
	<g class="st82">
		<g>
			<polygon class="st79" points="197.1,324 166.2,324 162.8,305.1 173.1,312 181.6,303.4 190.2,312 200.5,305.1 			"/>
		</g>
	</g>
	<g class="st82">
		<g>
			<polygon class="st79" points="126.1,324 95.2,324 91.8,305.1 102.1,312 110.6,303.4 119.2,312 129.5,305.1 			"/>
		</g>
	</g>
	<g class="st82">
		<g>
			<polygon class="st79" points="55.1,324 24.2,324 20.8,305.1 31.1,312 39.6,303.4 48.2,312 58.5,305.1 			"/>
		</g>
	</g>
	<g class="st82">
		<g>
			<polygon class="st79" points="515.1,379 484.2,379 480.8,360.1 491.1,367 499.6,358.4 508.2,367 518.5,360.1 			"/>
		</g>
	</g>
	<g class="st82">
		<g>
			<polygon class="st79" points="444.1,379 413.2,379 409.8,360.1 420.1,367 428.6,358.4 437.2,367 447.5,360.1 			"/>
		</g>
	</g>
	<g class="st82">
		<g>
			<polygon class="st79" points="373.1,379 342.2,379 338.8,360.1 349.1,367 357.6,358.4 366.2,367 376.5,360.1 			"/>
		</g>
	</g>
	<g class="st82">
		<g>
			<polygon class="st79" points="302.1,379 271.2,379 267.8,360.1 278.1,367 286.6,358.4 295.2,367 305.5,360.1 			"/>
		</g>
	</g>
	<g class="st82">
		<g>
			<polygon class="st79" points="231.1,379 200.2,379 196.8,360.1 207.1,367 215.6,358.4 224.2,367 234.5,360.1 			"/>
		</g>
	</g>
	<g class="st82">
		<g>
			<polygon class="st79" points="160.1,379 129.2,379 125.8,360.1 136.1,367 144.6,358.4 153.2,367 163.5,360.1 			"/>
		</g>
	</g>
	<g class="st82">
		<g>
			<polygon class="st79" points="89.1,379 58.2,379 54.8,360.1 65.1,367 73.6,358.4 82.2,367 92.5,360.1 			"/>
		</g>
	</g>
	<g class="st82">
		<g>
			<polygon class="st79" points="18.1,379 -12.8,379 -16.2,360.1 -5.9,367 2.6,358.4 11.2,367 21.5,360.1 			"/>
		</g>
	</g>
	<g class="st82">
		<g>
			<polygon class="st79" points="481.1,434 450.2,434 446.8,415.1 457.1,422 465.6,413.4 474.2,422 484.5,415.1 			"/>
		</g>
	</g>
	<g class="st82">
		<g>
			<polygon class="st79" points="410.1,434 379.2,434 375.8,415.1 386.1,422 394.6,413.4 403.2,422 413.5,415.1 			"/>
		</g>
	</g>
	<g class="st82">
		<g>
			<polygon class="st79" points="339.1,434 308.2,434 304.8,415.1 315.1,422 323.6,413.4 332.2,422 342.5,415.1 			"/>
		</g>
	</g>
	<g class="st82">
		<g>
			<polygon class="st79" points="268.1,434 237.2,434 233.8,415.1 244.1,422 252.6,413.4 261.2,422 271.5,415.1 			"/>
		</g>
	</g>
	<g class="st82">
		<g>
			<polygon class="st79" points="197.1,434 166.2,434 162.8,415.1 173.1,422 181.6,413.4 190.2,422 200.5,415.1 			"/>
		</g>
	</g>
	<g class="st82">
		<g>
			<polygon class="st79" points="126.1,434 95.2,434 91.8,415.1 102.1,422 110.6,413.4 119.2,422 129.5,415.1 			"/>
		</g>
	</g>
	<g class="st82">
		<g>
			<polygon class="st79" points="55.1,434 24.2,434 20.8,415.1 31.1,422 39.6,413.4 48.2,422 58.5,415.1 			"/>
		</g>
	</g>
	<g class="st82">
		<g>
			<polygon class="st79" points="515.1,489 484.2,489 480.8,470.1 491.1,477 499.6,468.4 508.2,477 518.5,470.1 			"/>
		</g>
	</g>
	<g class="st82">
		<g>
			<polygon class="st79" points="444.1,489 413.2,489 409.8,470.1 420.1,477 428.6,468.4 437.2,477 447.5,470.1 			"/>
		</g>
	</g>
	<g class="st82">
		<g>
			<polygon class="st79" points="373.1,489 342.2,489 338.8,470.1 349.1,477 357.6,468.4 366.2,477 376.5,470.1 			"/>
		</g>
	</g>
	<g class="st82">
		<g>
			<polygon class="st79" points="302.1,489 271.2,489 267.8,470.1 278.1,477 286.6,468.4 295.2,477 305.5,470.1 			"/>
		</g>
	</g>
	<g class="st82">
		<g>
			<polygon class="st79" points="231.1,489 200.2,489 196.8,470.1 207.1,477 215.6,468.4 224.2,477 234.5,470.1 			"/>
		</g>
	</g>
	<g class="st82">
		<g>
			<polygon class="st79" points="160.1,489 129.2,489 125.8,470.1 136.1,477 144.6,468.4 153.2,477 163.5,470.1 			"/>
		</g>
	</g>
	<g class="st82">
		<g>
			<polygon class="st79" points="89.1,489 58.2,489 54.8,470.1 65.1,477 73.6,468.4 82.2,477 92.5,470.1 			"/>
		</g>
	</g>
	<g class="st82">
		<g>
			<polygon class="st79" points="18.1,489 -12.8,489 -16.2,470.1 -5.9,477 2.6,468.4 11.2,477 21.5,470.1 			"/>
		</g>
	</g>
</g>
</svg>
