<?xml version="1.0" encoding="utf-8"?>
<!-- Generator: Adobe Illustrator 23.0.1, SVG Export Plug-In . SVG Version: 6.00 Build 0)  -->
<svg version="1.1" xmlns="http://www.w3.org/2000/svg" xmlns:xlink="http://www.w3.org/1999/xlink" x="0px" y="0px"
	 viewBox="0 0 500 500" style="enable-background:new 0 0 500 500;" xml:space="preserve">
<style type="text/css">
	.st0{fill:#FBB03B;}
	.st1{fill:#A2BC53;}
	.st2{fill:#E56575;}
	.st3{fill:#F2D453;}
	.st4{fill:#F2F2F2;}
	.st5{fill:#65C4E5;stroke:#0071BC;stroke-miterlimit:10;}
	.st6{fill:#EF97AA;}
	.st7{fill:#29ABE2;}
	.st8{fill:#44AD5C;}
	.st9{fill:#EF525E;}
	.st10{fill:#FCEE21;}
	.st11{fill:none;stroke:#FCEE21;stroke-width:2.2538;stroke-miterlimit:10;}
	.st12{fill:none;stroke:#FCEE21;stroke-width:2.273;stroke-miterlimit:10;}
	.st13{fill:#29ABE2;stroke:#29ABE2;stroke-miterlimit:10;}
	.st14{fill:#29ABE2;stroke:#0071BC;stroke-miterlimit:10;}
	.st15{fill:#FFFFFF;}
	.st16{fill:none;stroke:#FFFFFF;stroke-width:2.2538;stroke-miterlimit:10;}
	.st17{fill:none;stroke:#FFFFFF;stroke-width:2.273;stroke-miterlimit:10;}
	.st18{fill:#F7931E;}
	.st19{fill:#63703A;}
	.st20{fill:#50592A;}
	.st21{fill:#8C9663;}
	.st22{fill:#848964;}
	.st23{fill:#AA8465;}
	.st24{fill:#736357;}
	.st25{fill:#332823;}
	.st26{fill:#666666;}
	.st27{fill:#333333;}
	.st28{fill:#F43122;}
	.st29{fill:#C93C35;}
	.st30{fill:#F44E45;}
	.st31{fill:#E2AAB7;}
	.st32{fill:#E593A3;}
	.st33{fill:#40A4BF;}
	.st34{fill:#1A8DB5;}
	.st35{fill:#ACB5BC;}
	.st36{fill:#939BA0;}
	.st37{fill:#E8E8E8;}
	.st38{fill:#C9C7C7;}
	.st39{fill:none;stroke:#35302D;stroke-width:5;stroke-miterlimit:10;}
	.st40{fill:#ED1C24;}
	.st41{fill:#493C38;}
	.st42{fill:#F4D9BD;}
	.st43{fill:#EBA288;}
	.st44{opacity:0.4;fill:#E4847C;}
	.st45{fill:#5B5B5B;}
	.st46{fill:#303030;}
	.st47{fill:#F7F2F2;}
	.st48{fill:#AFAFAF;}
	.st49{fill:#FFDDBB;}
	.st50{fill:#FFCCAA;}
	.st51{fill:#AA663F;}
	.st52{fill:#9C4C2E;}
	.st53{fill:#EA7DB1;}
	.st54{fill:#ED5AA7;}
	.st55{fill:#F4E65D;}
	.st56{fill:#F2D34E;}
	.st57{fill:#ED1E79;}
	.st58{fill:#543D34;}
	.st59{fill:#C4A58A;}
	.st60{fill:#A67C52;}
	.st61{fill:#F15A24;}
	.st62{fill:#42210B;}
	.st63{fill:#949494;}
	.st64{fill:#E0E2E2;}
	.st65{fill:#F2715B;}
	.st66{fill:#D1D3D5;}
	.st67{fill:#E6E6E6;}
	.st68{fill:#B3B3B3;}
	.st69{fill:#1C8FB7;}
	.st70{fill-rule:evenodd;clip-rule:evenodd;fill:#FCEE21;}
	.st71{opacity:0.5;fill:#FFFFFF;}
	.st72{fill:none;stroke:#F7931E;stroke-width:8.2777;stroke-miterlimit:10;}
	.st73{fill:#FFFFFF;stroke:#FFFFFF;stroke-width:7.468;stroke-miterlimit:10;}
	.st74{fill:#65C4E5;}
	.st75{fill:none;stroke:#29ABE2;stroke-width:2;stroke-miterlimit:10;}
	.st76{fill:none;stroke:#29ABE2;stroke-width:2;stroke-miterlimit:10;stroke-dasharray:8.5707,5.3567;}
	.st77{fill:none;stroke:#1D8EB5;stroke-width:2;stroke-miterlimit:10;}
	.st78{fill:none;stroke:#1D8EB5;stroke-width:2;stroke-miterlimit:10;stroke-dasharray:8.5707,5.3567;}
	.st79{fill-rule:evenodd;clip-rule:evenodd;fill:#FFFFFF;}
	.st80{fill:#29ABE2;stroke:#FFFFFF;stroke-width:1.2;stroke-miterlimit:10;}
	.st81{fill-rule:evenodd;clip-rule:evenodd;}
	.st82{fill-rule:evenodd;clip-rule:evenodd;fill:#FFFFFF;stroke:#000000;stroke-width:3.9;stroke-miterlimit:10;}
	.st83{fill-rule:evenodd;clip-rule:evenodd;fill:none;stroke:#000000;stroke-width:1.3;stroke-miterlimit:10;}
	.st84{fill:none;}
	.st85{fill:#23170D;}
</style>
<g id="BG">
	<rect x="0" class="st13" width="500" height="500"/>
</g>
<g id="Layer_1">
	<g>
		<g>
			<g>
				<polygon class="st79" points="242.6,184.7 225.7,184.7 223.8,174.4 229.5,178.2 234.2,173.5 238.9,178.2 244.5,174.4 				"/>
			</g>
		</g>
		<g>
			<g>
				<g>
					<path class="st80" d="M368.8,210.9c0,0-0.5-25.7-27.6-33C341.3,182.6,342.6,202.7,368.8,210.9z"/>
					<line class="st80" x1="341.2" y1="177.9" x2="368.7" y2="210.4"/>
				</g>
				<rect x="346.8" y="301.3" class="st80" width="23.2" height="5.2"/>
				<polygon class="st80" points="367.2,274.9 358.4,271.7 349.6,274.9 349.6,301.3 367.2,301.3 				"/>
				<polygon class="st80" points="367.2,274.9 358.4,271.7 349.6,274.9 341.6,268.9 349.6,264.5 358.4,266.9 366.6,264.5 
					372.8,268.9 				"/>
				<line class="st80" x1="342" y1="269.3" x2="372.4" y2="269.3"/>
				<polygon class="st80" points="367.2,178.1 358.4,162.1 349.6,178.1 349.6,264.5 358.4,267.7 367.2,264.5 				"/>
				<line class="st80" x1="358.4" y1="162.1" x2="358.4" y2="267.7"/>
				<path class="st80" d="M367.2,202.1c4.9,8,12.3,27.7,11.2,52.8c-0.8,13.6-5.6,28-24.8,38.4c-1.6-2.4-2.4-5.6-2.4-5.6
					s23.2-8,23.2-36c0-9.1-2.5-31.1-7.4-40.2C367.2,210.1,367.2,202.1,367.2,202.1z"/>
				<g>
					<path class="st80" d="M377.2,227.3c0,0,22-13.2,14.8-40.4C388,189.3,371.2,200.5,377.2,227.3z"/>
					<line class="st80" x1="392" y1="186.9" x2="377.6" y2="226.9"/>
				</g>
				<g>
					<path class="st80" d="M378.6,254.5c0,0,23.9-9.2,21.5-37.3C395.8,219,377.3,227.1,378.6,254.5z"/>
					<line class="st80" x1="400.2" y1="217.3" x2="379.1" y2="254.2"/>
				</g>
				<g>
					<path class="st80" d="M373.8,270.9c0,0,25.5,2.5,35.9-23.7C405.1,246.8,385,245.8,373.8,270.9z"/>
					<line class="st80" x1="409.8" y1="247.3" x2="374.4" y2="270.8"/>
				</g>
				<g>
					<path class="st80" d="M372.3,230.1c0,0-7.9-24.4-36.1-23.5C337.7,211.1,344.8,230,372.3,230.1z"/>
					<line class="st80" x1="336.2" y1="206.7" x2="372" y2="229.7"/>
				</g>
				<g>
					<path class="st80" d="M373.5,257.2c0,0-7.1-24.7-35.2-24.7C339.5,237,346,256.1,373.5,257.2z"/>
					<line class="st80" x1="338.2" y1="232.5" x2="373.2" y2="256.7"/>
				</g>
				<circle class="st80" cx="374.4" cy="226.9" r="3.2"/>
				<circle class="st80" cx="376" cy="254.1" r="3.2"/>
			</g>
			<g>
				<path d="M222,297.2c0,0.3-0.1,0.5-0.5,0.5H207c-0.4,0-0.8-0.3-0.8-0.5v-82.7h-21.8c-0.3,0-0.5-0.3-0.5-0.5v-14.6
					c0-0.4,0.3-0.5,0.5-0.5h29.8c4.3,0,7.8,4.3,7.8,9.4V297.2z"/>
				<path d="M227,214.5c-0.4,0-0.5-0.1-0.5-0.5v-22.4c0-0.4,0.1-0.5,0.5-0.5h14.6c0.3,0,0.4,0.1,0.4,0.5v7.3h16.5
					c4.4,0,7.8,4.3,7.8,9.4v45.1l-11.4,36c0,0.4-0.4,0.5-0.5,0.5h-15.6c-0.3,0-0.5-0.1-0.4-0.5l12.4-38.7v-36.1H227z"/>
				<path d="M316.5,289.4c0,0.4-0.4,0.5-0.5,0.5h-20.7c-0.1,0-0.5-0.1-0.5-0.5v-14.6c0-0.3,0.4-0.5,0.5-0.5h5.5v-59.4h-0.7
					l-8.2,10.7v63.8c0,0.4-0.1,0.5-0.5,0.5h-14.6c-0.3,0-0.5-0.1-0.5-0.5v-74.9h-4.5c-0.4,0-0.5-0.3-0.5-0.5v-14.6
					c0-0.4,0.1-0.5,0.5-0.5h12.5c4.8,0,7.7,4.9,7.7,9.2h0.5l6.6-9.2h9.6c4.2,0,7.8,4.3,7.8,9.4V289.4z"/>
			</g>
			<g>
				<g>
					<path class="st80" d="M131.2,210.9c0,0,0.5-25.7,27.6-33C158.7,182.6,157.4,202.7,131.2,210.9z"/>
					<line class="st80" x1="158.8" y1="177.9" x2="131.3" y2="210.4"/>
				</g>
				
					<rect x="130" y="301.3" transform="matrix(-1 -4.492596e-11 4.492596e-11 -1 283.2182 607.8678)" class="st80" width="23.2" height="5.2"/>
				<polygon class="st80" points="132.8,274.9 141.6,271.7 150.4,274.9 150.4,301.3 132.8,301.3 				"/>
				<polygon class="st80" points="132.8,274.9 141.6,271.7 150.4,274.9 158.4,268.9 150.4,264.5 141.6,266.9 133.4,264.5 
					127.2,268.9 				"/>
				<line class="st80" x1="158" y1="269.3" x2="127.6" y2="269.3"/>
				<polygon class="st80" points="132.8,178.1 141.6,162.1 150.4,178.1 150.4,264.5 141.6,267.7 132.8,264.5 				"/>
				<line class="st80" x1="141.6" y1="162.1" x2="141.6" y2="267.7"/>
				<path class="st80" d="M132.8,202.1c-4.9,8-12.3,27.7-11.2,52.8c0.8,13.6,5.6,28,24.8,38.4c1.6-2.4,2.4-5.6,2.4-5.6
					s-23.2-8-23.2-36c0-9.1,2.4-31.1,7.3-40.2C132.8,210.1,132.8,202.1,132.8,202.1z"/>
				<g>
					<path class="st80" d="M122.8,227.3c0,0-22-13.2-14.8-40.4C112,189.3,128.8,200.5,122.8,227.3z"/>
					<line class="st80" x1="108" y1="186.9" x2="122.4" y2="226.9"/>
				</g>
				<g>
					<path class="st80" d="M121.4,254.5c0,0-23.9-9.2-21.5-37.3C104.2,219,122.7,227.1,121.4,254.5z"/>
					<line class="st80" x1="99.8" y1="217.3" x2="120.9" y2="254.2"/>
				</g>
				<g>
					<path class="st80" d="M126.2,270.9c0,0-25.5,2.5-35.9-23.7C94.9,246.8,115,245.8,126.2,270.9z"/>
					<line class="st80" x1="90.2" y1="247.3" x2="125.6" y2="270.8"/>
				</g>
				<g>
					<path class="st80" d="M127.7,230.1c0,0,7.9-24.4,36.1-23.5C162.3,211.1,155.2,230,127.7,230.1z"/>
					<line class="st80" x1="163.8" y1="206.7" x2="128" y2="229.7"/>
				</g>
				<g>
					<path class="st80" d="M126.5,257.2c0,0,7.1-24.7,35.2-24.7C160.5,237,154,256.1,126.5,257.2z"/>
					<line class="st80" x1="161.8" y1="232.5" x2="126.8" y2="256.7"/>
				</g>
				<circle class="st80" cx="125.6" cy="226.9" r="3.2"/>
				<circle class="st80" cx="124" cy="254.1" r="3.2"/>
			</g>
		</g>
	</g>
</g>
</svg>
