<svg xmlns="http://www.w3.org/2000/svg" viewBox="0 0 500 500"><defs><style>.cls-1{fill:#f4a2b1;}.cls-2{fill:#ea7db1;}.cls-3{fill:#ed5aa7;}.cls-4{fill:#fdb;}.cls-5{fill:#fca;}.cls-6{fill:#332823;}.cls-7{fill:#f4e65d;}.cls-8{fill:#f2d34e;}.cls-9{fill:#ed1e79;}</style></defs><title>Reigns game</title><g id="BG"><rect class="cls-1" width="500" height="500"/></g><g id="Layer_1" data-name="Layer 1"><polygon class="cls-2" points="250 297.12 406 367 376 500 250 500 250 297.12"/><polygon class="cls-3" points="250 297.12 94 367 124 500 250 500 250 297.12"/><polygon class="cls-4" points="204 366.38 172.45 430 251.9 460 251.9 389 204 366.38"/><polygon class="cls-5" points="298.45 366.38 330 430 250.55 460 250.55 389 298.45 366.38"/><polygon class="cls-4" points="333 349 250 389 250 140 333 190 333 349"/><polygon class="cls-5" points="167 349 250 389 250 140 167 190 167 349"/><rect class="cls-6" x="272" y="234" width="7" height="45"/><rect class="cls-6" x="221" y="234" width="7" height="45"/><polygon class="cls-7" points="348.28 270.55 253.11 182.25 253.11 112.58 315.42 130.34 351 157.61 359.07 199.91 348.28 270.55"/><polygon class="cls-7" points="332.53 335.93 333.53 225.41 356.09 197.94 404.75 275.94 367.87 351 332.53 335.93"/><polygon class="cls-8" points="152.59 269 249.59 179 249.59 108 186.09 126.1 149.82 153.89 141.59 197 152.59 269"/><polygon class="cls-8" points="166.61 335.64 165.59 223 142.59 195 93 274.5 130.59 351 166.61 335.64"/><circle class="cls-9" cx="345" cy="285" r="12"/><circle class="cls-9" cx="154" cy="285" r="12"/><circle class="cls-7" cx="284.38" cy="138.09" r="32.38"/><circle class="cls-7" cx="389.49" cy="244.06" r="25.51"/><circle class="cls-7" cx="398.5" cy="283.5" r="32.5"/><circle class="cls-7" cx="319.34" cy="163.11" r="34.83"/><circle class="cls-7" cx="352.7" cy="209.23" r="34.83"/><circle class="cls-8" cx="217.13" cy="134" r="33"/><circle class="cls-8" cx="110" cy="242" r="26"/><circle class="cls-8" cx="100.5" cy="283.5" r="32.5"/><circle class="cls-8" cx="181.5" cy="159.5" r="35.5"/><circle class="cls-8" cx="147.5" cy="206.5" r="35.5"/><path class="cls-7" d="M248.5,149a35.5,35.5,0,0,0,0-71"/><path class="cls-8" d="M248.5,78a35.5,35.5,0,0,0,0,71"/></g></svg>