<?xml version="1.0" encoding="utf-8"?>
<!-- Generator: Adobe Illustrator 23.0.1, SVG Export Plug-In . SVG Version: 6.00 Build 0)  -->
<svg version="1.1" xmlns="http://www.w3.org/2000/svg" xmlns:xlink="http://www.w3.org/1999/xlink" x="0px" y="0px"
	 viewBox="0 0 500 500" style="enable-background:new 0 0 500 500;" xml:space="preserve">
<style type="text/css">
	.st0{fill:#29ABE2;stroke:#29ABE2;stroke-miterlimit:10;}
	.st1{fill:#A2BC53;}
	.st2{fill:#E56575;}
	.st3{fill:#F2D453;}
	.st4{fill:#B3B3B3;}
	.st5{fill:#65C4E5;stroke:#0071BC;stroke-miterlimit:10;}
	.st6{fill:#EF97AA;}
	.st7{fill:#FBB03B;}
	.st8{fill:#29ABE2;}
	.st9{fill:#44AD5C;}
	.st10{fill:#EF525E;}
	.st11{fill:#FCEE21;}
	.st12{fill:none;stroke:#FCEE21;stroke-width:2.2538;stroke-miterlimit:10;}
	.st13{fill:none;stroke:#FCEE21;stroke-width:2.273;stroke-miterlimit:10;}
	.st14{fill:#29ABE2;stroke:#0071BC;stroke-miterlimit:10;}
	.st15{fill:#FFFFFF;}
	.st16{fill:none;stroke:#FFFFFF;stroke-width:2.2538;stroke-miterlimit:10;}
	.st17{fill:none;stroke:#FFFFFF;stroke-width:2.273;stroke-miterlimit:10;}
	.st18{fill:#F7931E;}
	.st19{fill:#63703A;}
	.st20{fill:#50592A;}
	.st21{fill:#8C9663;}
	.st22{fill:#848964;}
	.st23{fill:#AA8465;}
	.st24{fill:#736357;}
	.st25{fill:#332823;}
	.st26{fill:#666666;}
	.st27{fill:#333333;}
	.st28{fill:#F43122;}
	.st29{fill:#C93C35;}
	.st30{fill:#F44E45;}
	.st31{fill:#E2AAB7;}
	.st32{fill:#E593A3;}
	.st33{fill:#40A4BF;}
	.st34{fill:#1A8DB5;}
	.st35{fill:#ACB5BC;}
	.st36{fill:#939BA0;}
	.st37{fill:#E8E8E8;}
	.st38{fill:#C9C7C7;}
	.st39{fill:none;stroke:#35302D;stroke-width:5;stroke-miterlimit:10;}
	.st40{fill:#ED1C24;}
	.st41{fill:#493C38;}
	.st42{fill:#F4D9BD;}
	.st43{fill:#EBA288;}
	.st44{opacity:0.4;fill:#E4847C;}
	.st45{fill:#5B5B5B;}
	.st46{fill:#303030;}
	.st47{fill:#F7F2F2;}
	.st48{fill:#AFAFAF;}
	.st49{fill:#FFDDBB;}
	.st50{fill:#FFCCAA;}
	.st51{fill:#AA663F;}
	.st52{fill:#9C4C2E;}
	.st53{fill:#EA7DB1;}
	.st54{fill:#ED5AA7;}
	.st55{fill:#F4E65D;}
	.st56{fill:#F2D34E;}
	.st57{fill:#ED1E79;}
	.st58{fill:#543D34;}
	.st59{fill:#C4A58A;}
	.st60{fill:#A67C52;}
	.st61{fill:#F15A24;}
	.st62{fill:#42210B;}
	.st63{fill:#949494;}
	.st64{fill:#E0E2E2;}
	.st65{fill:#F2715B;}
	.st66{fill:#D1D3D5;}
	.st67{fill:#E6E6E6;}
	.st68{fill:#1C8FB7;}
	.st69{fill-rule:evenodd;clip-rule:evenodd;fill:#FCEE21;}
	.st70{opacity:0.5;fill:#FFFFFF;}
	.st71{fill:none;stroke:#F7931E;stroke-width:8.2777;stroke-miterlimit:10;}
	.st72{fill:#FFFFFF;stroke:#FFFFFF;stroke-width:7.468;stroke-miterlimit:10;}
	.st73{fill:#65C4E5;}
	.st74{fill:none;stroke:#29ABE2;stroke-width:2;stroke-miterlimit:10;}
	.st75{fill:none;stroke:#29ABE2;stroke-width:2;stroke-miterlimit:10;stroke-dasharray:8.5707,5.3567;}
	.st76{fill:none;stroke:#1D8EB5;stroke-width:2;stroke-miterlimit:10;}
	.st77{fill:none;stroke:#1D8EB5;stroke-width:2;stroke-miterlimit:10;stroke-dasharray:8.5707,5.3567;}
	.st78{fill-rule:evenodd;clip-rule:evenodd;fill:#FFFFFF;}
	.st79{fill:#29ABE2;stroke:#FFFFFF;stroke-width:1.2;stroke-miterlimit:10;}
	.st80{opacity:0.4;}
	.st81{fill-rule:evenodd;clip-rule:evenodd;}
	.st82{fill-rule:evenodd;clip-rule:evenodd;fill:#FFFFFF;stroke:#000000;stroke-width:3.9;stroke-miterlimit:10;}
	.st83{fill-rule:evenodd;clip-rule:evenodd;fill:none;stroke:#000000;stroke-width:1.3;stroke-miterlimit:10;}
	.st84{fill:none;}
	.st85{fill:#23170D;}
</style>
<g id="BG">
	<rect x="0" class="st4" width="500" height="500"/>
</g>
<g id="Layer_1">
	<polygon class="st41" points="250,297.1 406,367 376,500 250,500 	"/>
	<polygon class="st25" points="250,297.1 94,367 124,500 250,500 	"/>
	<polygon class="st15" points="297.9,374.4 259.4,500 250,500 250,409 	"/>
	<polygon class="st15" points="202,374.4 240.4,500 249.9,500 249.9,409 	"/>
	<polygon class="st30" points="261,420 250,424 239,420 229,394 271,394 	"/>
	<g>
		<polygon class="st42" points="333,349 250,409 250,140 333,190 		"/>
		<polygon class="st43" points="167,349 250,409 250,140 167,190 		"/>
	</g>
	<rect x="272" y="234" class="st25" width="7" height="45"/>
	<rect x="221" y="234" class="st25" width="7" height="45"/>
	<circle class="st44" cx="303" cy="297" r="24"/>
	<circle class="st44" cx="199" cy="297" r="24"/>
	<rect x="129" y="185" class="st25" width="236" height="20"/>
	<rect x="114" y="113" class="st25" width="266" height="72"/>
	<rect x="247" y="113" class="st41" width="133" height="72"/>
	<circle class="st41" cx="337" cy="261" r="10"/>
	<circle class="st41" cx="337" cy="281" r="10"/>
	<circle class="st41" cx="337" cy="301" r="10"/>
	<circle class="st41" cx="337" cy="321" r="10"/>
	<circle class="st25" cx="161" cy="261" r="10"/>
	<circle class="st25" cx="161" cy="281" r="10"/>
	<circle class="st25" cx="161" cy="301" r="10"/>
	<circle class="st25" cx="161" cy="321" r="10"/>
	<polygon class="st67" points="250,441 333,391 333,340 250,360 	"/>
	<polygon class="st4" points="250,441 167,391 167,340 250,360 	"/>
</g>
</svg>
