<?xml version="1.0" encoding="utf-8"?>
<!-- Generator: Adobe Illustrator 23.0.1, SVG Export Plug-In . SVG Version: 6.00 Build 0)  -->
<svg version="1.1" xmlns="http://www.w3.org/2000/svg" xmlns:xlink="http://www.w3.org/1999/xlink" x="0px" y="0px"
	 viewBox="0 0 500 500" style="enable-background:new 0 0 500 500;" xml:space="preserve">
<style type="text/css">
	.st0{fill:#FBB03B;}
	.st1{fill:#A2BC53;}
	.st2{fill:#E56575;}
	.st3{fill:#F2D453;}
	.st4{fill:#F2F2F2;}
	.st5{fill:#65C4E5;stroke:#0071BC;stroke-miterlimit:10;}
	.st6{fill:#EF97AA;}
	.st7{fill:#29ABE2;}
	.st8{fill:#44AD5C;}
	.st9{fill:#EF525E;}
	.st10{fill:#FCEE21;}
	.st11{fill:none;stroke:#FCEE21;stroke-width:2.2538;stroke-miterlimit:10;}
	.st12{fill:none;stroke:#FCEE21;stroke-width:2.273;stroke-miterlimit:10;}
	.st13{fill:#29ABE2;stroke:#0071BC;stroke-miterlimit:10;}
	.st14{fill:#FFFFFF;}
	.st15{fill:none;stroke:#FFFFFF;stroke-width:2.2538;stroke-miterlimit:10;}
	.st16{fill:none;stroke:#FFFFFF;stroke-width:2.273;stroke-miterlimit:10;}
	.st17{fill:#F7931E;}
	.st18{fill:#63703A;}
	.st19{fill:#50592A;}
	.st20{fill:#8C9663;}
	.st21{fill:#848964;}
	.st22{fill:#AA8465;}
	.st23{fill:#736357;}
	.st24{fill:#332823;}
	.st25{fill:#666666;}
	.st26{fill:#333333;}
	.st27{fill:#F43122;}
	.st28{fill:#C93C35;}
	.st29{fill:#F44E45;}
	.st30{fill:#E2AAB7;}
	.st31{fill:#E593A3;}
	.st32{fill:#40A4BF;}
	.st33{fill:#1A8DB5;}
	.st34{fill:#ACB5BC;}
	.st35{fill:#939BA0;}
	.st36{fill:#E8E8E8;}
	.st37{fill:#C9C7C7;}
	.st38{fill:none;stroke:#35302D;stroke-width:5;stroke-miterlimit:10;}
	.st39{fill:#ED1C24;}
	.st40{fill:#493C38;}
	.st41{fill:#F4D9BD;}
	.st42{fill:#EBA288;}
	.st43{opacity:0.4;fill:#E4847C;}
	.st44{fill:#5B5B5B;}
	.st45{fill:#303030;}
	.st46{fill:#F7F2F2;}
	.st47{fill:#AFAFAF;}
	.st48{fill:#FFDDBB;}
	.st49{fill:#FFCCAA;}
	.st50{fill:#AA663F;}
	.st51{fill:#9C4C2E;}
	.st52{fill:#EA7DB1;}
	.st53{fill:#ED5AA7;}
	.st54{fill:#F4E65D;}
	.st55{fill:#F2D34E;}
	.st56{fill:#ED1E79;}
	.st57{fill:#543D34;}
	.st58{fill:#C4A58A;}
	.st59{fill:#A67C52;}
	.st60{fill:#F15A24;}
	.st61{fill:#42210B;}
	.st62{fill:#949494;}
	.st63{fill:#E0E2E2;}
	.st64{fill:#F2715B;}
	.st65{fill:#D1D3D5;}
	.st66{fill:#3B444F;}
	.st67{fill:#E6E6E6;}
	.st68{fill:#B3B3B3;}
	.st69{fill:#1C8FB7;}
	.st70{fill-rule:evenodd;clip-rule:evenodd;fill:#FCEE21;}
	.st71{opacity:0.5;fill:#FFFFFF;}
	.st72{fill:none;stroke:#F7931E;stroke-width:8.2777;stroke-miterlimit:10;}
	.st73{fill:#FFFFFF;stroke:#FFFFFF;stroke-width:7.468;stroke-miterlimit:10;}
	.st74{fill:#65C4E5;}
	.st75{fill:none;stroke:#29ABE2;stroke-width:2;stroke-miterlimit:10;}
	.st76{fill:none;stroke:#29ABE2;stroke-width:2;stroke-miterlimit:10;stroke-dasharray:8.5707,5.3567;}
	.st77{fill:none;stroke:#1D8EB5;stroke-width:2;stroke-miterlimit:10;}
	.st78{fill:none;stroke:#1D8EB5;stroke-width:2;stroke-miterlimit:10;stroke-dasharray:8.5707,5.3567;}
</style>
<g id="BG">
	<rect x="0" class="st0" width="500" height="500"/>
	<g transform="translate(0,-952.36218)">
		<path class="st17" d="M442.2,1004.4l-74.2,96.9h41.2l-18.6,68.1l76.3-96.9h-41.2L442.2,1004.4z"/>
	</g>
</g>
<g id="Layer_1">
	<g>
		<path class="st14" d="M220.5,168.2c0.6,0.6,1.4,1,2.2,1l20.7,0.8c0.9,0,1.7-0.3,2.3-0.9l17.2-16c2.7-2.5-0.2-5.5-2.1-5.6l-26.9-1
			l-21.3,19.8c-1.3,1.2-3.3,1.1-4.6-0.2c-1.2-1.3-1.1-3.3,0.2-4.6l41.5-38.6c0,0,0.1-0.1,0.2-0.1c1.2-1.2,1.2-3.2,0.1-4.4
			c-1.2-1.3-3.3-1.4-4.6-0.2l-24.9,23.2l1.3-35.9c0.1-2.9-3.3-4.4-5.4-2.5l-17.2,16c-0.6,0.6-1,1.4-1,2.2l-0.8,20.6
			c0,0.9,0.3,1.7,0.9,2.3l0.1,0.1c-3.1-1.1-6.5-1.7-9.9-1.8c-9.1-0.3-17.8,2.9-24.5,9.1l-60.2,56c-13.6,12.8-14.2,34.4-1.5,48l0,0
			c12.8,13.8,34.4,14.6,48.2,1.7c0,0,60.5-56.3,60.7-56.4c9-8.8,12-21.6,9-33.1L220.5,168.2L220.5,168.2z"/>
		<path class="st14" d="M202.2,342.9c0.4,0.5,1.1,0.8,1.7,0.8l15.7,0.6c0.7,0,1.3-0.2,1.8-0.7l13.1-12.2c2.1-1.9-0.1-4.2-1.6-4.3
			l-20.5-0.7l-16.2,15.1c-1,0.9-2.5,0.9-3.5-0.1c-0.9-1-0.9-2.5,0.1-3.5l31.6-29.4c0,0,0.1,0,0.1-0.1c0.9-0.9,0.9-2.4,0-3.4
			c-0.9-1-2.5-1-3.5-0.1l-19,17.7l1-27.3c0.1-2.2-2.5-3.4-4.1-1.9L186,305.6c-0.5,0.4-0.8,1.1-0.8,1.7l-0.6,15.7
			c0,0.6,0.2,1.3,0.7,1.8l0.1,0.1c-2.4-0.8-4.9-1.3-7.5-1.4c-6.9-0.3-13.6,2.2-18.6,6.9L113.4,373c-10.3,9.8-10.8,26.2-1.2,36.6l0,0
			c9.8,10.5,26.2,11.1,36.7,1.3c0,0,46.1-42.9,46.2-43c6.8-6.7,9.1-16.5,6.9-25.2L202.2,342.9C202.2,342.9,202.2,342.9,202.2,342.9z
			"/>
		<path class="st14" d="M312.8,227c0.3,0.3,0.7,0.5,1.2,0.5l10.6,0.4c0.4,0,0.9-0.1,1.2-0.4l8.8-8.2c1.4-1.3-0.1-2.8-1.1-2.9
			l-13.8-0.5l-10.9,10.1c-0.7,0.6-1.7,0.6-2.3-0.1c-0.6-0.7-0.6-1.7,0.1-2.3l21.3-19.8c0,0,0.1,0,0.1,0c0.6-0.6,0.6-1.6,0-2.3
			c-0.6-0.7-1.7-0.7-2.3-0.1l-12.8,11.9l0.7-18.4c0.1-1.5-1.7-2.3-2.8-1.3l-8.8,8.2c-0.3,0.3-0.5,0.7-0.5,1.1l-0.4,10.6
			c0,0.4,0.1,0.9,0.4,1.2l0.1,0.1c-1.6-0.6-3.3-0.9-5.1-0.9c-4.7-0.2-9.1,1.5-12.5,4.7l-30.8,28.7c-6.9,6.6-7.3,17.6-0.8,24.6l0,0
			c6.6,7.1,17.6,7.5,24.7,0.9c0,0,31-28.8,31.1-28.9c4.6-4.5,6.1-11.1,4.6-17L312.8,227L312.8,227z"/>
		<path class="st14" d="M337.5,375.2c0.4,0.4,0.9,0.6,1.4,0.6l12.9,0.5c0.5,0,1.1-0.2,1.4-0.5l10.8-10c1.7-1.6-0.1-3.4-1.3-3.5
			l-16.8-0.6L332.7,374c-0.8,0.8-2.1,0.7-2.9-0.1c-0.8-0.8-0.7-2.1,0.1-2.9l26-24.2c0,0,0.1,0,0.1-0.1c0.7-0.8,0.8-2,0-2.8
			c-0.8-0.8-2-0.9-2.8-0.1l-15.6,14.5l0.8-22.4c0.1-1.8-2.1-2.8-3.4-1.5l-10.8,10c-0.4,0.4-0.6,0.9-0.6,1.4l-0.5,12.9
			c0,0.5,0.2,1.1,0.5,1.4l0.1,0.1c-2-0.7-4-1.1-6.2-1.1c-5.7-0.2-11.1,1.8-15.3,5.7l-37.7,35c-8.5,8-8.9,21.5-1,30l0,0
			c8,8.6,21.5,9.1,30.1,1.1c0,0,37.9-35.2,37.9-35.3c5.6-5.5,7.5-13.5,5.6-20.7L337.5,375.2L337.5,375.2z"/>
	</g>
</g>
</svg>
