<?xml version="1.0" encoding="utf-8"?>
<!-- Generator: Adobe Illustrator 23.0.1, SVG Export Plug-In . SVG Version: 6.00 Build 0)  -->
<svg version="1.1" xmlns="http://www.w3.org/2000/svg" xmlns:xlink="http://www.w3.org/1999/xlink" x="0px" y="0px"
	 viewBox="0 0 500 500" style="enable-background:new 0 0 500 500;" xml:space="preserve">
<style type="text/css">
	.st0{fill:#29ABE2;stroke:#29ABE2;stroke-miterlimit:10;}
	.st1{fill:#A2BC53;}
	.st2{fill:#E56575;}
	.st3{fill:#F2D453;}
	.st4{fill:#B3B3B3;}
	.st5{fill:#65C4E5;stroke:#0071BC;stroke-miterlimit:10;}
	.st6{fill:#EF97AA;}
	.st7{fill:#FBB03B;}
	.st8{fill:#29ABE2;}
	.st9{fill:#44AD5C;}
	.st10{fill:#EF525E;}
	.st11{fill:#FCEE21;}
	.st12{fill:none;stroke:#FCEE21;stroke-width:2.2538;stroke-miterlimit:10;}
	.st13{fill:none;stroke:#FCEE21;stroke-width:2.273;stroke-miterlimit:10;}
	.st14{fill:#29ABE2;stroke:#0071BC;stroke-miterlimit:10;}
	.st15{fill:#FFFFFF;}
	.st16{fill:none;stroke:#FFFFFF;stroke-width:2.2538;stroke-miterlimit:10;}
	.st17{fill:none;stroke:#FFFFFF;stroke-width:2.273;stroke-miterlimit:10;}
	.st18{fill:#F7931E;}
	.st19{fill:#63703A;}
	.st20{fill:#50592A;}
	.st21{fill:#8C9663;}
	.st22{fill:#848964;}
	.st23{fill:#AA8465;}
	.st24{fill:#736357;}
	.st25{fill:#332823;}
	.st26{fill:#666666;}
	.st27{fill:#333333;}
	.st28{fill:#F43122;}
	.st29{fill:#C93C35;}
	.st30{fill:#F44E45;}
	.st31{fill:#E2AAB7;}
	.st32{fill:#E593A3;}
	.st33{fill:#40A4BF;}
	.st34{fill:#1A8DB5;}
	.st35{fill:#ACB5BC;}
	.st36{fill:#939BA0;}
	.st37{fill:#E8E8E8;}
	.st38{fill:#C9C7C7;}
	.st39{fill:none;stroke:#35302D;stroke-width:5;stroke-miterlimit:10;}
	.st40{fill:#ED1C24;}
	.st41{fill:#493C38;}
	.st42{fill:#F4D9BD;}
	.st43{fill:#EBA288;}
	.st44{opacity:0.4;fill:#E4847C;}
	.st45{fill:#5B5B5B;}
	.st46{fill:#303030;}
	.st47{fill:#F7F2F2;}
	.st48{fill:#AFAFAF;}
	.st49{fill:#FFDDBB;}
	.st50{fill:#FFCCAA;}
	.st51{fill:#AA663F;}
	.st52{fill:#9C4C2E;}
	.st53{fill:#EA7DB1;}
	.st54{fill:#ED5AA7;}
	.st55{fill:#F4E65D;}
	.st56{fill:#F2D34E;}
	.st57{fill:#ED1E79;}
	.st58{fill:#543D34;}
	.st59{fill:#C4A58A;}
	.st60{fill:#A67C52;}
	.st61{fill:#F15A24;}
	.st62{fill:#42210B;}
	.st63{fill:#949494;}
	.st64{fill:#E0E2E2;}
	.st65{fill:#F2715B;}
	.st66{fill:#D1D3D5;}
	.st67{fill:#E6E6E6;}
	.st68{fill:#1C8FB7;}
	.st69{fill-rule:evenodd;clip-rule:evenodd;fill:#FCEE21;}
	.st70{opacity:0.5;fill:#FFFFFF;}
	.st71{fill:none;stroke:#F7931E;stroke-width:8.2777;stroke-miterlimit:10;}
	.st72{fill:#FFFFFF;stroke:#FFFFFF;stroke-width:7.468;stroke-miterlimit:10;}
	.st73{fill:#65C4E5;}
	.st74{fill:none;stroke:#29ABE2;stroke-width:2;stroke-miterlimit:10;}
	.st75{fill:none;stroke:#29ABE2;stroke-width:2;stroke-miterlimit:10;stroke-dasharray:8.5707,5.3567;}
	.st76{fill:none;stroke:#1D8EB5;stroke-width:2;stroke-miterlimit:10;}
	.st77{fill:none;stroke:#1D8EB5;stroke-width:2;stroke-miterlimit:10;stroke-dasharray:8.5707,5.3567;}
	.st78{fill-rule:evenodd;clip-rule:evenodd;fill:#FFFFFF;}
	.st79{fill:#29ABE2;stroke:#FFFFFF;stroke-width:1.2;stroke-miterlimit:10;}
	.st80{opacity:0.4;}
	.st81{fill-rule:evenodd;clip-rule:evenodd;}
	.st82{fill-rule:evenodd;clip-rule:evenodd;fill:#FFFFFF;stroke:#000000;stroke-width:3.9;stroke-miterlimit:10;}
	.st83{fill-rule:evenodd;clip-rule:evenodd;fill:none;stroke:#000000;stroke-width:1.3;stroke-miterlimit:10;}
	.st84{fill:none;}
	.st85{fill:#23170D;}
</style>
<g id="BG">
	<rect x="0" class="st10" width="500" height="500"/>
	<polygon class="st11" points="396.4,157 400.9,169.8 413.7,174.2 400.9,178.7 396.4,191.4 392,178.7 379.2,174.2 392,169.8 	"/>
	<polygon class="st11" points="104.6,163.3 109.1,176.2 122,180.7 109.1,185.2 104.6,198.1 100.2,185.2 87.3,180.7 100.2,176.2 	"/>
	<polygon class="st11" points="435.8,221.1 438.7,229.4 447,232.3 438.7,235.2 435.8,243.5 432.9,235.2 424.6,232.3 432.9,229.4 	
		"/>
	<circle class="st12" cx="394.6" cy="347" r="9"/>
	<circle class="st13" cx="58.4" cy="138.1" r="9.1"/>
	<circle class="st13" cx="113.1" cy="399.9" r="9.1"/>
</g>
<g id="Layer_1">
	<g>
		<path class="st15" d="M260.5,131v21.4l82.4,10.3v107.9c0,29.2-5.9,70.8-58.1,97.6c-1.4,0.5-2.7,1.1-4.1,1.6L280,370
			c-5.9,2.2-12.7,3.8-19.5,4.6v21.4c9.2-0.8,18.4-2.7,26.5-5.9c2.7-0.8,5.1-1.9,7.6-3c47-24.1,69.7-62.2,69.7-116.5V143.7L260.5,131
			z"/>
		<path class="st15" d="M239.2,374.5c-6.8-0.8-13.2-2.2-18.9-4.6l-0.8-0.3c-1.4-0.5-2.7-0.8-4.1-1.6c-25.1-12.7-58.4-36.8-58.4-97.6
			V162.6l82.2-10V131l-103.5,12.7v126.8c0,54.3,22.7,92.4,69.7,116.5c2.4,1.4,4.9,2.2,7.6,3c8.1,3,17,4.9,25.9,5.7v-21.1H239.2z"/>
		<polygon class="st15" points="293.2,288.6 267.8,263.2 293.2,237.8 275.4,219.9 250,245.3 224.6,219.9 207,237.8 232.4,263.2 
			207,288.6 224.6,306.2 250,280.7 275.4,306.2 		"/>
	</g>
</g>
</svg>
