<svg xmlns="http://www.w3.org/2000/svg" viewBox="0 0 500 500"><defs><style>.cls-1{fill:#8aa547;}.cls-2{fill:#63703a;}.cls-3{fill:#50592a;}.cls-4{fill:#8c9663;}.cls-5{fill:#848964;}.cls-6{fill:#aa8465;}.cls-7{fill:#736357;}.cls-8{fill:#332823;}.cls-9{fill:#ed1c24;}.cls-10{fill:#fcee21;}</style></defs><title>Reigns game</title><g id="BG"><rect class="cls-1" width="500" height="500"/></g><g id="Layer_1" data-name="Layer 1"><polygon class="cls-2" points="250 297.12 406 367 376 500 250 500 250 297.12"/><polygon class="cls-3" points="250 297.12 94 367 124 500 250 500 250 297.12"/><polygon class="cls-4" points="297.89 374.38 259.45 500 250 500 250 409 297.89 374.38"/><polygon class="cls-5" points="202 374.38 240.45 500 249.9 500 249.9 409 202 374.38"/><polygon class="cls-6" points="333 349 250 409 250 140 333 190 333 349"/><polygon class="cls-7" points="167 349 250 409 250 140 167 190 167 349"/><rect class="cls-8" x="272" y="234" width="7" height="45"/><rect class="cls-8" x="221" y="234" width="7" height="45"/><polygon class="cls-9" points="355 418 313 418 334 437 355 418"/><polygon class="cls-8" points="279 332 250 332 250 313 279 323 279 332"/><polygon class="cls-8" points="283 342 279 342 279 323 293 333 283 342"/><polygon class="cls-8" points="221 332 250 332 250 313 221 323 221 332"/><polygon class="cls-8" points="217 342 221 342 221 323 207 333 217 342"/><rect class="cls-8" x="209" y="234" width="82" height="11"/><polygon class="cls-2" points="192.82 185.19 172 167.86 181.86 139.81 212.16 119.3 344.04 164.56 355 185.19 349.52 202.52 325.41 205 192.82 185.19"/><rect class="cls-8" x="309" y="409" width="52" height="7"/><polygon class="cls-10" points="334 438.82 337.63 450 349.39 450 339.88 456.91 343.51 468.09 334 461.18 324.49 468.09 328.12 456.91 318.61 450 330.37 450 334 438.82"/></g></svg>