<svg xmlns="http://www.w3.org/2000/svg" viewBox="0 0 500 500"><defs><style>.cls-1{fill:#009245;}.cls-2{fill:#666;}.cls-3{fill:#333;}.cls-4{fill:#fff;}.cls-5{fill:#f43122;}.cls-6{fill:#c93c35;}.cls-7{fill:#f44e45;}.cls-8{fill:#e2aab7;}.cls-9{fill:#e593a3;}.cls-10{fill:#332823;}.cls-11{fill:#c9c7c7;}.cls-12{fill:#e8e8e8;}</style></defs><title>Reigns game</title><g id="BG"><rect class="cls-1" width="500" height="500"/></g><g id="Layer_1" data-name="Layer 1"><polygon class="cls-2" points="250 297.12 406 367 376 500 250 500 250 297.12"/><polygon class="cls-3" points="250 297.12 94 367 124 500 250 500 250 297.12"/><polygon class="cls-4" points="297.89 374.38 259.45 500 250 500 250 409 297.89 374.38"/><polygon class="cls-4" points="202 374.38 240.45 500 249.9 500 249.9 409 202 374.38"/><polygon class="cls-5" points="250 500 271 500 261 418 250 418 250 500"/><polygon class="cls-6" points="250 500 229 500 239 418 250 418 250 500"/><polygon class="cls-7" points="261 420 250 424 239 420 229 394 271 394 261 420"/><polygon class="cls-8" points="333 349 250 409 250 140 333 190 333 349"/><polygon class="cls-9" points="167 349 250 409 250 140 167 190 167 349"/><path class="cls-10" d="M286.4,279.34H284v-4.86a16.7,16.7,0,0,1-7.18-2.1q-4.17-2.81-4.1-9.57h6.59a11.91,11.91,0,0,0,.95,4.12,5,5,0,0,0,3.74,2.13V258.63l-2-.58q-4.67-1.37-6.58-3.81a9.23,9.23,0,0,1-1.92-5.88,10.93,10.93,0,0,1,.75-4.13,9.57,9.57,0,0,1,5.94-5.59A17.5,17.5,0,0,1,284,238v-3.25h2.36v3.3a12.11,12.11,0,0,1,6.22,1.95q4.11,2.61,4.26,8.47h-6.42a8.68,8.68,0,0,0-.73-3.17,3.76,3.76,0,0,0-3.33-1.91v9.31q5.79,2,7.78,3.54a8.61,8.61,0,0,1,3.28,7.22q0,6.15-4.51,8.94a14.39,14.39,0,0,1-6.55,2ZM284,243.47a4.28,4.28,0,0,0-3.15,1.14,4.1,4.1,0,0,0-1,3,3.89,3.89,0,0,0,1.54,3.25A8.61,8.61,0,0,0,284,252ZM286.4,269a6.25,6.25,0,0,0,2.78-.88c1-.75,1.52-2.05,1.52-3.89a4.16,4.16,0,0,0-1.42-3.32,10.29,10.29,0,0,0-2.88-1.46Z"/><path class="cls-10" d="M215.4,279.34H213v-4.86a16.7,16.7,0,0,1-7.18-2.1q-4.17-2.81-4.1-9.57h6.59a11.91,11.91,0,0,0,1,4.12,5,5,0,0,0,3.74,2.13V258.63l-2-.58q-4.67-1.37-6.58-3.81a9.23,9.23,0,0,1-1.92-5.88,10.93,10.93,0,0,1,.75-4.13,9.57,9.57,0,0,1,5.94-5.59A17.5,17.5,0,0,1,213,238v-3.25h2.36v3.3a12.11,12.11,0,0,1,6.22,1.95q4.11,2.61,4.26,8.47h-6.42a8.68,8.68,0,0,0-.73-3.17,3.76,3.76,0,0,0-3.33-1.91v9.31q5.79,2,7.78,3.54a8.61,8.61,0,0,1,3.28,7.22q0,6.15-4.51,8.94a14.39,14.39,0,0,1-6.55,2ZM213,243.47a4.28,4.28,0,0,0-3.15,1.14,4.1,4.1,0,0,0-1,3,3.89,3.89,0,0,0,1.54,3.25A8.61,8.61,0,0,0,213,252ZM215.4,269a6.25,6.25,0,0,0,2.78-.88c1-.75,1.52-2.05,1.52-3.89a4.16,4.16,0,0,0-1.42-3.32,10.29,10.29,0,0,0-2.88-1.46Z"/><polygon class="cls-11" points="229 115 189 126 172 158 182 194 192 210 250 202.52 250 115 229 115"/><polygon class="cls-12" points="349 178 340 163 340 140 317 107 274 115 250 115 250 202.52 316 194 349 178"/></g></svg>