<?xml version="1.0" encoding="utf-8"?>
<!-- Generator: Adobe Illustrator 23.0.1, SVG Export Plug-In . SVG Version: 6.00 Build 0)  -->
<svg version="1.1" xmlns="http://www.w3.org/2000/svg" xmlns:xlink="http://www.w3.org/1999/xlink" x="0px" y="0px"
	 viewBox="0 0 500 500" style="enable-background:new 0 0 500 500;" xml:space="preserve">
<style type="text/css">
	.st0{fill:#FBB03B;}
	.st1{fill:#A2BC53;}
	.st2{fill:#E56575;}
	.st3{fill:#F2D453;}
	.st4{fill:#F2F2F2;}
	.st5{fill:#65C4E5;stroke:#0071BC;stroke-miterlimit:10;}
	.st6{fill:#EF97AA;}
	.st7{fill:#29ABE2;}
	.st8{fill:#44AD5C;}
	.st9{fill:#EF525E;}
	.st10{fill:#FCEE21;}
	.st11{fill:none;stroke:#FCEE21;stroke-width:2.2538;stroke-miterlimit:10;}
	.st12{fill:none;stroke:#FCEE21;stroke-width:2.273;stroke-miterlimit:10;}
	.st13{fill:#29ABE2;stroke:#0071BC;stroke-miterlimit:10;}
	.st14{fill:#FFFFFF;}
	.st15{fill:none;stroke:#FFFFFF;stroke-width:2.2538;stroke-miterlimit:10;}
	.st16{fill:none;stroke:#FFFFFF;stroke-width:2.273;stroke-miterlimit:10;}
	.st17{fill:#F7931E;}
	.st18{fill:#63703A;}
	.st19{fill:#50592A;}
	.st20{fill:#8C9663;}
	.st21{fill:#848964;}
	.st22{fill:#AA8465;}
	.st23{fill:#736357;}
	.st24{fill:#332823;}
	.st25{fill:#666666;}
	.st26{fill:#333333;}
	.st27{fill:#F43122;}
	.st28{fill:#C93C35;}
	.st29{fill:#F44E45;}
	.st30{fill:#E2AAB7;}
	.st31{fill:#E593A3;}
	.st32{fill:#40A4BF;}
	.st33{fill:#1A8DB5;}
	.st34{fill:#ACB5BC;}
	.st35{fill:#939BA0;}
	.st36{fill:#E8E8E8;}
	.st37{fill:#C9C7C7;}
	.st38{fill:none;stroke:#35302D;stroke-width:5;stroke-miterlimit:10;}
	.st39{fill:#ED1C24;}
	.st40{fill:#493C38;}
	.st41{fill:#F4D9BD;}
	.st42{fill:#EBA288;}
	.st43{opacity:0.4;fill:#E4847C;}
	.st44{fill:#5B5B5B;}
	.st45{fill:#303030;}
	.st46{fill:#F7F2F2;}
	.st47{fill:#AFAFAF;}
	.st48{fill:#FFDDBB;}
	.st49{fill:#FFCCAA;}
	.st50{fill:#AA663F;}
	.st51{fill:#9C4C2E;}
	.st52{fill:#EA7DB1;}
	.st53{fill:#ED5AA7;}
	.st54{fill:#F4E65D;}
	.st55{fill:#F2D34E;}
	.st56{fill:#ED1E79;}
	.st57{fill:#543D34;}
	.st58{fill:#C4A58A;}
	.st59{fill:#A67C52;}
	.st60{fill:#F15A24;}
	.st61{fill:#42210B;}
	.st62{fill:#949494;}
	.st63{fill:#E0E2E2;}
	.st64{fill:#F2715B;}
	.st65{fill:#D1D3D5;}
	.st66{fill:#3B444F;}
	.st67{fill:#E6E6E6;}
	.st68{fill:#B3B3B3;}
	.st69{fill:#1C8FB7;}
	.st70{fill-rule:evenodd;clip-rule:evenodd;fill:#FCEE21;}
	.st71{opacity:0.5;fill:#FFFFFF;}
	.st72{fill:none;stroke:#F7931E;stroke-width:8.2777;stroke-miterlimit:10;}
	.st73{fill:#FFFFFF;stroke:#FFFFFF;stroke-width:7.468;stroke-miterlimit:10;}
	.st74{fill:#65C4E5;}
	.st75{fill:none;stroke:#29ABE2;stroke-width:2;stroke-miterlimit:10;}
	.st76{fill:none;stroke:#29ABE2;stroke-width:2;stroke-miterlimit:10;stroke-dasharray:8.5707,5.3567;}
	.st77{fill:none;stroke:#1D8EB5;stroke-width:2;stroke-miterlimit:10;}
	.st78{fill:none;stroke:#1D8EB5;stroke-width:2;stroke-miterlimit:10;stroke-dasharray:8.5707,5.3567;}
</style>
<g id="BG">
	<rect x="0" class="st8" width="500" height="500"/>
</g>
<g id="Layer_1">
	<polygon class="st25" points="250,297.1 406,367 376,500 250,500 	"/>
	<polygon class="st26" points="250,297.1 94,367 124,500 250,500 	"/>
	<polygon class="st14" points="297.9,374.4 259.4,500 250,500 250,409 	"/>
	<polygon class="st14" points="202,374.4 240.4,500 249.9,500 249.9,409 	"/>
	<polygon class="st27" points="250,500 271,500 261,418 250,418 	"/>
	<polygon class="st28" points="250,500 229,500 239,418 250,418 	"/>
	<polygon class="st29" points="261,420 250,424 239,420 229,394 271,394 	"/>
	<g>
		<polygon class="st30" points="333,349 250,409 250,140 333,190 		"/>
		<polygon class="st31" points="167,349 250,409 250,140 167,190 		"/>
	</g>
	<g>
		<path class="st24" d="M286.4,279.3H284v-4.9c-3.2-0.4-5.6-1.1-7.2-2.1c-2.8-1.9-4.2-5.1-4.1-9.6h6.6c0.2,2.1,0.5,3.4,1,4.1
			c0.6,1.1,1.9,1.8,3.7,2.1v-10.4l-2-0.6c-3.1-0.9-5.3-2.2-6.6-3.8c-1.3-1.6-1.9-3.6-1.9-5.9c0-1.5,0.2-2.9,0.7-4.1
			c0.5-1.2,1.2-2.3,2.1-3.2c1.2-1.2,2.4-2,3.9-2.4c0.9-0.3,2.1-0.5,3.8-0.6v-3.2h2.4v3.3c2.6,0.2,4.7,0.9,6.2,2
			c2.7,1.7,4.2,4.6,4.3,8.5h-6.4c-0.1-1.4-0.4-2.5-0.7-3.2c-0.6-1.2-1.7-1.8-3.3-1.9v9.3c3.9,1.3,6.4,2.5,7.8,3.5
			c2.2,1.7,3.3,4.1,3.3,7.2c0,4.1-1.5,7.1-4.5,8.9c-1.8,1.1-4,1.8-6.5,2V279.3z M284,243.5c-1.4,0-2.5,0.4-3.1,1.1
			c-0.7,0.7-1,1.7-1,3c0,1.4,0.5,2.4,1.5,3.2c0.6,0.4,1.4,0.8,2.6,1.2V243.5z M286.4,269c1.3-0.2,2.2-0.5,2.8-0.9
			c1-0.7,1.5-2,1.5-3.9c0-1.4-0.5-2.5-1.4-3.3c-0.6-0.5-1.5-1-2.9-1.5V269z"/>
	</g>
	<g>
		<path class="st24" d="M215.4,279.3H213v-4.9c-3.2-0.4-5.6-1.1-7.2-2.1c-2.8-1.9-4.2-5.1-4.1-9.6h6.6c0.2,2.1,0.5,3.4,1,4.1
			c0.6,1.1,1.9,1.8,3.7,2.1v-10.4l-2-0.6c-3.1-0.9-5.3-2.2-6.6-3.8c-1.3-1.6-1.9-3.6-1.9-5.9c0-1.5,0.2-2.9,0.7-4.1
			c0.5-1.2,1.2-2.3,2.1-3.2c1.2-1.2,2.4-2,3.9-2.4c0.9-0.3,2.1-0.5,3.8-0.6v-3.2h2.4v3.3c2.6,0.2,4.7,0.9,6.2,2
			c2.7,1.7,4.2,4.6,4.3,8.5h-6.4c-0.1-1.4-0.4-2.5-0.7-3.2c-0.6-1.2-1.7-1.8-3.3-1.9v9.3c3.9,1.3,6.4,2.5,7.8,3.5
			c2.2,1.7,3.3,4.1,3.3,7.2c0,4.1-1.5,7.1-4.5,8.9c-1.8,1.1-4,1.8-6.5,2V279.3z M213,243.5c-1.4,0-2.5,0.4-3.1,1.1
			c-0.7,0.7-1,1.7-1,3c0,1.4,0.5,2.4,1.5,3.2c0.6,0.4,1.4,0.8,2.6,1.2V243.5z M215.4,269c1.3-0.2,2.2-0.5,2.8-0.9
			c1-0.7,1.5-2,1.5-3.9c0-1.4-0.5-2.5-1.4-3.3c-0.6-0.5-1.5-1-2.9-1.5V269z"/>
	</g>
	<g>
		<polygon class="st37" points="229,115 189,126 172,158 182,194 192,210 250,202.5 250,115 		"/>
		<polygon class="st36" points="349,178 340,163 340,140 317,107 274,115 250,115 250,202.5 316,194 		"/>
	</g>
</g>
</svg>
