<svg xmlns="http://www.w3.org/2000/svg" viewBox="0 0 500 500"><defs><style>.cls-1{fill:#29abe2;stroke:#0071bc;}.cls-1,.cls-3,.cls-4{stroke-miterlimit:10;}.cls-2{fill:#fff;}.cls-3,.cls-4{fill:none;stroke:#fff;}.cls-3{stroke-width:2.25px;}.cls-4{stroke-width:2.27px;}.cls-5{fill:#fcee21;fill-rule:evenodd;}</style></defs><title>Reigns game</title><g id="BG"><rect class="cls-1" width="500" height="500"/><polygon class="cls-2" points="386.43 100 390.87 112.79 403.65 117.22 390.87 121.65 386.43 134.44 382 121.65 369.21 117.22 382 112.79 386.43 100"/><polygon class="cls-2" points="114.63 136.35 119.11 149.24 132 153.71 119.11 158.18 114.63 171.08 110.16 158.18 97.27 153.71 110.16 149.24 114.63 136.35"/><polygon class="cls-2" points="425.83 164.11 428.72 172.43 437.04 175.32 428.72 178.2 425.83 186.53 422.95 178.2 414.62 175.32 422.95 172.43 425.83 164.11"/><circle class="cls-3" cx="394.62" cy="349.98" r="9.02"/><circle class="cls-4" cx="58.36" cy="241.09" r="9.09"/><circle class="cls-4" cx="113.11" cy="402.91" r="9.09"/><polygon class="cls-2" points="131.83 315.11 134.72 323.43 143.04 326.32 134.72 329.2 131.83 337.53 128.95 329.2 120.62 326.32 128.95 323.43 131.83 315.11"/></g><g id="Layer_1" data-name="Layer 1"><polygon class="cls-5" points="346.5 303.66 153.5 303.66 132.06 185.72 196.39 228.61 250 175 303.61 228.61 367.94 185.72 346.5 303.66"/></g></svg>