<svg xmlns="http://www.w3.org/2000/svg" viewBox="0 0 500 500"><defs><style>.cls-1{fill:#29abe2;stroke:#29abe2;stroke-miterlimit:10;}.cls-2,.cls-3{fill:#fff;}.cls-2{opacity:0.5;}</style></defs><title>Reigns game</title><g id="BG"><rect class="cls-1" width="500" height="500"/></g><g id="Layer_1" data-name="Layer 1"><polygon class="cls-2" points="50.24 200.19 228.84 161.5 249.23 255.63 165.97 273.67 184.79 360.55 175.14 362.64 156.31 275.76 70.64 294.32 50.24 200.19"/><polygon class="cls-2" points="447 197.19 268.4 158.5 248.01 252.63 331.28 270.67 312.45 357.55 322.11 359.64 340.93 272.76 426.61 291.32 447 197.19"/><rect class="cls-3" x="145.2" y="120.73" width="213.72" height="112.63"/><rect class="cls-3" x="244.84" y="230.81" width="11.55" height="115.52"/><path class="cls-1" d="M178.68,152.05h11v13.17l-2.86,24.23h-5.25l-2.93-24.23Zm.25,41.6h10.54v10.18H178.93Z"/><path class="cls-1" d="M202.73,152.05h11v13.17l-2.85,24.23h-5.26l-2.92-24.23Zm.24,41.6h10.54v10.18H203Z"/><path class="cls-1" d="M220.41,183.85h7.14l2.79-10.33h-7.16l1.57-5.89h7.18l3.85-14.24h7l-3.85,14.24h5.77l3.82-14.24h7l-3.82,14.24h7.17l-1.58,5.89h-7.17l-2.77,10.33h7.17L253,189.73h-7.18L242,203.83h-7l3.78-14.1H233l-3.81,14.1h-7l3.81-14.1h-7.12Zm20,0,2.77-10.33h-5.78l-2.79,10.33Z"/><path class="cls-1" d="M266.92,152.05h11v13.17l-2.86,24.23h-5.25l-2.93-24.23Zm.25,41.6h10.54v10.18H267.17Z"/><path class="cls-1" d="M294.39,154a18.45,18.45,0,0,1,10.22-2.68q8,0,13.24,3.81t5.27,11.28a12.7,12.7,0,0,1-2.29,7.72A26.12,26.12,0,0,1,315.7,179L313.21,181a7.58,7.58,0,0,0-2.71,3.71,15.51,15.51,0,0,0-.46,4.16h-9.55q.21-6,1.12-8.24c.61-1.51,2.18-3.26,4.71-5.23l2.57-2a9.1,9.1,0,0,0,2-2.08,7.14,7.14,0,0,0,1.4-4.27,8.27,8.27,0,0,0-1.56-4.88c-1-1.47-2.95-2.2-5.72-2.2s-4.65.9-5.78,2.71a10.44,10.44,0,0,0-1.71,5.64H287.37Q287.79,158.21,294.39,154Zm5.85,39.63h10.54v10.18H300.24Z"/></g></svg>