<svg xmlns="http://www.w3.org/2000/svg" viewBox="0 0 500 500"><defs><style>.cls-1{fill:#ed1c24;}.cls-2{fill:#fcee21;}.cls-3,.cls-4{fill:none;stroke:#fcee21;stroke-miterlimit:10;}.cls-3{stroke-width:2.25px;}.cls-4{stroke-width:2.27px;}.cls-5,.cls-6{fill:#fff;}.cls-5{opacity:0.5;}</style></defs><title>Reigns game</title><g id="BG"><rect class="cls-1" width="500" height="500"/><polygon class="cls-2" points="435.83 224.11 438.72 232.43 447.04 235.32 438.72 238.2 435.83 246.53 432.95 238.2 424.62 235.32 432.95 232.43 435.83 224.11"/><circle class="cls-3" cx="394.62" cy="349.98" r="9.02"/><circle class="cls-4" cx="113.11" cy="402.91" r="9.09"/><polygon class="cls-2" points="396.43 110 400.87 122.79 413.65 127.22 400.87 131.65 396.43 144.44 392 131.65 379.21 127.22 392 122.79 396.43 110"/><polygon class="cls-2" points="104.63 116.35 109.11 129.24 122 133.71 109.11 138.18 104.63 151.08 100.16 138.18 87.27 133.71 100.16 129.24 104.63 116.35"/><circle class="cls-4" cx="58.36" cy="91.09" r="9.09"/></g><g id="Layer_1" data-name="Layer 1"><polygon class="cls-5" points="50.24 173.19 228.84 134.5 249.23 228.63 165.97 246.67 184.79 333.55 175.14 335.64 156.31 248.76 70.64 267.32 50.24 173.19"/><polygon class="cls-5" points="447 173.19 268.4 134.5 248.01 228.63 331.28 246.67 312.45 333.55 322.11 335.64 340.93 248.76 426.61 267.32 447 173.19"/><rect class="cls-6" x="145.2" y="160.73" width="213.72" height="112.63"/><rect class="cls-6" x="244.84" y="261.81" width="11.55" height="115.52"/><path class="cls-1" d="M178.68,192.05h11v13.17l-2.86,24.23h-5.25l-2.93-24.23Zm.25,41.6h10.54v10.18H178.93Z"/><path class="cls-1" d="M202.73,192.05h11v13.17l-2.85,24.23h-5.26l-2.92-24.23Zm.24,41.6h10.54v10.18H203Z"/><path class="cls-1" d="M220.41,223.85h7.14l2.79-10.33h-7.16l1.57-5.89h7.18l3.85-14.24h7l-3.85,14.24h5.77l3.82-14.24h7l-3.82,14.24h7.17l-1.58,5.89h-7.17l-2.77,10.33h7.17L253,229.73h-7.18L242,243.83h-7l3.78-14.1H233l-3.81,14.1h-7l3.81-14.1h-7.12Zm20,0,2.77-10.33h-5.78l-2.79,10.33Z"/><path class="cls-1" d="M266.92,192.05h11v13.17l-2.86,24.23h-5.25l-2.93-24.23Zm.25,41.6h10.54v10.18H267.17Z"/><path class="cls-1" d="M294.39,194a18.45,18.45,0,0,1,10.22-2.68q8,0,13.24,3.81t5.27,11.28a12.7,12.7,0,0,1-2.29,7.72A26.12,26.12,0,0,1,315.7,219L313.21,221a7.58,7.58,0,0,0-2.71,3.71,15.51,15.51,0,0,0-.46,4.16h-9.55q.21-6,1.12-8.24c.61-1.51,2.18-3.26,4.71-5.23l2.57-2a9.1,9.1,0,0,0,2-2.08,7.14,7.14,0,0,0,1.4-4.27,8.27,8.27,0,0,0-1.56-4.88c-1-1.47-2.95-2.2-5.72-2.2s-4.65.9-5.78,2.71a10.44,10.44,0,0,0-1.71,5.64H287.37Q287.79,198.21,294.39,194Zm5.85,39.63h10.54v10.18H300.24Z"/></g></svg>