<svg xmlns="http://www.w3.org/2000/svg" viewBox="0 0 500 500"><defs><style>.cls-1{fill:#f7931e;}.cls-2{fill:#fff;}</style></defs><title>Reigns game</title><g id="BG"><rect class="cls-1" width="500" height="500"/><path class="cls-2" d="M442.25,52,368,148.94h41.25L390.69,217,467,120.06H425.75Z"/></g><g id="Layer_1" data-name="Layer 1"><path class="cls-2" d="M220.49,168.19a3.26,3.26,0,0,0,2.25,1l20.67.75a3.17,3.17,0,0,0,2.32-.86l17.24-16c2.73-2.54-.15-5.52-2.08-5.59l-26.86-1L212.75,166.3a3.23,3.23,0,0,1-4.4-4.72L249.88,123c.05,0,.11-.06.16-.1a3.21,3.21,0,0,0-4.5-4.57l-24.92,23.17,1.3-35.88a3.23,3.23,0,0,0-5.42-2.48l-17.24,16a3.2,3.2,0,0,0-1,2.24L197.48,142a3.16,3.16,0,0,0,.86,2.31l.12.13a34.68,34.68,0,0,0-9.87-1.82,33.92,33.92,0,0,0-24.48,9.11l-60.21,56a34.21,34.21,0,0,0-1.54,48v0a34.12,34.12,0,0,0,48.21,1.74l60.67-56.42a34.34,34.34,0,0,0,9-33.14l.24.25Z"/><path class="cls-2" d="M202.16,342.93a2.44,2.44,0,0,0,1.71.78l15.75.57a2.46,2.46,0,0,0,1.77-.65l13.13-12.22c2.08-1.93-.11-4.2-1.58-4.25l-20.46-.74-16.21,15.07a2.46,2.46,0,1,1-3.35-3.6l31.63-29.41s.09-.05.12-.08a2.44,2.44,0,0,0,.05-3.36,2.46,2.46,0,0,0-3.48-.12l-19,17.65,1-27.33a2.45,2.45,0,0,0-4.12-1.89L186,305.57a2.41,2.41,0,0,0-.78,1.71l-.58,15.7a2.45,2.45,0,0,0,.66,1.76l.09.1a26.26,26.26,0,0,0-7.52-1.39,25.85,25.85,0,0,0-18.65,6.95L113.35,373a26.07,26.07,0,0,0-1.17,36.58h0A26,26,0,0,0,148.91,411l46.22-43A26.17,26.17,0,0,0,202,342.73l.18.2Z"/><path class="cls-2" d="M312.79,227a1.62,1.62,0,0,0,1.15.52l10.59.39a1.72,1.72,0,0,0,1.19-.44l8.83-8.22c1.4-1.3-.08-2.82-1.06-2.86l-13.76-.5-10.9,10.14a1.66,1.66,0,0,1-2.26-2.42l21.28-19.78.08-.05a1.64,1.64,0,0,0-2.31-2.34l-12.76,11.87.66-18.38a1.65,1.65,0,0,0-2.77-1.27l-8.84,8.21a1.64,1.64,0,0,0-.52,1.15L301,213.62a1.72,1.72,0,0,0,.44,1.19l.07.06a17.83,17.83,0,0,0-5.06-.93,17.36,17.36,0,0,0-12.54,4.67l-30.84,28.67a17.54,17.54,0,0,0-.79,24.6h0a17.48,17.48,0,0,0,24.69.89l31.08-28.9a17.61,17.61,0,0,0,4.61-17l.12.13Z"/><path class="cls-2" d="M337.5,375.17a2,2,0,0,0,1.4.65l12.93.47a2.09,2.09,0,0,0,1.45-.54l10.78-10c1.71-1.59-.09-3.45-1.3-3.49l-16.8-.61L332.65,374a2,2,0,1,1-2.74-2.95l26-24.15.09-.06a2,2,0,0,0-2.81-2.86l-15.59,14.49.82-22.44a2,2,0,0,0-3.39-1.55l-10.78,10a2,2,0,0,0-.65,1.4l-.47,12.9a2,2,0,0,0,.54,1.44l.08.08a21.48,21.48,0,0,0-21.49,4.56l-37.65,35a21.41,21.41,0,0,0-1,30h0A21.33,21.33,0,0,0,293.78,431l37.94-35.28A21.46,21.46,0,0,0,337.34,375l.16.16Z"/></g></svg>