<svg xmlns="http://www.w3.org/2000/svg" viewBox="0 0 500 500"><defs><style>.cls-1{fill:#ed1c24;}.cls-2{fill:#fcee21;}.cls-3,.cls-4{fill:none;stroke:#fcee21;stroke-miterlimit:10;}.cls-3{stroke-width:2.25px;}.cls-4{stroke-width:2.27px;}.cls-5{fill:#fff;}</style></defs><title>Reigns game</title><g id="BG"><rect class="cls-1" width="500" height="500"/><polygon class="cls-2" points="386.43 100 390.87 112.79 403.65 117.22 390.87 121.65 386.43 134.44 382 121.65 369.21 117.22 382 112.79 386.43 100"/><polygon class="cls-2" points="104.63 126.35 109.11 139.24 122 143.71 109.11 148.18 104.63 161.08 100.16 148.18 87.27 143.71 100.16 139.24 104.63 126.35"/><polygon class="cls-2" points="425.83 164.11 428.72 172.43 437.04 175.32 428.72 178.2 425.83 186.53 422.95 178.2 414.62 175.32 422.95 172.43 425.83 164.11"/><circle class="cls-3" cx="394.62" cy="349.98" r="9.02"/><circle class="cls-4" cx="58.36" cy="101.09" r="9.09"/><circle class="cls-4" cx="113.11" cy="402.91" r="9.09"/></g><g id="Layer_1" data-name="Layer 1"><path class="cls-5" d="M208.66,175.15V278.3a17.24,17.24,0,0,1-17.21,17.21H157.22A17.23,17.23,0,0,1,140,278.3V175.15a17.23,17.23,0,0,1,17.2-17.21h34.23A17.24,17.24,0,0,1,208.66,175.15Zm-17.21,106.6a3.46,3.46,0,0,0,3.45-3.45V175.15a3.46,3.46,0,0,0-3.45-3.45H157.22a3.45,3.45,0,0,0-3.44,3.45V278.3a3.45,3.45,0,0,0,3.44,3.45Z"/><path class="cls-5" d="M335.56,168.41,343.33,182A126.63,126.63,0,0,1,360,244.71V268a27.56,27.56,0,0,1-27.53,27.53l-51.74,0A146.17,146.17,0,0,1,291.2,350v8a20.15,20.15,0,0,1-20.13,20.13h-4.28a20.23,20.23,0,0,1-19.35-14.59L244.75,354a143.38,143.38,0,0,0-26-50.36,21.66,21.66,0,0,0-17-8.16H181.15a6.88,6.88,0,1,1,0-13.76h20.63a35.29,35.29,0,0,1,27.71,13.33A156.87,156.87,0,0,1,258,350.25l2.69,9.43a6.41,6.41,0,0,0,6.12,4.61h4.28a6.37,6.37,0,0,0,6.37-6.37v-8a132.24,132.24,0,0,0-9.51-49.37,13.73,13.73,0,0,1,12.75-18.83h51.77A13.78,13.78,0,0,0,346.22,268V244.71a112.89,112.89,0,0,0-14.83-55.88l-7.77-13.59a7.06,7.06,0,0,0-6.1-3.54H234.16a13.79,13.79,0,0,0-6.14,1.45l-23.17,11.59a6.88,6.88,0,0,1-6.15-12.31l23.16-11.58a27.67,27.67,0,0,1,12.3-2.91h83.36A20.82,20.82,0,0,1,335.56,168.41Z"/><circle class="cls-5" cx="174.27" cy="192.34" r="6.88"/></g></svg>