<svg xmlns="http://www.w3.org/2000/svg" viewBox="0 0 500 500"><defs><style>.cls-1{fill:#c1272d;}.cls-2{fill:#5b5b5b;}.cls-3{fill:#303030;}.cls-4{fill:#fff;}.cls-5{fill:#f43122;}.cls-6{fill:#c93c35;}.cls-7{fill:#f44e45;}.cls-8{fill:#aa8465;}.cls-9{fill:#736357;}.cls-10{fill:#332823;}.cls-11{fill:#fcee21;}</style></defs><title>Reigns game</title><g id="BG"><rect class="cls-1" width="500" height="500"/></g><g id="Layer_1" data-name="Layer 1"><polygon class="cls-2" points="250 297.12 406 367 376 500 250 500 250 297.12"/><polygon class="cls-3" points="250 297.12 94 367 124 500 250 500 250 297.12"/><polygon class="cls-4" points="297.89 374.38 259.45 500 250 500 250 409 297.89 374.38"/><polygon class="cls-4" points="202 374.38 240.45 500 249.9 500 249.9 409 202 374.38"/><polygon class="cls-5" points="250 500 271 500 261 418 250 418 250 500"/><polygon class="cls-6" points="250 500 229 500 239 418 250 418 250 500"/><polygon class="cls-7" points="261 420 250 424 239 420 229 394 271 394 261 420"/><polygon class="cls-8" points="333 349 250 409 250 140 333 190 333 349"/><polygon class="cls-9" points="167 349 250 409 250 140 167 190 167 349"/><rect class="cls-10" x="272" y="234" width="7" height="45"/><rect class="cls-10" x="221" y="234" width="7" height="45"/><polygon class="cls-4" points="313 437 355 437 334 418 313 437"/><rect class="cls-11" x="167.5" y="173.5" width="165" height="16"/><rect class="cls-11" x="317" y="150" width="20" height="30"/><rect class="cls-11" x="286" y="150" width="20" height="30"/><rect class="cls-11" x="224" y="150" width="20" height="30"/><rect class="cls-11" x="193" y="150" width="20" height="30"/><rect class="cls-11" x="162" y="150" width="20" height="30"/><rect class="cls-11" x="255" y="150" width="20" height="30"/></g></svg>