<svg xmlns="http://www.w3.org/2000/svg" viewBox="0 0 500 500"><defs><style>.cls-1{fill:#29abe2;}.cls-2{fill:#1c8fb7;}.cls-3{fill:#fff;}.cls-4{fill:#fcee21;}.cls-5,.cls-6{fill:none;stroke:#fcee21;stroke-miterlimit:10;}.cls-5{stroke-width:2.25px;}.cls-6{stroke-width:2.27px;}</style></defs><title>Reigns game</title><g id="BG"><rect class="cls-1" width="500" height="500"/></g><g id="Layer_1" data-name="Layer 1"><path class="cls-2" d="M156.23,112.56l.35,1.66a1.9,1.9,0,0,0-1.29,0l-9.88,2a6.12,6.12,0,0,0-4.95,7.2l10.48,50.62a6.12,6.12,0,0,0,7.4,4.64l25.7-5.32a6.12,6.12,0,0,0,5-7.2c-.1-.47-.39-.66-.49-1.13l50.4-10.43,14,67.42a2.53,2.53,0,0,0,4.95-1l-14.45-69.78-12-58a2.34,2.34,0,0,0-3-1.86l-67.21,13.92A6.12,6.12,0,0,0,156.23,112.56Z"/><path class="cls-2" d="M338.81,105.37,271.6,91.45a2.34,2.34,0,0,0-3,1.86l-12,58-14.45,69.78a2.53,2.53,0,0,0,4.95,1l14-67.42,50.4,10.43c-.1.47-.39.66-.49,1.13a6.12,6.12,0,0,0,4.95,7.2l25.7,5.32a6.12,6.12,0,0,0,7.4-4.64l10.48-50.62a6.12,6.12,0,0,0-5-7.2l-9.88-2a1.9,1.9,0,0,0-1.29,0l.35-1.66A6.12,6.12,0,0,0,338.81,105.37Z"/><rect class="cls-3" x="148.18" y="305.76" width="63.64" height="103.94"/><rect class="cls-3" x="219.72" y="268.55" width="63.64" height="141.14"/><rect class="cls-3" x="290.2" y="208" width="63.64" height="201.7"/><polygon class="cls-4" points="396.43 160 400.87 172.79 413.65 177.22 400.87 181.65 396.43 194.44 392 181.65 379.21 177.22 392 172.79 396.43 160"/><polygon class="cls-4" points="124.63 246.35 129.1 259.24 142 263.71 129.1 268.18 124.63 281.08 120.16 268.18 107.27 263.71 120.16 259.24 124.63 246.35"/><polygon class="cls-4" points="435.83 224.11 438.72 232.43 447.04 235.32 438.72 238.2 435.83 246.53 432.95 238.2 424.62 235.32 432.95 232.43 435.83 224.11"/><circle class="cls-5" cx="394.62" cy="349.98" r="9.02"/><circle class="cls-6" cx="78.36" cy="221.09" r="9.09"/><circle class="cls-6" cx="113.11" cy="402.91" r="9.09"/></g></svg>