<svg xmlns="http://www.w3.org/2000/svg" viewBox="0 0 500 500"><defs><style>.cls-1{fill:#29abe2;stroke:#0071bc;stroke-miterlimit:10;}.cls-2{fill:#543d34;}.cls-3{fill:#332823;}.cls-4{fill:#fff;}.cls-5{fill:#c4a58a;}.cls-6{fill:#a67c52;}.cls-7{fill:#f15a24;}</style></defs><title>Reigns game</title><g id="BG"><rect class="cls-1" width="500" height="500"/></g><g id="Layer_1" data-name="Layer 1"><polygon class="cls-2" points="250 297.12 406 367 376 500 250 500 250 297.12"/><polygon class="cls-3" points="250 297.12 94 367 124 500 250 500 250 297.12"/><polygon class="cls-4" points="297.89 366.38 259.45 500 250 500 250 389 297.89 366.38"/><polygon class="cls-4" points="204 366.38 242.45 500 251.9 500 251.9 389 204 366.38"/><polygon class="cls-5" points="333 349 250 389 250 140 333 190 333 349"/><polygon class="cls-6" points="167 349 250 389 250 140 167 190 167 349"/><rect class="cls-3" x="272" y="234" width="7" height="45"/><rect class="cls-3" x="221" y="234" width="7" height="45"/><polygon class="cls-3" points="347 269 250 179 250 108 313.5 126.1 349.77 153.89 358 197 347 269"/><polygon class="cls-3" points="332.98 335.64 334 223 357 195 406.59 274.5 369 351 332.98 335.64"/><polygon class="cls-3" points="152.59 269 249.59 179 249.59 108 186.09 126.1 149.82 153.89 141.59 197 152.59 269"/><polygon class="cls-3" points="166.61 335.64 165.59 223 142.59 195 93 274.5 130.59 351 166.61 335.64"/><circle class="cls-7" cx="345" cy="285" r="12"/><circle class="cls-7" cx="154" cy="285" r="12"/><circle class="cls-3" cx="281.87" cy="134" r="33"/><circle class="cls-3" cx="389" cy="242" r="26"/><circle class="cls-3" cx="398.5" cy="283.5" r="32.5"/><circle class="cls-3" cx="317.5" cy="159.5" r="35.5"/><circle class="cls-3" cx="351.5" cy="206.5" r="35.5"/><circle class="cls-3" cx="217.13" cy="134" r="33"/><circle class="cls-3" cx="110" cy="242" r="26"/><circle class="cls-3" cx="100.5" cy="283.5" r="32.5"/><circle class="cls-3" cx="181.5" cy="159.5" r="35.5"/><circle class="cls-3" cx="147.5" cy="206.5" r="35.5"/><path class="cls-3" d="M248.5,149a35.5,35.5,0,0,0,0-71"/><path class="cls-3" d="M248.5,78a35.5,35.5,0,0,0,0,71"/></g></svg>