<?xml version="1.0" encoding="utf-8"?>
<!-- Generator: Adobe Illustrator 23.0.1, SVG Export Plug-In . SVG Version: 6.00 Build 0)  -->
<svg version="1.1" xmlns="http://www.w3.org/2000/svg" xmlns:xlink="http://www.w3.org/1999/xlink" x="0px" y="0px"
	 viewBox="0 0 500 500" style="enable-background:new 0 0 500 500;" xml:space="preserve">
<style type="text/css">
	.st0{fill:#FBB03B;}
	.st1{fill:#A2BC53;}
	.st2{fill:#E56575;}
	.st3{fill:#F2D453;}
	.st4{fill:#F2F2F2;}
	.st5{fill:#65C4E5;stroke:#0071BC;stroke-miterlimit:10;}
	.st6{fill:#EF97AA;}
	.st7{fill:#29ABE2;}
	.st8{fill:#44AD5C;}
	.st9{fill:#EF525E;}
	.st10{fill:#FCEE21;}
	.st11{fill:none;stroke:#FCEE21;stroke-width:2.2538;stroke-miterlimit:10;}
	.st12{fill:none;stroke:#FCEE21;stroke-width:2.273;stroke-miterlimit:10;}
	.st13{fill:#29ABE2;stroke:#0071BC;stroke-miterlimit:10;}
	.st14{fill:#FFFFFF;}
	.st15{fill:none;stroke:#FFFFFF;stroke-width:2.2538;stroke-miterlimit:10;}
	.st16{fill:none;stroke:#FFFFFF;stroke-width:2.273;stroke-miterlimit:10;}
	.st17{fill:#F7931E;}
	.st18{fill:#63703A;}
	.st19{fill:#50592A;}
	.st20{fill:#8C9663;}
	.st21{fill:#848964;}
	.st22{fill:#AA8465;}
	.st23{fill:#736357;}
	.st24{fill:#332823;}
	.st25{fill:#666666;}
	.st26{fill:#333333;}
	.st27{fill:#F43122;}
	.st28{fill:#C93C35;}
	.st29{fill:#F44E45;}
	.st30{fill:#E2AAB7;}
	.st31{fill:#E593A3;}
	.st32{fill:#40A4BF;}
	.st33{fill:#1A8DB5;}
	.st34{fill:#ACB5BC;}
	.st35{fill:#939BA0;}
	.st36{fill:#E8E8E8;}
	.st37{fill:#C9C7C7;}
	.st38{fill:none;stroke:#35302D;stroke-width:5;stroke-miterlimit:10;}
	.st39{fill:#ED1C24;}
	.st40{fill:#493C38;}
	.st41{fill:#F4D9BD;}
	.st42{fill:#EBA288;}
	.st43{opacity:0.4;fill:#E4847C;}
	.st44{fill:#5B5B5B;}
	.st45{fill:#303030;}
	.st46{fill:#F7F2F2;}
	.st47{fill:#AFAFAF;}
	.st48{fill:#FFDDBB;}
	.st49{fill:#FFCCAA;}
	.st50{fill:#AA663F;}
	.st51{fill:#9C4C2E;}
	.st52{fill:#EA7DB1;}
	.st53{fill:#ED5AA7;}
	.st54{fill:#F4E65D;}
	.st55{fill:#F2D34E;}
	.st56{fill:#ED1E79;}
	.st57{fill:#543D34;}
	.st58{fill:#C4A58A;}
	.st59{fill:#A67C52;}
	.st60{fill:#F15A24;}
	.st61{fill:#42210B;}
	.st62{fill:#949494;}
	.st63{fill:#E0E2E2;}
	.st64{fill:#F2715B;}
	.st65{fill:#D1D3D5;}
	.st66{fill:#3B444F;}
	.st67{fill:#E6E6E6;}
	.st68{fill:#B3B3B3;}
	.st69{fill:#1C8FB7;}
	.st70{fill-rule:evenodd;clip-rule:evenodd;fill:#FCEE21;}
	.st71{opacity:0.5;fill:#FFFFFF;}
	.st72{fill:none;stroke:#F7931E;stroke-width:8.2777;stroke-miterlimit:10;}
	.st73{fill:#FFFFFF;stroke:#FFFFFF;stroke-width:7.468;stroke-miterlimit:10;}
	.st74{fill:#65C4E5;}
	.st75{fill:none;stroke:#29ABE2;stroke-width:2;stroke-miterlimit:10;}
	.st76{fill:none;stroke:#29ABE2;stroke-width:2;stroke-miterlimit:10;stroke-dasharray:8.5707,5.3567;}
	.st77{fill:none;stroke:#1D8EB5;stroke-width:2;stroke-miterlimit:10;}
	.st78{fill:none;stroke:#1D8EB5;stroke-width:2;stroke-miterlimit:10;stroke-dasharray:8.5707,5.3567;}
</style>
<g id="BG">
	<rect class="st3" width="500" height="500"/>
</g>
<g id="Layer_1">
	<polygon class="st44" points="250,297.1 406,367 376,500 250,500 	"/>
	<polygon class="st45" points="250,297.1 94,367 124,500 250,500 	"/>
	<polygon class="st14" points="297.9,374.4 259.4,500 250,500 250,409 	"/>
	<polygon class="st14" points="202,374.4 240.4,500 249.9,500 249.9,409 	"/>
	<polygon class="st27" points="250,500 271,500 261,418 250,418 	"/>
	<polygon class="st28" points="250,500 229,500 239,418 250,418 	"/>
	<polygon class="st29" points="261,420 250,424 239,420 229,394 271,394 	"/>
	<g>
		<polygon class="st22" points="333,349 250,409 250,140 333,190 		"/>
		<polygon class="st23" points="167,349 250,409 250,140 167,190 		"/>
	</g>
	<rect x="272" y="234" class="st24" width="7" height="45"/>
	<rect x="221" y="234" class="st24" width="7" height="45"/>
	<polygon class="st14" points="313,437 355,437 334,418 	"/>
	<g>
		<g>
			<path class="st46" d="M261,195.7c-4.7-9.6,7.7-18.1,14.3-22.8c6.5-4.6,13.4-8.4,20.7-11.7c1.8-0.8,0.2-3.4-1.5-2.6
				c-10,4.5-19.4,10-27.7,17.1c-6.4,5.4-12.6,12.8-8.4,21.5C259.2,199,261.8,197.4,261,195.7L261,195.7z"/>
		</g>
	</g>
	<g>
		<g>
			<path class="st46" d="M244.7,189.2c-4.7-9.6,7.7-18.1,14.3-22.8c6.5-4.6,13.4-8.4,20.7-11.7c1.8-0.8,0.2-3.4-1.5-2.6
				c-10,4.5-19.4,10-27.7,17.1c-6.4,5.4-12.6,12.8-8.4,21.5C243,192.5,245.5,191,244.7,189.2L244.7,189.2z"/>
		</g>
	</g>
	<g>
		<g>
			<path class="st47" d="M228.6,183.7c-4.7-9.6,7.7-18.1,14.3-22.8c6.5-4.6,13.4-8.4,20.7-11.7c1.8-0.8,0.2-3.4-1.5-2.6
				c-10,4.5-19.4,10-27.7,17.1c-6.4,5.4-12.6,12.8-8.4,21.5C226.9,187,229.5,185.5,228.6,183.7L228.6,183.7z"/>
		</g>
	</g>
	<g>
		<g>
			<path class="st47" d="M212.4,177.3c-4.7-9.6,7.7-18.1,14.3-22.8c6.5-4.6,13.4-8.4,20.7-11.7c1.8-0.8,0.2-3.4-1.5-2.6
				c-10,4.5-19.4,10-27.7,17.1c-6.4,5.4-12.6,12.8-8.4,21.5C210.6,180.5,213.2,179,212.4,177.3L212.4,177.3z"/>
		</g>
	</g>
</g>
</svg>
