<svg xmlns="http://www.w3.org/2000/svg" viewBox="0 0 500 500"><defs><style>.cls-1{fill:#f2d453;}.cls-2{fill:#5b5b5b;}.cls-3{fill:#303030;}.cls-4{fill:#fff;}.cls-5{fill:#f43122;}.cls-6{fill:#c93c35;}.cls-7{fill:#f44e45;}.cls-8{fill:#aa8465;}.cls-9{fill:#736357;}.cls-10{fill:#332823;}.cls-11{fill:#f7f2f2;}.cls-12{fill:#afafaf;}</style></defs><title>Reigns game</title><g id="BG"><rect class="cls-1" width="500" height="500"/></g><g id="Layer_1" data-name="Layer 1"><polygon class="cls-2" points="250 297.12 406 367 376 500 250 500 250 297.12"/><polygon class="cls-3" points="250 297.12 94 367 124 500 250 500 250 297.12"/><polygon class="cls-4" points="297.89 374.38 259.45 500 250 500 250 409 297.89 374.38"/><polygon class="cls-4" points="202 374.38 240.45 500 249.9 500 249.9 409 202 374.38"/><polygon class="cls-5" points="250 500 271 500 261 418 250 418 250 500"/><polygon class="cls-6" points="250 500 229 500 239 418 250 418 250 500"/><polygon class="cls-7" points="261 420 250 424 239 420 229 394 271 394 261 420"/><polygon class="cls-8" points="333 349 250 409 250 140 333 190 333 349"/><polygon class="cls-9" points="167 349 250 409 250 140 167 190 167 349"/><rect class="cls-10" x="272" y="234" width="7" height="45"/><rect class="cls-10" x="221" y="234" width="7" height="45"/><polygon class="cls-4" points="313 437 355 437 334 418 313 437"/><path class="cls-11" d="M261,195.71c-4.7-9.64,7.66-18.06,14.28-22.8a118.18,118.18,0,0,1,20.67-11.68c1.76-.79.24-3.37-1.51-2.59a114.67,114.67,0,0,0-27.67,17.13c-6.35,5.41-12.57,12.82-8.36,21.46.84,1.73,3.43.21,2.59-1.52Z"/><path class="cls-11" d="M244.71,189.23c-4.7-9.64,7.66-18.06,14.28-22.8a117.91,117.91,0,0,1,20.68-11.68c1.76-.79.23-3.37-1.52-2.59a114.67,114.67,0,0,0-27.67,17.13c-6.35,5.41-12.57,12.82-8.36,21.46.84,1.73,3.43.21,2.59-1.52Z"/><path class="cls-12" d="M228.62,183.74c-4.7-9.64,7.66-18.06,14.28-22.8a117.91,117.91,0,0,1,20.68-11.68c1.76-.79.23-3.37-1.52-2.59a114.67,114.67,0,0,0-27.67,17.13c-6.35,5.41-12.57,12.82-8.36,21.46.84,1.73,3.43.21,2.59-1.52Z"/><path class="cls-12" d="M212.37,177.26c-4.69-9.64,7.66-18.06,14.28-22.8a118.27,118.27,0,0,1,20.68-11.68c1.76-.79.23-3.37-1.52-2.59a114.42,114.42,0,0,0-27.66,17.13c-6.36,5.41-12.58,12.82-8.37,21.46.84,1.73,3.43.21,2.59-1.52Z"/></g></svg>