<svg xmlns="http://www.w3.org/2000/svg" viewBox="0 0 500 500"><defs><style>.cls-1{fill:#ed1c24;}.cls-2{fill:#fcee21;}.cls-3,.cls-4{fill:none;stroke:#fcee21;stroke-miterlimit:10;}.cls-3{stroke-width:2.25px;}.cls-4{stroke-width:2.27px;}.cls-5{fill:#fff;}</style></defs><title>Reigns game</title><g id="BG"><rect class="cls-1" width="500" height="500"/><polygon class="cls-2" points="396.43 160 400.87 172.79 413.65 177.22 400.87 181.65 396.43 194.44 392 181.65 379.21 177.22 392 172.79 396.43 160"/><polygon class="cls-2" points="104.63 166.35 109.11 179.24 122 183.71 109.11 188.18 104.63 201.08 100.16 188.18 87.27 183.71 100.16 179.24 104.63 166.35"/><polygon class="cls-2" points="435.83 224.11 438.72 232.43 447.04 235.32 438.72 238.2 435.83 246.53 432.95 238.2 424.62 235.32 432.95 232.43 435.83 224.11"/><circle class="cls-3" cx="394.62" cy="349.98" r="9.02"/><circle class="cls-4" cx="58.36" cy="141.09" r="9.09"/><circle class="cls-4" cx="113.11" cy="402.91" r="9.09"/></g><g id="Layer_1" data-name="Layer 1"><path class="cls-5" d="M260.54,134v21.35L343,165.63V273.48c0,29.19-5.95,70.82-58.12,97.58l-4.06,1.62L280,373a89.54,89.54,0,0,1-19.46,4.6V398.9A94.35,94.35,0,0,0,287,393a62.39,62.39,0,0,0,7.57-3c47-24.06,69.74-62.17,69.74-116.5V146.7Z"/><path class="cls-5" d="M239.19,377.55a69.66,69.66,0,0,1-18.92-4.6l-.81-.27a25.07,25.07,0,0,1-4.06-1.62C190.26,358.35,157,334.3,157,273.48V165.63l82.18-10V134L135.66,146.7V273.48c0,54.33,22.71,92.44,69.74,116.5a36.77,36.77,0,0,0,7.57,3,103,103,0,0,0,25.95,5.68V377.55Z"/><polygon class="cls-5" points="293.25 291.59 267.84 266.18 293.25 240.77 275.41 222.93 250 248.34 224.59 222.93 207.02 240.77 232.43 266.18 207.02 291.59 224.59 309.16 250 283.75 275.41 309.16 293.25 291.59"/></g></svg>