<svg xmlns="http://www.w3.org/2000/svg" viewBox="0 0 500 500"><defs><style>.cls-1{fill:#8cc63f;}.cls-2{fill:#949494;}.cls-3{fill:#fff;}.cls-4{fill:#e0e2e2;}.cls-5{fill:#f2715b;}.cls-6{fill:#d1d3d5;}.cls-7{fill:#3b444f;}</style></defs><title>Reigns game</title><g id="BG"><rect class="cls-1" width="500" height="500"/></g><g id="Layer_1" data-name="Layer 1"><rect class="cls-2" x="73" y="160" width="56" height="220"/><polygon class="cls-3" points="433 365 412.6 380 72 380 92 362.84 92 328 92 130 433 130 433 365"/><rect class="cls-4" x="124" y="215" width="123" height="90"/><rect class="cls-4" x="261" y="215" width="119" height="12"/><rect class="cls-4" x="261" y="235" width="147" height="12"/><rect class="cls-4" x="261" y="255" width="64" height="12"/><rect class="cls-4" x="261" y="275" width="121" height="12"/><rect class="cls-4" x="261" y="295" width="136" height="12"/><rect class="cls-5" x="124" y="317" width="284" height="12"/><rect class="cls-2" x="124" y="193" width="284" height="12"/><rect class="cls-4" x="124" y="149" width="284" height="36"/><rect class="cls-6" x="124" y="337" width="284" height="5.31"/><rect class="cls-6" x="124" y="347.85" width="284" height="5.31"/><rect class="cls-6" x="124" y="358.69" width="284" height="5.31"/><path class="cls-7" d="M193.91,170.81l-.55-14.46h6.89l-.55,14.46Zm0,7.52v-5.41h5.85v5.41Z"/><path class="cls-7" d="M224.63,178.33V165.21h-5.3l0,9.57L217,178.33h-7v-6.41h2.44V158.84h19v19.49Z"/><path class="cls-7" d="M241.76,178.33V158.84h6.81v19.49Z"/><path class="cls-7" d="M278.64,178.33H258.56V158.84h6.57V172h2.69V158.84h6.51v13.08h1.55l1.21-1.34V158.84h6.61v14Z"/><path class="cls-7" d="M309.09,165.25v13.08h-6.85V165.25H294v-6.41h17.68v6.41Z"/><path class="cls-7" d="M334,178.37V165.25h-5.33v13.12H321.8V158.84h19.05v19.53Z"/></g></svg>