<svg xmlns="http://www.w3.org/2000/svg" viewBox="0 0 500 500"><defs><style>.cls-1{fill:#ed1c24;}.cls-2{fill:#fcee21;}.cls-3,.cls-4{fill:none;stroke:#fcee21;stroke-miterlimit:10;}.cls-3{stroke-width:2.25px;}.cls-4{stroke-width:2.27px;}.cls-5{fill:#fff;}</style></defs><title>Reigns game</title><g id="BG"><rect class="cls-1" width="500" height="500"/><polygon class="cls-2" points="416.43 120 420.87 132.79 433.65 137.22 420.87 141.65 416.43 154.44 412 141.65 399.21 137.22 412 132.79 416.43 120"/><polygon class="cls-2" points="435.83 224.11 438.72 232.43 447.04 235.32 438.72 238.2 435.83 246.53 432.95 238.2 424.62 235.32 432.95 232.43 435.83 224.11"/><circle class="cls-3" cx="394.62" cy="349.98" r="9.02"/><circle class="cls-4" cx="58.36" cy="141.09" r="9.09"/><circle class="cls-4" cx="113.11" cy="402.91" r="9.09"/><polygon class="cls-2" points="89.63 156.35 94.11 169.24 107 173.71 94.11 178.18 89.63 191.08 85.16 178.18 72.27 173.71 85.16 169.24 89.63 156.35"/></g><g id="Layer_1" data-name="Layer 1"><rect class="cls-5" x="129.34" y="228.17" width="241.32" height="20.45"/><rect class="cls-5" x="114" y="144" width="272" height="84.17"/><rect class="cls-5" x="250" y="144" width="136" height="84.17"/><circle class="cls-5" cx="342.03" cy="262.93" r="10.23"/><circle class="cls-5" cx="342.03" cy="283.39" r="10.23"/><circle class="cls-5" cx="342.03" cy="303.84" r="10.23"/><circle class="cls-5" cx="342.03" cy="324.29" r="10.23"/><circle class="cls-5" cx="162.06" cy="262.93" r="10.23"/><circle class="cls-5" cx="162.06" cy="283.39" r="10.23"/><circle class="cls-5" cx="162.06" cy="303.84" r="10.23"/><circle class="cls-5" cx="162.06" cy="324.29" r="10.23"/><circle class="cls-5" cx="342.03" cy="344.74" r="10.23"/><circle class="cls-5" cx="162.06" cy="344.74" r="10.23"/><polygon class="cls-5" points="186.39 255.15 186.39 352.21 252.19 399.78 318 352.21 318 255.15 186.39 255.15"/><rect class="cls-1" x="272" y="274" width="7" height="45"/><rect class="cls-1" x="221" y="274" width="7" height="45"/></g></svg>