<svg xmlns="http://www.w3.org/2000/svg" viewBox="0 0 500 500"><defs><style>.cls-1{fill:#f7931e;}.cls-2{fill:#fff;}</style></defs><title>Reigns game</title><g id="BG"><rect class="cls-1" width="500" height="500"/><path class="cls-2" d="M442.25,52,368,148.94h41.25L390.69,217,467,120.06H425.75Z"/></g><g id="Layer_1" data-name="Layer 1"><circle class="cls-2" cx="322.03" cy="276.93" r="10.23"/><circle class="cls-2" cx="322.03" cy="297.39" r="10.23"/><circle class="cls-2" cx="322.03" cy="317.84" r="10.23"/><circle class="cls-2" cx="322.03" cy="338.29" r="10.23"/><circle class="cls-2" cx="142.06" cy="276.93" r="10.23"/><circle class="cls-2" cx="142.06" cy="297.39" r="10.23"/><circle class="cls-2" cx="142.06" cy="317.84" r="10.23"/><circle class="cls-2" cx="142.06" cy="338.29" r="10.23"/><circle class="cls-2" cx="322.03" cy="358.74" r="10.23"/><circle class="cls-2" cx="142.06" cy="358.74" r="10.23"/><rect class="cls-2" x="109.34" y="243.88" width="241.32" height="16.74"/><rect class="cls-2" x="94" y="166" width="272" height="68.88"/><polygon class="cls-2" points="166.39 269.15 166.39 366.21 232.19 413.78 298 366.21 298 269.15 166.39 269.15"/><rect class="cls-1" x="252" y="288" width="7" height="45"/><rect class="cls-1" x="201" y="288" width="7" height="45"/></g></svg>