<svg xmlns="http://www.w3.org/2000/svg" viewBox="0 0 500 500"><defs><style>.cls-1{fill:#f7931e;}.cls-2{fill:#fff;}.cls-3{fill:none;stroke:#f7931e;stroke-miterlimit:10;stroke-width:8.28px;}</style></defs><title>Reigns game</title><g id="BG"><rect class="cls-1" width="500" height="500"/><path class="cls-2" d="M442.25,52,368,148.94h41.25L390.69,217,467,120.06H425.75Z"/></g><g id="Layer_1" data-name="Layer 1"><polygon class="cls-2" points="139.84 330.97 142.49 338.63 150.15 341.28 142.49 343.94 139.84 351.59 137.18 343.94 129.53 341.28 137.18 338.63 139.84 330.97"/><polygon class="cls-2" points="172.12 232.05 172.12 343.37 247.59 397.93 323.07 343.37 323.07 232.05 172.12 232.05"/><rect class="cls-2" x="154.48" y="210.39" width="186.94" height="10.93" rx="5.47"/><polygon class="cls-2" points="331.3 160.37 313.43 144 180.89 144 163.45 162.21 163.45 181.85 331.3 181.85 331.3 160.37"/><polygon class="cls-2" points="333.75 233.6 392 397.61 265.84 397.61 334.65 347.14 333.75 233.6"/><polygon class="cls-2" points="161.45 234.17 103.2 398.18 229.36 398.18 160.54 347.71 161.45 234.17"/><rect class="cls-2" x="154.48" y="191.99" width="186.94" height="10.93" rx="5.47"/><rect class="cls-1" x="268.75" y="256.37" width="6.44" height="41.39"/><rect class="cls-1" x="221.85" y="256.37" width="6.44" height="41.39"/><polyline class="cls-3" points="167.58 330.87 216.33 330.87 228.28 316.16 268.75 316.16 277.95 330.87 323.07 330.87"/></g></svg>