<svg xmlns="http://www.w3.org/2000/svg" viewBox="0 0 500 500"><defs><style>.cls-1{fill:#29abe2;stroke:#29abe2;stroke-miterlimit:10;}.cls-2{opacity:0.4;}.cls-3{fill:#fff;fill-rule:evenodd;}</style></defs><title>Reigns game</title><g id="BG"><rect class="cls-1" width="500" height="500"/></g><g id="Layer_1" data-name="Layer 1"><g class="cls-2"><polygon class="cls-3" points="515.07 49 484.2 49 480.77 30.13 491.06 36.99 499.63 28.42 508.21 36.99 518.5 30.13 515.07 49"/></g><g class="cls-2"><polygon class="cls-3" points="444.07 49 413.2 49 409.77 30.13 420.06 36.99 428.63 28.42 437.21 36.99 447.5 30.13 444.07 49"/></g><g class="cls-2"><polygon class="cls-3" points="373.07 49 342.2 49 338.77 30.13 349.06 36.99 357.63 28.42 366.21 36.99 376.5 30.13 373.07 49"/></g><g class="cls-2"><polygon class="cls-3" points="302.07 49 271.2 49 267.77 30.13 278.06 36.99 286.63 28.42 295.21 36.99 305.5 30.13 302.07 49"/></g><g class="cls-2"><polygon class="cls-3" points="231.07 49 200.2 49 196.77 30.13 207.06 36.99 215.63 28.42 224.21 36.99 234.5 30.13 231.07 49"/></g><g class="cls-2"><polygon class="cls-3" points="160.07 49 129.2 49 125.77 30.13 136.06 36.99 144.63 28.42 153.21 36.99 163.5 30.13 160.07 49"/></g><g class="cls-2"><polygon class="cls-3" points="89.07 49 58.2 49 54.77 30.13 65.06 36.99 73.63 28.42 82.21 36.99 92.5 30.13 89.07 49"/></g><g class="cls-2"><polygon class="cls-3" points="18.07 49 -12.8 49 -16.23 30.13 -5.94 36.99 2.63 28.42 11.21 36.99 21.5 30.13 18.07 49"/></g><g class="cls-2"><polygon class="cls-3" points="481.07 104 450.2 104 446.77 85.13 457.06 91.99 465.63 83.42 474.21 91.99 484.5 85.13 481.07 104"/></g><g class="cls-2"><polygon class="cls-3" points="410.07 104 379.2 104 375.77 85.13 386.06 91.99 394.63 83.42 403.21 91.99 413.5 85.13 410.07 104"/></g><g class="cls-2"><polygon class="cls-3" points="339.07 104 308.2 104 304.77 85.13 315.06 91.99 323.63 83.42 332.21 91.99 342.5 85.13 339.07 104"/></g><g class="cls-2"><polygon class="cls-3" points="268.07 104 237.2 104 233.77 85.13 244.06 91.99 252.63 83.42 261.21 91.99 271.5 85.13 268.07 104"/></g><g class="cls-2"><polygon class="cls-3" points="197.07 104 166.2 104 162.77 85.13 173.06 91.99 181.63 83.42 190.21 91.99 200.5 85.13 197.07 104"/></g><g class="cls-2"><polygon class="cls-3" points="126.07 104 95.2 104 91.77 85.13 102.06 91.99 110.63 83.42 119.21 91.99 129.5 85.13 126.07 104"/></g><g class="cls-2"><polygon class="cls-3" points="55.07 104 24.2 104 20.77 85.13 31.06 91.99 39.63 83.42 48.21 91.99 58.5 85.13 55.07 104"/></g><g class="cls-2"><polygon class="cls-3" points="515.07 159 484.2 159 480.77 140.13 491.06 146.99 499.63 138.42 508.21 146.99 518.5 140.13 515.07 159"/></g><g class="cls-2"><polygon class="cls-3" points="444.07 159 413.2 159 409.77 140.13 420.06 146.99 428.63 138.42 437.21 146.99 447.5 140.13 444.07 159"/></g><g class="cls-2"><polygon class="cls-3" points="373.07 159 342.2 159 338.77 140.13 349.06 146.99 357.63 138.42 366.21 146.99 376.5 140.13 373.07 159"/></g><g class="cls-2"><polygon class="cls-3" points="302.07 159 271.2 159 267.77 140.13 278.06 146.99 286.63 138.42 295.21 146.99 305.5 140.13 302.07 159"/></g><g class="cls-2"><polygon class="cls-3" points="231.07 159 200.2 159 196.77 140.13 207.06 146.99 215.63 138.42 224.21 146.99 234.5 140.13 231.07 159"/></g><g class="cls-2"><polygon class="cls-3" points="160.07 159 129.2 159 125.77 140.13 136.06 146.99 144.63 138.42 153.21 146.99 163.5 140.13 160.07 159"/></g><g class="cls-2"><polygon class="cls-3" points="89.07 159 58.2 159 54.77 140.13 65.06 146.99 73.63 138.42 82.21 146.99 92.5 140.13 89.07 159"/></g><g class="cls-2"><polygon class="cls-3" points="18.07 159 -12.8 159 -16.23 140.13 -5.94 146.99 2.63 138.42 11.21 146.99 21.5 140.13 18.07 159"/></g><g class="cls-2"><polygon class="cls-3" points="481.07 214 450.2 214 446.77 195.13 457.06 201.99 465.63 193.42 474.21 201.99 484.5 195.13 481.07 214"/></g><g class="cls-2"><polygon class="cls-3" points="410.07 214 379.2 214 375.77 195.13 386.06 201.99 394.63 193.42 403.21 201.99 413.5 195.13 410.07 214"/></g><g class="cls-2"><polygon class="cls-3" points="339.07 214 308.2 214 304.77 195.13 315.06 201.99 323.63 193.42 332.21 201.99 342.5 195.13 339.07 214"/></g><g class="cls-2"><polygon class="cls-3" points="268.07 214 237.2 214 233.77 195.13 244.06 201.99 252.63 193.42 261.21 201.99 271.5 195.13 268.07 214"/></g><g class="cls-2"><polygon class="cls-3" points="197.07 214 166.2 214 162.77 195.13 173.06 201.99 181.63 193.42 190.21 201.99 200.5 195.13 197.07 214"/></g><g class="cls-2"><polygon class="cls-3" points="126.07 214 95.2 214 91.77 195.13 102.06 201.99 110.63 193.42 119.21 201.99 129.5 195.13 126.07 214"/></g><g class="cls-2"><polygon class="cls-3" points="55.07 214 24.2 214 20.77 195.13 31.06 201.99 39.63 193.42 48.21 201.99 58.5 195.13 55.07 214"/></g><g class="cls-2"><polygon class="cls-3" points="515.07 269 484.2 269 480.77 250.13 491.06 256.99 499.63 248.42 508.21 256.99 518.5 250.13 515.07 269"/></g><g class="cls-2"><polygon class="cls-3" points="444.07 269 413.2 269 409.77 250.13 420.06 256.99 428.63 248.42 437.21 256.99 447.5 250.13 444.07 269"/></g><g class="cls-2"><polygon class="cls-3" points="373.07 269 342.2 269 338.77 250.13 349.06 256.99 357.63 248.42 366.21 256.99 376.5 250.13 373.07 269"/></g><g class="cls-2"><polygon class="cls-3" points="302.07 269 271.2 269 267.77 250.13 278.06 256.99 286.63 248.42 295.21 256.99 305.5 250.13 302.07 269"/></g><g class="cls-2"><polygon class="cls-3" points="231.07 269 200.2 269 196.77 250.13 207.06 256.99 215.63 248.42 224.21 256.99 234.5 250.13 231.07 269"/></g><g class="cls-2"><polygon class="cls-3" points="160.07 269 129.2 269 125.77 250.13 136.06 256.99 144.63 248.42 153.21 256.99 163.5 250.13 160.07 269"/></g><g class="cls-2"><polygon class="cls-3" points="89.07 269 58.2 269 54.77 250.13 65.06 256.99 73.63 248.42 82.21 256.99 92.5 250.13 89.07 269"/></g><g class="cls-2"><polygon class="cls-3" points="18.07 269 -12.8 269 -16.23 250.13 -5.94 256.99 2.63 248.42 11.21 256.99 21.5 250.13 18.07 269"/></g><g class="cls-2"><polygon class="cls-3" points="481.07 324 450.2 324 446.77 305.13 457.06 311.99 465.63 303.42 474.21 311.99 484.5 305.13 481.07 324"/></g><g class="cls-2"><polygon class="cls-3" points="410.07 324 379.2 324 375.77 305.13 386.06 311.99 394.63 303.42 403.21 311.99 413.5 305.13 410.07 324"/></g><g class="cls-2"><polygon class="cls-3" points="339.07 324 308.2 324 304.77 305.13 315.06 311.99 323.63 303.42 332.21 311.99 342.5 305.13 339.07 324"/></g><g class="cls-2"><polygon class="cls-3" points="268.07 324 237.2 324 233.77 305.13 244.06 311.99 252.63 303.42 261.21 311.99 271.5 305.13 268.07 324"/></g><g class="cls-2"><polygon class="cls-3" points="197.07 324 166.2 324 162.77 305.13 173.06 311.99 181.63 303.42 190.21 311.99 200.5 305.13 197.07 324"/></g><g class="cls-2"><polygon class="cls-3" points="126.07 324 95.2 324 91.77 305.13 102.06 311.99 110.63 303.42 119.21 311.99 129.5 305.13 126.07 324"/></g><g class="cls-2"><polygon class="cls-3" points="55.07 324 24.2 324 20.77 305.13 31.06 311.99 39.63 303.42 48.21 311.99 58.5 305.13 55.07 324"/></g><g class="cls-2"><polygon class="cls-3" points="515.07 379 484.2 379 480.77 360.13 491.06 366.99 499.63 358.42 508.21 366.99 518.5 360.13 515.07 379"/></g><g class="cls-2"><polygon class="cls-3" points="444.07 379 413.2 379 409.77 360.13 420.06 366.99 428.63 358.42 437.21 366.99 447.5 360.13 444.07 379"/></g><g class="cls-2"><polygon class="cls-3" points="373.07 379 342.2 379 338.77 360.13 349.06 366.99 357.63 358.42 366.21 366.99 376.5 360.13 373.07 379"/></g><g class="cls-2"><polygon class="cls-3" points="302.07 379 271.2 379 267.77 360.13 278.06 366.99 286.63 358.42 295.21 366.99 305.5 360.13 302.07 379"/></g><g class="cls-2"><polygon class="cls-3" points="231.07 379 200.2 379 196.77 360.13 207.06 366.99 215.63 358.42 224.21 366.99 234.5 360.13 231.07 379"/></g><g class="cls-2"><polygon class="cls-3" points="160.07 379 129.2 379 125.77 360.13 136.06 366.99 144.63 358.42 153.21 366.99 163.5 360.13 160.07 379"/></g><g class="cls-2"><polygon class="cls-3" points="89.07 379 58.2 379 54.77 360.13 65.06 366.99 73.63 358.42 82.21 366.99 92.5 360.13 89.07 379"/></g><g class="cls-2"><polygon class="cls-3" points="18.07 379 -12.8 379 -16.23 360.13 -5.94 366.99 2.63 358.42 11.21 366.99 21.5 360.13 18.07 379"/></g><g class="cls-2"><polygon class="cls-3" points="481.07 434 450.2 434 446.77 415.13 457.06 421.99 465.63 413.42 474.21 421.99 484.5 415.13 481.07 434"/></g><g class="cls-2"><polygon class="cls-3" points="410.07 434 379.2 434 375.77 415.13 386.06 421.99 394.63 413.42 403.21 421.99 413.5 415.13 410.07 434"/></g><g class="cls-2"><polygon class="cls-3" points="339.07 434 308.2 434 304.77 415.13 315.06 421.99 323.63 413.42 332.21 421.99 342.5 415.13 339.07 434"/></g><g class="cls-2"><polygon class="cls-3" points="268.07 434 237.2 434 233.77 415.13 244.06 421.99 252.63 413.42 261.21 421.99 271.5 415.13 268.07 434"/></g><g class="cls-2"><polygon class="cls-3" points="197.07 434 166.2 434 162.77 415.13 173.06 421.99 181.63 413.42 190.21 421.99 200.5 415.13 197.07 434"/></g><g class="cls-2"><polygon class="cls-3" points="126.07 434 95.2 434 91.77 415.13 102.06 421.99 110.63 413.42 119.21 421.99 129.5 415.13 126.07 434"/></g><g class="cls-2"><polygon class="cls-3" points="55.07 434 24.2 434 20.77 415.13 31.06 421.99 39.63 413.42 48.21 421.99 58.5 415.13 55.07 434"/></g><g class="cls-2"><polygon class="cls-3" points="515.07 489 484.2 489 480.77 470.13 491.06 476.99 499.63 468.42 508.21 476.99 518.5 470.13 515.07 489"/></g><g class="cls-2"><polygon class="cls-3" points="444.07 489 413.2 489 409.77 470.13 420.06 476.99 428.63 468.42 437.21 476.99 447.5 470.13 444.07 489"/></g><g class="cls-2"><polygon class="cls-3" points="373.07 489 342.2 489 338.77 470.13 349.06 476.99 357.63 468.42 366.21 476.99 376.5 470.13 373.07 489"/></g><g class="cls-2"><polygon class="cls-3" points="302.07 489 271.2 489 267.77 470.13 278.06 476.99 286.63 468.42 295.21 476.99 305.5 470.13 302.07 489"/></g><g class="cls-2"><polygon class="cls-3" points="231.07 489 200.2 489 196.77 470.13 207.06 476.99 215.63 468.42 224.21 476.99 234.5 470.13 231.07 489"/></g><g class="cls-2"><polygon class="cls-3" points="160.07 489 129.2 489 125.77 470.13 136.06 476.99 144.63 468.42 153.21 476.99 163.5 470.13 160.07 489"/></g><g class="cls-2"><polygon class="cls-3" points="89.07 489 58.2 489 54.77 470.13 65.06 476.99 73.63 468.42 82.21 476.99 92.5 470.13 89.07 489"/></g><g class="cls-2"><polygon class="cls-3" points="18.07 489 -12.8 489 -16.23 470.13 -5.94 476.99 2.63 468.42 11.21 476.99 21.5 470.13 18.07 489"/></g></g></svg>