<svg xmlns="http://www.w3.org/2000/svg" viewBox="0 0 500 500"><defs><style>.cls-1{fill:#666;}.cls-2{fill:#493c38;}.cls-3{fill:#332823;}.cls-4{fill:#fff;}.cls-5{fill:#f44e45;}.cls-6{fill:#f4d9bd;}.cls-7{fill:#eba288;}.cls-8{fill:#e4847c;opacity:0.4;}.cls-9{fill:#e6e6e6;}.cls-10{fill:#b3b3b3;}</style></defs><title>Reigns game</title><g id="BG"><rect class="cls-1" width="500" height="500"/></g><g id="Layer_1" data-name="Layer 1"><polygon class="cls-2" points="250 297.12 406 367 376 500 250 500 250 297.12"/><polygon class="cls-3" points="250 297.12 94 367 124 500 250 500 250 297.12"/><polygon class="cls-4" points="297.89 374.38 259.45 500 250 500 250 409 297.89 374.38"/><polygon class="cls-4" points="202 374.38 240.45 500 249.9 500 249.9 409 202 374.38"/><polygon class="cls-5" points="261 420 250 424 239 420 229 394 271 394 261 420"/><polygon class="cls-6" points="333 349 250 409 250 140 333 190 333 349"/><polygon class="cls-7" points="167 349 250 409 250 140 167 190 167 349"/><rect class="cls-3" x="272" y="234" width="7" height="45"/><rect class="cls-3" x="221" y="234" width="7" height="45"/><circle class="cls-8" cx="303" cy="297" r="24"/><circle class="cls-8" cx="199" cy="297" r="24"/><rect class="cls-3" x="129" y="185" width="236" height="20"/><rect class="cls-3" x="114" y="113" width="266" height="72"/><rect class="cls-2" x="247" y="113" width="133" height="72"/><circle class="cls-2" cx="337" cy="261" r="10"/><circle class="cls-2" cx="337" cy="281" r="10"/><circle class="cls-2" cx="337" cy="301" r="10"/><circle class="cls-2" cx="337" cy="321" r="10"/><circle class="cls-3" cx="161" cy="261" r="10"/><circle class="cls-3" cx="161" cy="281" r="10"/><circle class="cls-3" cx="161" cy="301" r="10"/><circle class="cls-3" cx="161" cy="321" r="10"/><polygon class="cls-9" points="250 441 333 391 333 340 250 360 250 441"/><polygon class="cls-10" points="250 441 167 391 167 340 250 360 250 441"/></g></svg>