<?xml version="1.0" encoding="utf-8"?>
<!-- Generator: Adobe Illustrator 23.0.1, SVG Export Plug-In . SVG Version: 6.00 Build 0)  -->
<svg version="1.1" xmlns="http://www.w3.org/2000/svg" xmlns:xlink="http://www.w3.org/1999/xlink" x="0px" y="0px"
	 viewBox="0 0 500 500" style="enable-background:new 0 0 500 500;" xml:space="preserve">
<style type="text/css">
	.st0{fill:#FBB03B;}
	.st1{fill:#A2BC53;}
	.st2{fill:#E56575;}
	.st3{fill:#F2D453;}
	.st4{fill:#F2F2F2;}
	.st5{fill:#65C4E5;stroke:#0071BC;stroke-miterlimit:10;}
	.st6{fill:#EF97AA;}
	.st7{fill:#29ABE2;}
	.st8{fill:#44AD5C;}
	.st9{fill:#EF525E;}
	.st10{fill:#FCEE21;}
	.st11{fill:none;stroke:#FCEE21;stroke-width:2.2538;stroke-miterlimit:10;}
	.st12{fill:none;stroke:#FCEE21;stroke-width:2.273;stroke-miterlimit:10;}
	.st13{fill:#29ABE2;stroke:#0071BC;stroke-miterlimit:10;}
	.st14{fill:#FFFFFF;}
	.st15{fill:none;stroke:#FFFFFF;stroke-width:2.2538;stroke-miterlimit:10;}
	.st16{fill:none;stroke:#FFFFFF;stroke-width:2.273;stroke-miterlimit:10;}
	.st17{fill:#F7931E;}
	.st18{fill:#63703A;}
	.st19{fill:#50592A;}
	.st20{fill:#8C9663;}
	.st21{fill:#848964;}
	.st22{fill:#AA8465;}
	.st23{fill:#736357;}
	.st24{fill:#332823;}
	.st25{fill:#666666;}
	.st26{fill:#333333;}
	.st27{fill:#F43122;}
	.st28{fill:#C93C35;}
	.st29{fill:#F44E45;}
	.st30{fill:#E2AAB7;}
	.st31{fill:#E593A3;}
	.st32{fill:#40A4BF;}
	.st33{fill:#1A8DB5;}
	.st34{fill:#ACB5BC;}
	.st35{fill:#939BA0;}
	.st36{fill:#E8E8E8;}
	.st37{fill:#C9C7C7;}
	.st38{fill:none;stroke:#35302D;stroke-width:5;stroke-miterlimit:10;}
	.st39{fill:#ED1C24;}
	.st40{fill:#493C38;}
	.st41{fill:#F4D9BD;}
	.st42{fill:#EBA288;}
	.st43{opacity:0.4;fill:#E4847C;}
	.st44{fill:#5B5B5B;}
	.st45{fill:#303030;}
	.st46{fill:#F7F2F2;}
	.st47{fill:#AFAFAF;}
	.st48{fill:#FFDDBB;}
	.st49{fill:#FFCCAA;}
	.st50{fill:#AA663F;}
	.st51{fill:#9C4C2E;}
	.st52{fill:#EA7DB1;}
	.st53{fill:#ED5AA7;}
	.st54{fill:#F4E65D;}
	.st55{fill:#F2D34E;}
	.st56{fill:#ED1E79;}
	.st57{fill:#543D34;}
	.st58{fill:#C4A58A;}
	.st59{fill:#A67C52;}
	.st60{fill:#F15A24;}
	.st61{fill:#42210B;}
	.st62{fill:#949494;}
	.st63{fill:#E0E2E2;}
	.st64{fill:#F2715B;}
	.st65{fill:#D1D3D5;}
	.st66{fill:#3B444F;}
	.st67{fill:#E6E6E6;}
	.st68{fill:#B3B3B3;}
	.st69{fill:#1C8FB7;}
	.st70{fill-rule:evenodd;clip-rule:evenodd;fill:#FCEE21;}
	.st71{opacity:0.5;fill:#FFFFFF;}
	.st72{fill:none;stroke:#F7931E;stroke-width:8.2777;stroke-miterlimit:10;}
	.st73{fill:#FFFFFF;stroke:#FFFFFF;stroke-width:7.468;stroke-miterlimit:10;}
	.st74{fill:#65C4E5;}
	.st75{fill:none;stroke:#29ABE2;stroke-width:2;stroke-miterlimit:10;}
	.st76{fill:none;stroke:#29ABE2;stroke-width:2;stroke-miterlimit:10;stroke-dasharray:8.5707,5.3567;}
	.st77{fill:none;stroke:#1D8EB5;stroke-width:2;stroke-miterlimit:10;}
	.st78{fill:none;stroke:#1D8EB5;stroke-width:2;stroke-miterlimit:10;stroke-dasharray:8.5707,5.3567;}
</style>
<g id="BG">
	<rect x="0" class="st9" width="500" height="500"/>
	<polygon class="st10" points="396.4,207 400.9,219.8 413.7,224.2 400.9,228.7 396.4,241.4 392,228.7 379.2,224.2 392,219.8 	"/>
	<polygon class="st10" points="104.6,213.3 109.1,226.2 122,230.7 109.1,235.2 104.6,248.1 100.2,235.2 87.3,230.7 100.2,226.2 	"/>
	<polygon class="st10" points="435.8,271.1 438.7,279.4 447,282.3 438.7,285.2 435.8,293.5 432.9,285.2 424.6,282.3 432.9,279.4 	
		"/>
	<circle class="st11" cx="394.6" cy="397" r="9"/>
	<circle class="st12" cx="58.4" cy="188.1" r="9.1"/>
	<circle class="st12" cx="113.1" cy="449.9" r="9.1"/>
</g>
<g id="Layer_1">
	<g>
		<path class="st14" d="M260.5,181v21.4l82.4,10.3v107.9c0,29.2-5.9,70.8-58.1,97.6c-1.4,0.5-2.7,1.1-4.1,1.6L280,420
			c-5.9,2.2-12.7,3.8-19.5,4.6v21.4c9.2-0.8,18.4-2.7,26.5-5.9c2.7-0.8,5.1-1.9,7.6-3c47-24.1,69.7-62.2,69.7-116.5V193.7L260.5,181
			z"/>
		<path class="st14" d="M239.2,424.5c-6.8-0.8-13.2-2.2-18.9-4.6l-0.8-0.3c-1.4-0.5-2.7-0.8-4.1-1.6c-25.1-12.7-58.4-36.8-58.4-97.6
			V212.6l82.2-10V181l-103.5,12.7v126.8c0,54.3,22.7,92.4,69.7,116.5c2.4,1.4,4.9,2.2,7.6,3c8.1,3,17,4.9,25.9,5.7v-21.1H239.2z"/>
	</g>
	<g>
		<path class="st14" d="M252.2,382.3h-8V366c-10.8-1.2-18.9-3.6-24.2-7.1c-9.4-6.3-14-17.1-13.8-32.3h22.2
			c0.8,6.9,1.8,11.5,3.2,13.9c2.1,3.7,6.3,6.1,12.6,7.2v-35.1l-6.7-2c-10.5-3.1-17.9-7.3-22.2-12.8c-4.3-5.5-6.5-12.1-6.5-19.8
			c0-5.1,0.8-9.7,2.5-13.9c1.7-4.2,4-7.8,7-10.8c3.9-3.9,8.2-6.6,13-8.1c2.9-0.9,7.2-1.6,12.8-2.1v-10.9h8v11.1
			c8.9,0.7,15.9,2.9,21,6.6c9.2,5.9,14,15.4,14.3,28.5h-21.6c-0.4-4.9-1.2-8.4-2.4-10.7c-2.1-3.9-5.8-6-11.2-6.4v31.3
			c13,4.5,21.7,8.5,26.2,11.9c7.4,5.8,11.1,13.9,11.1,24.4c0,13.8-5.1,23.9-15.2,30.1c-6.2,3.8-13.5,6.1-22.1,6.7V382.3z
			 M244.2,261.5c-4.8,0.1-8.3,1.4-10.6,3.8c-2.3,2.4-3.5,5.8-3.5,10c0,4.6,1.7,8.3,5.2,10.9c1.9,1.5,4.9,2.9,8.9,4.1V261.5z
			 M252.2,347.5c4.3-0.5,7.4-1.5,9.4-3c3.4-2.5,5.1-6.9,5.1-13.1c0-4.7-1.6-8.4-4.8-11.2c-1.9-1.6-5.1-3.2-9.7-4.9V347.5z"/>
	</g>
</g>
</svg>
