<?xml version="1.0" encoding="utf-8"?>
<!-- Generator: Adobe Illustrator 23.0.1, SVG Export Plug-In . SVG Version: 6.00 Build 0)  -->
<svg version="1.1" xmlns="http://www.w3.org/2000/svg" xmlns:xlink="http://www.w3.org/1999/xlink" x="0px" y="0px"
	 viewBox="0 0 500 500" style="enable-background:new 0 0 500 500;" xml:space="preserve">
<style type="text/css">
	.st0{fill:#FBB03B;}
	.st1{fill:#A2BC53;}
	.st2{fill:#E56575;}
	.st3{fill:#F2D453;}
	.st4{fill:#F2F2F2;}
	.st5{fill:#65C4E5;stroke:#0071BC;stroke-miterlimit:10;}
	.st6{fill:#EF97AA;}
	.st7{fill:#29ABE2;}
	.st8{fill:#44AD5C;}
	.st9{fill:#EF525E;}
	.st10{fill:#FCEE21;}
	.st11{fill:none;stroke:#FCEE21;stroke-width:2.2538;stroke-miterlimit:10;}
	.st12{fill:none;stroke:#FCEE21;stroke-width:2.273;stroke-miterlimit:10;}
	.st13{fill:#29ABE2;stroke:#0071BC;stroke-miterlimit:10;}
	.st14{fill:#FFFFFF;}
	.st15{fill:none;stroke:#FFFFFF;stroke-width:2.2538;stroke-miterlimit:10;}
	.st16{fill:none;stroke:#FFFFFF;stroke-width:2.273;stroke-miterlimit:10;}
	.st17{fill:#F7931E;}
	.st18{fill:#63703A;}
	.st19{fill:#50592A;}
	.st20{fill:#8C9663;}
	.st21{fill:#848964;}
	.st22{fill:#AA8465;}
	.st23{fill:#736357;}
	.st24{fill:#332823;}
	.st25{fill:#666666;}
	.st26{fill:#333333;}
	.st27{fill:#F43122;}
	.st28{fill:#C93C35;}
	.st29{fill:#F44E45;}
	.st30{fill:#E2AAB7;}
	.st31{fill:#E593A3;}
	.st32{fill:#40A4BF;}
	.st33{fill:#1A8DB5;}
	.st34{fill:#ACB5BC;}
	.st35{fill:#939BA0;}
	.st36{fill:#E8E8E8;}
	.st37{fill:#C9C7C7;}
	.st38{fill:none;stroke:#35302D;stroke-width:5;stroke-miterlimit:10;}
	.st39{fill:#ED1C24;}
	.st40{fill:#493C38;}
	.st41{fill:#F4D9BD;}
	.st42{fill:#EBA288;}
	.st43{opacity:0.4;fill:#E4847C;}
	.st44{fill:#5B5B5B;}
	.st45{fill:#303030;}
	.st46{fill:#F7F2F2;}
	.st47{fill:#AFAFAF;}
	.st48{fill:#FFDDBB;}
	.st49{fill:#FFCCAA;}
	.st50{fill:#AA663F;}
	.st51{fill:#9C4C2E;}
	.st52{fill:#EA7DB1;}
	.st53{fill:#ED5AA7;}
	.st54{fill:#F4E65D;}
	.st55{fill:#F2D34E;}
	.st56{fill:#ED1E79;}
	.st57{fill:#543D34;}
	.st58{fill:#C4A58A;}
	.st59{fill:#A67C52;}
	.st60{fill:#F15A24;}
	.st61{fill:#42210B;}
	.st62{fill:#949494;}
	.st63{fill:#E0E2E2;}
	.st64{fill:#F2715B;}
	.st65{fill:#D1D3D5;}
	.st66{fill:#3B444F;}
	.st67{fill:#E6E6E6;}
	.st68{fill:#B3B3B3;}
	.st69{fill:#1C8FB7;}
	.st70{fill-rule:evenodd;clip-rule:evenodd;fill:#FCEE21;}
	.st71{opacity:0.5;fill:#FFFFFF;}
	.st72{fill:none;stroke:#F7931E;stroke-width:8.2777;stroke-miterlimit:10;}
	.st73{fill:#FFFFFF;stroke:#FFFFFF;stroke-width:7.468;stroke-miterlimit:10;}
	.st74{fill:#65C4E5;}
	.st75{fill:none;stroke:#29ABE2;stroke-width:2;stroke-miterlimit:10;}
	.st76{fill:none;stroke:#29ABE2;stroke-width:2;stroke-miterlimit:10;stroke-dasharray:8.5707,5.3567;}
	.st77{fill:none;stroke:#1D8EB5;stroke-width:2;stroke-miterlimit:10;}
	.st78{fill:none;stroke:#1D8EB5;stroke-width:2;stroke-miterlimit:10;stroke-dasharray:8.5707,5.3567;}
</style>
<g id="BG">
	<rect x="0" class="st9" width="500" height="500"/>
	<polygon class="st10" points="386.4,147 390.9,159.8 403.7,164.2 390.9,168.7 386.4,181.4 382,168.7 369.2,164.2 382,159.8 	"/>
	<polygon class="st10" points="104.6,173.3 109.1,186.2 122,190.7 109.1,195.2 104.6,208.1 100.2,195.2 87.3,190.7 100.2,186.2 	"/>
	<polygon class="st10" points="425.8,211.1 428.7,219.4 437,222.3 428.7,225.2 425.8,233.5 422.9,225.2 414.6,222.3 422.9,219.4 	
		"/>
	<circle class="st11" cx="394.6" cy="397" r="9"/>
	<circle class="st12" cx="58.4" cy="148.1" r="9.1"/>
	<circle class="st12" cx="113.1" cy="449.9" r="9.1"/>
</g>
<g id="Layer_1">
	<g>
		<path class="st14" d="M208.7,222.2v103.1c0,9.5-7.7,17.2-17.2,17.2h-34.2c-9.5,0-17.2-7.7-17.2-17.2V222.2
			c0-9.5,7.7-17.2,17.2-17.2h34.2C200.9,204.9,208.7,212.7,208.7,222.2z M191.4,328.8c1.9,0,3.5-1.5,3.5-3.5V222.2
			c0-1.9-1.5-3.5-3.5-3.5h-34.2c-1.9,0-3.4,1.6-3.4,3.5v103.1c0,1.9,1.5,3.5,3.4,3.5H191.4z"/>
		<path class="st14" d="M335.6,215.4l7.8,13.6c10.9,19.1,16.7,40.7,16.7,62.7V315c0,15.2-12.3,27.5-27.5,27.5l-51.7,0
			c7,17.4,10.5,35.7,10.5,54.5v8c0,11.1-9,20.1-20.1,20.1h-4.3c-8.9,0-16.9-6-19.3-14.6l-2.7-9.4c-5.3-18.4-14-35.4-26-50.4
			c-4.1-5.2-10.3-8.2-17-8.2h-20.6c-3.8,0-6.9-3.1-6.9-6.9c0-3.8,3.1-6.9,6.9-6.9h20.6c10.8,0,20.9,4.9,27.7,13.3
			c13.1,16.4,22.7,35,28.5,55.2l2.7,9.4c0.8,2.7,3.3,4.6,6.1,4.6h4.3c3.5,0,6.4-2.9,6.4-6.4v-8c0-17-3.2-33.6-9.5-49.4
			c-1.7-4.2-1.2-9,1.4-12.8c2.6-3.8,6.8-6,11.4-6h51.8c7.6,0,13.8-6.2,13.8-13.8v-23.3c0-19.6-5.1-38.9-14.8-55.9l-7.8-13.6
			c-1.3-2.2-3.6-3.5-6.1-3.5h-83.4c-2.1,0-4.2,0.5-6.1,1.5l-23.2,11.6c-3.4,1.7-7.5,0.3-9.2-3.1c-1.7-3.4-0.3-7.5,3.1-9.2l23.2-11.6
			c3.8-1.9,8-2.9,12.3-2.9h83.4C325,204.9,331.9,209,335.6,215.4z"/>
		<circle class="st14" cx="174.3" cy="239.3" r="6.9"/>
	</g>
</g>
</svg>
