<svg xmlns="http://www.w3.org/2000/svg" viewBox="0 0 500 500"><defs><style>.cls-1{fill:#29abe2;}.cls-2{fill:#acb5bc;}.cls-3{fill:#939ba0;}.cls-4{fill:#fff;}.cls-5{fill:#f43122;}.cls-6{fill:#c93c35;}.cls-7{fill:#f44e45;}.cls-8{fill:#e2aab7;}.cls-9{fill:#e593a3;}.cls-10{fill:#332823;}.cls-11{fill:#e8e8e8;}.cls-12{fill:#c9c7c7;}.cls-13{fill:none;stroke:#35302d;stroke-miterlimit:10;stroke-width:5px;}</style></defs><title>Reigns game</title><g id="BG"><rect class="cls-1" width="500" height="500"/></g><g id="Layer_1" data-name="Layer 1"><polygon class="cls-2" points="250 297.12 406 367 376 500 250 500 250 297.12"/><polygon class="cls-3" points="250 297.12 94 367 124 500 250 500 250 297.12"/><polygon class="cls-4" points="297.89 374.38 259.45 500 250 500 250 409 297.89 374.38"/><polygon class="cls-4" points="202 374.38 240.45 500 249.9 500 249.9 409 202 374.38"/><polygon class="cls-5" points="250 500 271 500 261 418 250 418 250 500"/><polygon class="cls-6" points="250 500 229 500 239 418 250 418 250 500"/><polygon class="cls-7" points="261 420 250 424 239 420 229 394 271 394 261 420"/><polygon class="cls-8" points="333 349 250 409 250 140 333 190 333 349"/><polygon class="cls-9" points="167 349 250 409 250 140 167 190 167 349"/><rect class="cls-10" x="272" y="234" width="7" height="45"/><rect class="cls-10" x="221" y="234" width="7" height="45"/><polygon class="cls-11" points="250 115 250 210.15 265.03 205.7 265 200.88 279 204.07 304.66 204.43 302 197 319.41 206.93 333 189.24 333 165 250 115"/><polygon class="cls-12" points="250 115 250 210.15 234.97 205.7 235 200.88 221 204.07 195.34 204.43 198 197 180.59 206.93 167 189.24 167 165 250 115"/><circle class="cls-13" cx="276" cy="256" r="17.5"/><circle class="cls-13" cx="224" cy="256" r="17.5"/><line class="cls-13" x1="242" y1="256.09" x2="259" y2="256.09"/><line class="cls-13" x1="294" y1="256" x2="333" y2="234"/><line class="cls-13" x1="206" y1="256" x2="167" y2="234"/></g></svg>