<?xml version="1.0" encoding="utf-8"?>
<!-- Generator: Adobe Illustrator 23.0.2, SVG Export Plug-In . SVG Version: 6.00 Build 0)  -->
<svg version="1.1" id="Layer_1" xmlns="http://www.w3.org/2000/svg" xmlns:xlink="http://www.w3.org/1999/xlink" x="0px" y="0px"
	 viewBox="0 0 550 550" style="enable-background:new 0 0 550 550;" xml:space="preserve">
<style type="text/css">
	.st0{fill:#EC1C24;}
	.st1{fill:#40A3BE;}
	.st2{fill:#1B8CB4;}
	.st3{fill:#C83D36;}
	.st4{fill:#F28F9D;}
	.st5{fill:#F3A1B0;}
	.st6{fill:#E7E6E6;}
	.st7{fill:#C8C6C6;}
	.st8{fill:#F35148;}
	.st9{fill:#332823;}
</style>
<g>
	<path class="st0" d="M136.38,549.89c-45.27,0-90.55,0-136.37,0c0-1.44,0-2.92,0-4.4c0-180.36,0.02-360.72-0.1-541.08
		c0-3.77,0.74-4.51,4.5-4.5c180.36,0.12,360.72,0.12,541.08,0c3.77,0,4.51,0.74,4.5,4.5c-0.12,180.36-0.12,360.72,0,541.08
		c0,3.77-0.74,4.52-4.5,4.51c-43.99-0.17-87.98-0.11-131.97-0.11c-2.21-3.07-1.21-6.31-0.49-9.52
		c8.32-37.33,16.86-74.61,25.22-111.92c1.16-5.18,2.38-10.34,3.52-15.53c1.35-6.16,0.23-8.38-5.32-10.93
		c-20.95-9.62-42.08-18.86-63.06-28.4c-3.42-1.55-7.08-2.83-9.32-6.22c-0.66-3.08-0.54-6.2-0.54-9.31
		c-0.03-44.82-0.02-89.63-0.01-134.45c0-3.29,0.01-6.59,0.64-9.82c-1.41-7.42-0.65-14.93-0.51-22.38
		c0.11-6.26-2.28-10.11-7.63-13.27c-25.66-15.16-51.17-30.58-76.6-46.12c-1.4-0.85-2.72-1.89-4.51-1.73
		c-6.87,2.21-12.54,6.64-18.56,10.33c-20.88,12.8-41.95,25.28-62.97,37.84c-4.97,2.97-7.22,6.65-7.08,12.45
		c0.17,6.91,0.34,13.82,0.3,20.75c-1.42,2.67-0.2,5.41-0.2,8.09c0.02,47.31,0.04,94.61-0.04,141.92c0,1.83-0.07,3.65-0.48,5.44
		c-1.74,3.6-5.38,4.68-8.6,6.15c-20.68,9.41-41.5,18.49-62.13,28c-7.67,3.54-8.54,5.15-6.72,13.12
		c9.52,41.8,18.93,83.62,28.33,125.44C137.51,543.19,138.72,546.62,136.38,549.89z"/>
	<path class="st1" d="M366.41,367.66c26.68,11.9,53.36,23.79,80.38,35.84c-11.16,49.09-22.21,97.74-33.27,146.39
		c-38.49,0-76.98,0-115.48,0c-1.63-1.33-2.61-3.06-2.92-5.1c-1.31-8.63-3.06-17.22-2.77-26.01c5.26-16.31,9.76-32.85,14.86-49.22
		c4.85-15.56,9.74-31.12,14.3-46.77c0.92-3.16,3.44-5.68,3.43-9.15c0.07-3.16,2.31-4.76,4.55-6.38
		c8.85-6.41,17.52-13.07,26.56-19.21c5.09-3.46,8.11-7.56,7.6-14.01C363.48,371.7,363.03,368.7,366.41,367.66z"/>
	<path class="st2" d="M136.38,549.89c-11.06-48.65-22.12-97.31-33.27-146.39c27.02-12.05,53.71-23.94,80.39-35.83
		c3.37,1.04,2.93,4.04,2.75,6.37c-0.51,6.45,2.51,10.55,7.59,14c8.88,6.03,17.42,12.55,26.09,18.89c1.89,1.38,4.05,2.56,4.59,5.16
		c-0.2,4.82,3.13,8.43,4.42,12.79c7.18,24.21,14.61,48.35,22.13,72.46c2.32,7.46,3.15,15.36,6.57,22.5c0,8.24-1.53,16.32-2.71,24.42
		c-0.32,2.2-1.22,4.2-3.06,5.63C213.36,549.89,174.87,549.89,136.38,549.89z"/>
	<path class="st3" d="M251.86,549.89c1.1-10.27,2.2-20.53,3.3-30.8c-2.52-18,2.33-35.42,4.16-53.08c0.21-2,1.35-3.33,3.02-4.3
		c5.88-1.94,10.4,0.24,14.18,4.67c0.98,2.23,1.09,4.62,1.1,6.99c0.1,22.84,0.11,45.69-0.01,68.53c-0.02,2.91,0.05,5.93-2.65,7.99
		C267.25,549.89,259.55,549.89,251.86,549.89z"/>
	<path class="st0" d="M274.95,549.89c0.01-27.81,0.02-55.61,0.03-83.42c2.5-4.9,7.17-6.55,12.88-4.56c2.15,1.21,2.63,3.27,2.96,5.5
		c1.92,12.93,3.44,25.91,4.9,38.9c0.47,4.16-1.01,8.18-0.99,12.31c1.1,10.42,2.21,20.84,3.31,31.27
		C290.35,549.89,282.65,549.89,274.95,549.89z"/>
	<path class="st4" d="M222.37,412.33c-12.79-9.4-25.58-18.79-38.87-28.56c0-5.19,0-10.65,0-16.11
		c0.11-52.89,0.22-105.78,0.33-158.67c2.51-1.28,3.63,0.82,5.05,2.11c1.91,1.74,3.3,3.92,4.86,5.94c4.99,6.44,6.47,6.75,13.71,2.71
		c1.6-0.89,3.1-1.95,4.8-2.65c2.72-1.12,5.13-0.91,6.56,1.92c1.73,3.43,4.59,3.83,7.89,3.39c9.41-1.24,19.05-0.38,28.29-3.12
		c1.48-0.44,3.41-0.48,4.11,0.72c3.41,5.87,10.22,5.94,15.11,9.22c0.76,0.51,1.61,0.83,2.08,1.7c0.2,0.62,0.42,1.21,0.66,1.81
		c0.77,2.7,0.7,5.45,0.7,8.19c0.03,65.7,0.03,131.41,0,197.11c0,2.74,0.03,5.49-0.58,8.18c-0.07,1.57,0.39,3.31-1.98,4.69
		c-2.22,1.12-4.33-0.64-6.27-2.12c-4.29-3.28-9.12-5.89-12.78-9.96c-1.09-1.21-2.42-1.46-3.85-1.65
		c-8.6-6.92-18.26-12.46-26.32-20.08C224.47,415.79,223.01,414.32,222.37,412.33z"/>
	<path class="st5" d="M276.25,448.84c-0.43-4.49-1.24-8.98-1.25-13.48c-0.09-68.09-0.08-136.18-0.09-204.26
		c1.25-2.45,3.45-3.66,5.94-4.38c3.57-1.03,6.75-2.34,8.89-5.79c1.79-2.89,4.94-2.01,7.5-1.18c9.22,2.97,18.89,1.14,28.22,2.79
		c1.25,0.22,2.53-0.2,3.65-0.91c1.84-1.04,1.88-3.57,3.8-4.56c2.7-1.43,4.93,0.04,7.15,1.26c10.5,5.76,10.5,5.78,18.03-3.8
		c1.36-1.73,2.63-3.56,4.8-4.33c1.08-0.38,2.16-0.14,2.98,0.79c0.18,52.22,0.35,104.45,0.53,156.67c0,5.29,0,10.58,0,15.65
		c-13.33,10.24-26.29,20.2-39.25,30.17c-4.71,6.19-11.09,10.41-17.38,14.71c-4.05,2.77-7.7,6.03-11.59,8.99
		c-1.85,0.14-3.35,0.65-4.77,2.16c-3.52,3.73-8.11,6.19-12.14,9.33C279.65,449.92,277.98,450.11,276.25,448.84z"/>
	<path class="st6" d="M365.88,210.99c-4.86,5.29-9.71,10.58-15.06,16.41c-5.25-2.88-10.75-5.91-16.77-9.21c0,2.44,0,4.14,0,7.46
		c-14.03-0.99-27.67-1.95-41.87-2.95c-0.29,0.65-0.93,2.1-1.81,4.1c-4.95,1.38-10.2,2.84-15.45,4.3c0,0,0.05-0.21,0.05-0.21
		c-2.39-1.72-2.62-4.31-2.63-6.9c-0.18-29.87-0.18-59.75-0.01-89.62c0.02-2.85,0.8-5.42,2.67-7.61
		c30.4,18.07,60.79,36.15,90.89,54.05C365.88,191.3,365.88,201.14,365.88,210.99z"/>
	<path class="st7" d="M274.99,126.76c-0.01,34.71-0.01,69.42-0.02,104.13c-5.1-1.32-10.21-2.63-15.2-3.92
		c-0.88-1.87-1.56-3.31-2.07-4.39c-13.86,1.05-27.53,2.08-41.59,3.14c0-3.17,0-4.89,0-7.58c-6.11,3.31-11.61,6.29-17.51,9.49
		c-5.07-6.39-9.92-12.51-14.78-18.63c0-9.14,0-18.27,0-28.09C214.08,162.93,244.54,144.85,274.99,126.76z"/>
	<path class="st6" d="M297.2,435.62c9.99-7.38,19.97-14.77,29.96-22.15c-10.81,35.05-21.62,70.1-32.43,105.15
		c-2.5-18.54-5-37.07-7.5-55.61c-0.83-1.02-1.67-2.2-1.25-3.49C288.74,451.1,290.04,441.98,297.2,435.62z"/>
	<path class="st6" d="M222.37,412.33c10.13,7.77,20.26,15.54,30.4,23.3c7.05,6.37,8.38,15.44,11.14,23.81
		c0.43,1.29-0.4,2.46-1.24,3.46c-2.51,18.73-5.01,37.45-7.52,56.18C244.22,483.5,233.3,447.92,222.37,412.33z"/>
	<path class="st8" d="M262.67,462.91c-3.3-9.09-6.6-18.18-9.9-27.28c7.83,4.4,15.66,8.8,23.49,13.2c6.98-4.4,13.97-8.81,20.95-13.21
		c-3.32,9.13-6.64,18.26-9.96,27.39c-4.09,1.15-8.17,2.3-12.26,3.45C270.87,465.28,266.77,464.1,262.67,462.91z"/>
	<path class="st9" d="M243.38,257.45c2.52,0,4.52,0,6.95,0c0,16.25,0,32.42,0,48.99c-2.12,0-4.37,0-6.95,0
		C243.38,290.3,243.38,274.12,243.38,257.45z"/>
	<path class="st9" d="M306.51,306.75c-2.45,0-4.46,0-6.91,0c0-16.24,0-32.41,0-48.99c2.05,0,4.3,0,6.91,0
		C306.51,273.84,306.51,290.04,306.51,306.75z"/>
</g>
</svg>
