<?xml version="1.0" encoding="utf-8"?>
<!-- Generator: Adobe Illustrator 23.0.2, SVG Export Plug-In . SVG Version: 6.00 Build 0)  -->
<svg version="1.1" id="Layer_1" xmlns="http://www.w3.org/2000/svg" xmlns:xlink="http://www.w3.org/1999/xlink" x="0px" y="0px"
	 viewBox="0 0 327 88" style="enableBackground:new 0 0 327 88;" xml:space="preserve">
	 <title>שיא חדש!</title>
<style type="text/css">
	.st0{fill:#FFFFFF;stroke:#000000;stroke-miterlimit:10;}
	.st1{fill:#FFFFFF;stroke:#000000;stroke-width:1.0408;stroke-miterlimit:10;}
	.st2{fill:none;stroke:#000000;stroke-miterlimit:10;}
	.st3{fill:none;stroke:#000000;stroke-width:0.9033;stroke-miterlimit:10;}
	.st4{fill:#FFFFFF;stroke:#000000;stroke-width:0.8;stroke-miterlimit:10;}
	.st5{fill:#29A9E1;stroke:#FFFFFF;stroke-width:1.5;stroke-miterlimit:10;}
	.st6{fill-rule:evenodd;clip-rule:evenodd;fill:#FFFFFF;}
	.st7{fill:#29A9E1;stroke:#FFFFFF;stroke-width:1.2;stroke-miterlimit:10;}
	.st8{fill:#29A9E1;}
	.st9{fill:#FFFFFF;}
	.st10{fill:#F05A26;stroke:#FFFFFF;stroke-width:1.2;stroke-miterlimit:10;}
	.st11{fill:#F37A20;}
	.st12{fill:#F05A26;}
	.st13{fill:#2B9BE0;stroke:#FFFFFF;stroke-miterlimit:10;}
	.st14{fill:#F9EC23;}
	.st15{fill:none;stroke:#F9EC23;stroke-width:2;stroke-miterlimit:10;}
</style>
<g>
	<path class="st8" d="M32.5,35.5l-2.5,18.2c0,0.2-0.1,0.4-0.4,0.4h-7.7c-0.1,0-0.4-0.2-0.4-0.4l-2.4-18.2V9c0-0.3,0.1-0.4,0.4-0.4
		h12.7c0.1,0,0.4,0.1,0.4,0.4V35.5z M20,72.3c-0.2,0-0.4-0.1-0.4-0.4V60.8c0-0.3,0.2-0.4,0.4-0.4h11.3c0.3,0,0.5,0.1,0.5,0.4v11.2
		c0,0.3-0.2,0.4-0.5,0.4H20z"/>
	<path class="st8" d="M91.1,71.9c0,0.3-0.3,0.4-0.4,0.4H46.6c-0.2,0-0.4-0.1-0.4-0.4V19.5H43c-0.3,0-0.4-0.2-0.4-0.4V9
		c0-0.3,0.1-0.4,0.4-0.4h8.7c3,0,5.4,3,5.4,6.6v46.2h6.1V19.5H60c-0.2,0-0.4-0.2-0.4-0.4V9c0-0.3,0.2-0.4,0.4-0.4h8.6
		c3.1,0,5.5,3,5.5,6.6v46.2h6V19.5h-3.2c-0.2,0-0.4-0.2-0.4-0.4V9c0-0.3,0.2-0.4,0.4-0.4h8.6c3,0,5.6,3,5.6,6.6V71.9z"/>
	<path class="st8" d="M125.5,8.6c3.1,0,5.6,3,5.6,6.6v4c0,0.2-0.2,0.4-0.4,0.4h-3.4v52.4c0,0.3-0.1,0.4-0.4,0.4h-10.2
		c-0.2,0-0.4-0.1-0.4-0.4V19.5H99.8c-0.3,0-0.4-0.2-0.4-0.4V9c0-0.3,0.1-0.4,0.4-0.4H125.5z"/>
	<path class="st8" d="M168.5,71.9c0,0.3-0.2,0.4-0.4,0.4H158c-0.3,0-0.4-0.1-0.4-0.4V19.5h-6.1v52.4c0,0.3-0.1,0.4-0.4,0.4h-10.1
		c-0.3,0-0.4-0.1-0.4-0.4V9c0-0.3,0.1-0.4,0.4-0.4H163c3.1,0,5.6,3,5.6,6.6V71.9z"/>
	<path class="st8" d="M227.7,71.9c0.1,0.3-0.2,0.4-0.4,0.4h-10.9c-0.1,0-0.4-0.1-0.4-0.4l-8-25.2l-0.5,0.8v13.8h3
		c0.2,0,0.4,0.2,0.4,0.4v10.2c0,0.3-0.2,0.4-0.4,0.4h-13.7c-0.1,0-0.4-0.1-0.4-0.4V43.8c0-0.1,0.1-0.4,0.3-0.5l7-10L196,9
		c0-0.3,0.1-0.4,0.4-0.4h10.7c0.1,0,0.2,0.1,0.4,0.4l8,25.1l0.8-1.1V19.5h-2.7c-0.3,0-0.4-0.2-0.4-0.4V9c0-0.3,0.1-0.4,0.4-0.4h8.2
		c3,0,5.6,3,5.6,6.6v21.8c0,0.3-0.3,0.5-0.3,0.6l-7.2,10L227.7,71.9z"/>
	<path class="st8" d="M251.2,37.5c0,0.2-0.1,0.3-0.4,0.3h-10.2c-0.2,0-0.4-0.1-0.4-0.3V19.5h-3.2c-0.3,0-0.4-0.2-0.4-0.4V9
		c0-0.3,0.1-0.4,0.4-0.4h8.7c3,0,5.4,3,5.4,6.6V37.5z"/>
	<path class="st8" d="M309,71.9c0,0.3-0.3,0.4-0.4,0.4h-44.1c-0.2,0-0.4-0.1-0.4-0.4V19.5H261c-0.3,0-0.4-0.2-0.4-0.4V9
		c0-0.3,0.1-0.4,0.4-0.4h8.7c3,0,5.4,3,5.4,6.6v46.2h6.1V19.5h-3.3c-0.2,0-0.4-0.2-0.4-0.4V9c0-0.3,0.2-0.4,0.4-0.4h8.6
		c3.1,0,5.5,3,5.5,6.6v46.2h6V19.5h-3.2c-0.2,0-0.4-0.2-0.4-0.4V9c0-0.3,0.2-0.4,0.4-0.4h8.6c3,0,5.6,3,5.6,6.6V71.9z"/>
</g>
</svg>
