<?xml version="1.0" encoding="utf-8"?>
<!-- Generator: Adobe Illustrator 23.0.2, SVG Export Plug-In . SVG Version: 6.00 Build 0)  -->
<svg version="1.1" id="Layer_1" xmlns="http://www.w3.org/2000/svg" xmlns:xlink="http://www.w3.org/1999/xlink" x="0px" y="0px"
	 viewBox="0 0 327 88" style="enableBackground:new 0 0 327 88;background-color:white;" xml:space="preserve">
<style type="text/css">
	.st0{fill:#FFFFFF;stroke:#000000;stroke-miterlimit:10;}
	.st1{fill:#FFFFFF;stroke:#000000;stroke-width:1.0408;stroke-miterlimit:10;}
	.st2{fill:none;stroke:#000000;stroke-miterlimit:10;}
	.st3{fill:none;stroke:#000000;stroke-width:0.9033;stroke-miterlimit:10;}
	.st4{fill:#FFFFFF;stroke:#000000;stroke-width:0.8;stroke-miterlimit:10;}
	.st5{fill:#29A9E1;stroke:#FFFFFF;stroke-width:1.5;stroke-miterlimit:10;}
	.st6{fill-rule:evenodd;clip-rule:evenodd;fill:#FFFFFF;}
	.st7{fill:#29A9E1;stroke:#FFFFFF;stroke-width:1.2;stroke-miterlimit:10;}
	.st8{fill:#29A9E1;}
	.st9{fill:#FFFFFF;}
	.st10{fill:#F05A26;stroke:#FFFFFF;stroke-width:1.2;stroke-miterlimit:10;}
	.st11{fill:#F37A20;}
	.st12{fill:#F05A26;}
	.st13{fill:#2B9BE0;stroke:#FFFFFF;stroke-miterlimit:10;}
	.st14{fill:#F9EC23;}
	.st15{fill:none;stroke:#F9EC23;stroke-width:2;stroke-miterlimit:10;}
	.st16{fill:#1A1A1A;}
</style>
<g>
	<path class="st8" d="M86.8,61.3c0,0.5-0.2,0.8-0.5,1.1c-0.3,0.3-0.7,0.5-1.1,0.5h-8.5c-0.4,0-0.8-0.2-1.1-0.5
		c-0.3-0.3-0.5-0.7-0.5-1.1l-0.4-44.7c0-0.4,0.2-0.8,0.5-1.1c0.3-0.3,0.7-0.5,1.1-0.5h9.4c0.4,0,0.8,0.2,1.1,0.5
		c0.3,0.3,0.5,0.7,0.5,1.1L86.8,61.3z M86.8,79.4c0,0.5-0.2,0.8-0.5,1.1C86,80.9,85.7,81,85.2,81h-8.5c-0.4,0-0.8-0.2-1.1-0.5
		c-0.3-0.3-0.5-0.7-0.5-1.1v-8.9c0-0.5,0.2-0.8,0.5-1.1c0.3-0.3,0.7-0.5,1.1-0.5h8.5c0.4,0,0.8,0.2,1.1,0.5c0.3,0.3,0.5,0.7,0.5,1.1
		V79.4z"/>
	<path class="st8" d="M128.2,48.1v27.6c0,0.4,0,0.8,0,1.3c0,0.4,0,0.8-0.1,1.3c-0.1,0.9-0.3,1.6-0.6,1.9c-0.3,0.3-1,0.5-1.9,0.5
		c-2.6,0.1-5.1,0.1-7.6,0c-0.8-0.1-1.4-0.3-1.8-0.6c-0.4-0.3-0.6-0.9-0.7-1.7c-0.1-0.4-0.1-0.8-0.1-1.3c0-0.4,0-0.8,0-1.3V33.3v-2.4
		c0-0.6-0.2-1.2-0.4-1.6c-0.2-0.5-0.7-0.8-1.3-0.9c-0.6-0.2-1.2-0.2-1.8-0.1c-0.6,0.1-1,0.4-1.4,1c-0.4,0.6-0.7,1.3-1,1.9
		c-0.3,0.6-0.6,1.3-0.9,1.9c-0.2,0.7-0.4,1.3-0.5,2c-0.1,0.7-0.1,1.4,0,2.2c0.7,4.8,1.3,9.6,1.9,14.3c0.6,4.7,1.2,9.4,1.7,14.2
		c0.2,2.1,0.3,4.1,0.3,6.2c0,2.1-0.1,4.1-0.1,6.3c0,0.8-0.2,1.4-0.5,1.8c-0.3,0.3-0.9,0.5-1.8,0.5c-3.8,0-7.6,0-11.4,0
		c-1,0-1.6-0.2-2-0.5c-0.3-0.3-0.5-0.9-0.6-1.8c-0.1-1.4-0.1-2.8-0.1-4.1c0-1.3,0-2.6,0-4c0-0.7,0.2-1.3,0.5-1.7
		c0.3-0.4,0.8-0.7,1.5-1c0.5-0.2,0.8-0.3,1.1-0.5c0.3-0.2,0.5-0.3,0.6-0.6c0.1-0.2,0.2-0.5,0.2-0.8c0-0.3,0-0.7,0-1.2
		c-0.4-4-0.8-7.9-1.2-11.9s-0.8-7.9-1.3-11.9c-0.2-1.6-0.2-3.1-0.2-4.6c0-1.5,0.4-3,1.2-4.5c0.3-0.5,0.5-1,0.6-1.4
		c0.1-0.4,0.1-0.7-0.1-0.9c-0.1-0.2-0.4-0.5-0.8-0.6s-0.9-0.3-1.5-0.5c-1.3-0.3-1.9-1-1.9-2.2c0-1.4,0-2.9,0-4.2
		c0-1.4,0-2.8,0.1-4.2c0-1.4,0.7-2.2,2.1-2.2c0.4,0,0.8-0.1,1.1-0.1c0.3,0,0.7,0,1.1,0h24.7h0.5c0.9,0,1.6,0.1,2.1,0.2
		c0.5,0.1,0.9,0.2,1.2,0.5c0.3,0.3,0.4,0.7,0.5,1.2c0.1,0.5,0.1,1.2,0.1,2.1V48.1z"/>
	<path class="st8" d="M166.6,49.3v26.3v1.6c0,0.7-0.1,1.2-0.2,1.6c-0.1,0.4-0.2,0.7-0.4,1c-0.2,0.2-0.5,0.4-0.9,0.5
		c-0.4,0.1-0.9,0.2-1.6,0.2c-2.4,0.1-4.9,0.1-7.4,0c-0.6,0-1.1-0.1-1.5-0.2c-0.4-0.1-0.7-0.2-0.9-0.5c-0.2-0.2-0.3-0.5-0.4-0.9
		c-0.1-0.4-0.1-0.9-0.1-1.5c0-3.8,0-7.6,0-11.4c0-3.8,0-7.6,0-11.4c0-3.6,0-7.2,0-10.8c0-3.6,0-7.2,0-10.8c0-0.5,0-0.9-0.1-1.3
		c0-0.4-0.1-0.9-0.2-1.3c-0.1-0.7-0.5-1.2-0.9-1.5c-0.5-0.3-1.1-0.4-1.8-0.4c-1.3,0-2,0.8-2.2,2.3c-0.1,0.4-0.1,0.9-0.1,1.3
		c0,0.5,0,0.9,0,1.4v42.8c0,1,0,1.8-0.1,2.4c-0.1,0.6-0.2,1-0.5,1.3c-0.3,0.3-0.7,0.5-1.3,0.5c-0.6,0.1-1.4,0.1-2.4,0.1
		c-1,0-1.9,0.1-2.9,0.1c-0.9,0-1.9,0-2.8-0.1c-0.6,0-1-0.1-1.4-0.2c-0.4-0.1-0.6-0.2-0.8-0.5c-0.2-0.2-0.3-0.5-0.4-0.9
		c-0.1-0.4-0.1-0.9-0.1-1.5c0-0.3,0-0.5,0-0.8c0-0.3,0-0.5,0-0.7c0-9.5,0-18.9,0-28.2s0-18.7,0-28.1c0-1.1,0-2,0.1-2.6
		s0.2-1.1,0.5-1.4c0.3-0.3,0.7-0.5,1.3-0.5c0.6,0,1.5-0.1,2.6-0.1h19c0.5,0,1,0,1.5,0c0.5,0,1,0.1,1.5,0.1c1.3,0.2,2.4,0.6,3.2,1.3
		c0.8,0.7,1.3,1.7,1.6,3.1c0.1,0.5,0.2,1,0.2,1.6c0,0.6,0,1.1,0,1.6V49.3z"/>
	<path class="st8" d="M194.1,38.3c0.5-1.6,0.7-3.1,0.7-4.5c0-1.5-0.1-2.9-0.4-4.3c-0.1-0.3-0.2-0.5-0.5-0.8
		c-0.3-0.3-0.5-0.5-0.7-0.6c-0.6-0.3-1-0.7-1.2-1.1c-0.2-0.5-0.3-1-0.3-1.6c0.1-1.3,0.1-2.5,0-3.7c0-1.2,0-2.4,0-3.6
		c0.1-1,0.3-1.7,0.6-2.1c0.3-0.4,1-0.5,2-0.5c3.5-0.1,6.9-0.1,10.3,0c1.1,0,1.9,0.3,2.3,0.7c0.4,0.4,0.6,1.2,0.7,2.3
		c0,3.5,0,7,0,10.3c0,3.4,0,6.8-0.1,10.3c0,0.7-0.1,1.3-0.2,2c-0.1,0.7-0.3,1.3-0.5,2c-0.4,1.1-0.9,2.1-1.7,2.8
		c-0.8,0.8-1.8,1.2-3,1.5c-0.2,0.1-0.4,0.1-0.7,0.1c-0.2,0-0.5,0.1-0.7,0.1c-0.9,0.3-1.4,0.6-1.6,0.9c-0.2,0.4-0.2,0.9,0.1,1.8
		c0.1,0.3,0.3,0.7,0.4,1c0.1,0.3,0.3,0.7,0.4,1c1.1,2,2.1,4.1,3,6.1c1,2,2,4,3,6.1c0.5,1,0.9,1.9,1.2,2.9c0.3,0.9,0.4,2,0.3,3.1
		c-0.1,1.3-0.1,2.5,0,3.7c0,1.2,0,2.5,0,3.8c-0.1,1.1-0.3,1.8-0.7,2.2c-0.4,0.4-1.1,0.6-2.1,0.6h-28.2c-1.1,0-1.8-0.2-2.2-0.5
		c-0.4-0.4-0.6-1.1-0.6-2.3c-0.1-2-0.1-4.1,0-6.2c0-0.7,0-1.3,0.1-1.7c0.1-0.4,0.2-0.8,0.5-1s0.6-0.4,1-0.5c0.4-0.1,1-0.1,1.7-0.1
		c1.8,0,3.6,0,5.4,0c1.8,0,3.6,0,5.4,0c0.4,0,0.8,0,1.3,0c0.4,0,0.8-0.1,1.3-0.1c0.9-0.2,1.4-0.4,1.6-0.8c0.2-0.4,0.2-1-0.1-1.8
		c-0.2-0.4-0.3-0.8-0.5-1.1c-0.2-0.4-0.3-0.7-0.5-1.1c-2.2-4.6-4.3-9.1-6.4-13.6c-2.1-4.5-4.2-9-6.3-13.6c-0.4-0.8-0.7-1.7-0.9-2.7
		c-0.2-0.9-0.4-1.8-0.5-2.7c-0.1-0.7-0.3-1.2-0.4-1.7c-0.2-0.5-0.5-0.9-1.2-1.2c-0.5-0.2-0.9-0.6-1.1-1c-0.2-0.4-0.3-0.9-0.3-1.4
		c0-1.4,0-2.7,0-4c0-1.3,0-2.6,0-3.9c0-0.9,0.2-1.5,0.5-1.8c0.3-0.3,0.9-0.5,1.8-0.5c1.7-0.1,3.4-0.1,5.2-0.1c1.7,0,3.4,0,5.2,0.1
		c0.9,0.1,1.5,0.3,1.9,0.7c0.4,0.4,0.6,1.1,0.7,2.1c0,1.3,0,2.5,0,3.8c0,1.2,0,2.5,0,3.8c0,1.1,0.1,2.1,0.4,3.1c0.3,1,0.6,2,0.9,3
		c0.4,1,0.8,2,1.3,2.9c0.5,1,0.9,1.9,1.4,2.8c0.1,0.1,0.2,0.2,0.4,0.3C193.6,38.1,193.8,38.2,194.1,38.3z"/>
	<path class="st8" d="M227.5,31.8c0,1.9,0,3.7,0,5.5c0,1.8,0,3.7,0,5.6c0,0.7,0,1.2-0.1,1.7c-0.1,0.4-0.3,0.8-0.5,1
		c-0.3,0.3-0.6,0.4-1,0.5c-0.4,0.1-1,0.2-1.6,0.2c-1,0-1.9,0-2.9,0c-1,0-1.9,0-2.9-0.1c-1.1-0.1-1.8-0.3-2.2-0.7
		c-0.4-0.4-0.6-1.1-0.6-2.3V31.6c0-0.7-0.1-1.4-0.2-2c-0.1-0.6-0.4-1.2-0.9-1.8c-0.1-0.2-0.3-0.5-0.4-0.8c-0.1-0.3-0.2-0.6-0.2-0.9
		c-0.1-1.4-0.1-2.9-0.1-4.3c0-1.4,0-2.9,0-4.3c0-0.7,0.2-1.2,0.7-1.6c0.4-0.3,0.9-0.5,1.6-0.5c1,0,1.9-0.1,2.9-0.1
		c0.9,0,1.9,0,2.9,0.1c2,0.1,3.4,0.5,4.3,1.4c0.9,0.8,1.3,2.3,1.4,4.2c0,1.9,0,3.7,0,5.5S227.5,29.9,227.5,31.8z"/>
	<path class="st8" d="M252.3,44.1c0,4.1,0,8.2,0,12.2c0,4,0,8.1,0,12.2c0,1.4-0.2,2.8-0.5,4.1c-0.3,1.3-0.9,2.6-1.8,3.8
		c-0.9,1.3-1.9,2.3-3.1,3c-1.2,0.6-2.6,1-4.1,1.1c-1.2,0.2-2.4,0.2-3.6,0.2c-1.2,0-2.5-0.1-3.7-0.1c-0.8,0-1.4-0.2-1.7-0.5
		c-0.3-0.3-0.5-0.9-0.5-1.8c-0.1-2.6-0.1-5.2,0-7.8c0-0.9,0.2-1.5,0.5-1.8c0.3-0.3,0.9-0.5,1.8-0.6c0.3-0.1,0.6-0.1,0.9-0.1
		s0.6,0,0.9-0.1c1.4-0.3,2.1-1.1,2.3-2.6c0-0.3,0-0.5,0-0.8s0-0.6,0-0.8V32v-1.4c0-1.4-0.8-2.3-2.2-2.7c-0.5-0.1-1-0.2-1.3-0.4
		c-0.3-0.1-0.5-0.3-0.7-0.5c-0.2-0.2-0.2-0.5-0.3-0.8c0-0.3,0-0.8,0-1.3c0-1.2,0-2.5,0-3.7s0-2.4,0.1-3.7c0-0.9,0.2-1.5,0.5-1.8
		c0.3-0.3,0.9-0.5,1.8-0.5c4-0.1,8.1-0.1,12.2,0c1,0,1.7,0.3,2,0.7c0.3,0.4,0.5,1.3,0.5,2.5v23.6V44.1z"/>
</g>
</svg>
