<svg id="Layer_1" data-name="Layer 1" xmlns="http://www.w3.org/2000/svg" viewBox="0 0 375 202">
<title>מלך</title>
<defs>
<style>.cls-1{fill:#fff;fill-rule:evenodd;}.cls-2{fill:#29abe2;stroke:#fff;stroke-miterlimit:10;stroke-width:1.2px;}</style>
</defs>
<polygon class="cls-1" points="180.12 46.66 163.19 46.66 161.31 36.32 166.95 40.08 171.66 35.38 176.36 40.08 182 36.32 180.12 46.66"/><path class="cls-2" d="M306.35,72.81s-.47-25.65-27.63-33C278.8,44.49,280.13,64.64,306.35,72.81Z"/><line class="cls-2" x1="278.72" y1="39.83" x2="306.2" y2="72.27"/><rect class="cls-2" x="284.29" y="163.25" width="23.2" height="5.2"/><polygon class="cls-2" points="304.69 136.85 295.89 133.65 287.09 136.85 287.09 163.25 304.69 163.25 304.69 136.85"/><polygon class="cls-2" points="304.69 136.85 295.89 133.65 287.09 136.85 279.09 130.85 287.09 126.45 295.89 128.85 304.13 126.45 310.29 130.85 304.69 136.85"/><line class="cls-2" x1="279.49" y1="131.22" x2="309.89" y2="131.22"/><polygon class="cls-2" points="304.69 40.05 295.89 24.05 287.09 40.05 287.09 126.45 295.89 129.65 304.69 126.45 304.69 40.05"/><line class="cls-2" x1="295.89" y1="24.05" x2="295.89" y2="129.65"/><path class="cls-2" d="M304.69,64.05c4.86,8,12.27,27.73,11.2,52.8-.8,13.6-5.6,28-24.8,38.4a20.81,20.81,0,0,1-2.4-5.6s23.2-8,23.2-36c0-9.1-2.45-31.06-7.35-40.16C304.69,72.05,304.69,64.05,304.69,64.05Z"/><path class="cls-2" d="M314.69,89.25s22-13.2,14.8-40.4C325.49,51.25,308.69,62.45,314.69,89.25Z"/><line class="cls-2" x1="329.49" y1="48.85" x2="315.09" y2="88.85"/><path class="cls-2" d="M316.13,116.46s23.94-9.22,21.52-37.25C333.3,80.88,314.83,89,316.13,116.46Z"/><line class="cls-2" x1="337.65" y1="79.21" x2="316.59" y2="116.14"/><path class="cls-2" d="M311.34,132.83s25.53,2.48,35.94-23.66C342.63,108.72,322.47,107.72,311.34,132.83Z"/><line class="cls-2" x1="347.28" y1="109.17" x2="311.9" y2="132.75"/><path class="cls-2" d="M309.79,92.07s-7.94-24.4-36.07-23.47C275.17,73,282.32,91.91,309.79,92.07Z"/><line class="cls-2" x1="273.72" y1="68.6" x2="309.49" y2="91.59"/><path class="cls-2" d="M311,119.07s-7.1-24.65-35.24-24.68C277,98.87,283.53,118,311,119.07Z"/><line class="cls-2" x1="275.73" y1="94.39" x2="310.69" y2="118.58"/><circle class="cls-2" cx="311.89" cy="88.85" r="3.2"/><circle class="cls-2" cx="313.49" cy="116.05" r="3.2"/><path d="M159.46,159.09a.47.47,0,0,1-.51.52H144.51c-.39,0-.78-.26-.78-.52V76.41H121.89a.56.56,0,0,1-.52-.52V61.33a.48.48,0,0,1,.52-.52h29.78c4.29,0,7.79,4.29,7.79,9.36Z"/><path d="M164.53,76.41c-.39,0-.52-.13-.52-.52V53.53c0-.39.13-.52.52-.52h14.56c.26,0,.39.13.39.52v7.28H196c4.42,0,7.8,4.29,7.8,9.36v45.11l-11.44,36a.55.55,0,0,1-.52.52h-15.6c-.26,0-.52-.13-.39-.52l12.35-38.74V76.41Z"/><path d="M254,151.29a.55.55,0,0,1-.52.52H232.78a.55.55,0,0,1-.52-.52V136.73c0-.26.39-.52.52-.52h5.46V76.8h-.65L229.4,87.46v63.83c0,.39-.13.52-.52.52H214.32a.48.48,0,0,1-.52-.52V76.41h-4.55a.48.48,0,0,1-.52-.52V61.33c0-.39.13-.52.52-.52h12.48c4.81,0,7.67,4.94,7.67,9.23h.52l6.63-9.23h9.62c4.16,0,7.8,4.29,7.8,9.36Z"/><path class="cls-2" d="M68.65,72.81s.47-25.65,27.63-33C96.2,44.49,94.87,64.64,68.65,72.81Z"/><line class="cls-2" x1="96.28" y1="39.83" x2="68.8" y2="72.27"/><rect class="cls-2" x="67.51" y="163.25" width="23.2" height="5.2" transform="translate(158.22 331.7) rotate(-180)"/><polygon class="cls-2" points="70.31 136.85 79.11 133.65 87.91 136.85 87.91 163.25 70.31 163.25 70.31 136.85"/><polygon class="cls-2" points="70.31 136.85 79.11 133.65 87.91 136.85 95.91 130.85 87.91 126.45 79.11 128.85 70.87 126.45 64.71 130.85 70.31 136.85"/><line class="cls-2" x1="95.51" y1="131.22" x2="65.11" y2="131.22"/><polygon class="cls-2" points="70.31 40.05 79.11 24.05 87.91 40.05 87.91 126.45 79.11 129.65 70.31 126.45 70.31 40.05"/><line class="cls-2" x1="79.11" y1="24.05" x2="79.11" y2="129.65"/><path class="cls-2" d="M70.31,64.05c-4.86,8-12.27,27.73-11.2,52.8.8,13.6,5.6,28,24.8,38.4a20.81,20.81,0,0,0,2.4-5.6s-23.2-8-23.2-36c0-9.1,2.45-31.06,7.35-40.16C70.31,72.05,70.31,64.05,70.31,64.05Z"/><path class="cls-2" d="M60.31,89.25s-22-13.2-14.8-40.4C49.51,51.25,66.31,62.45,60.31,89.25Z"/><line class="cls-2" x1="45.51" y1="48.85" x2="59.91" y2="88.85"/><path class="cls-2" d="M58.87,116.46s-23.94-9.22-21.52-37.25C41.7,80.88,60.17,89,58.87,116.46Z"/><line class="cls-2" x1="37.35" y1="79.21" x2="58.41" y2="116.14"/><path class="cls-2" d="M63.66,132.83s-25.53,2.48-35.94-23.66C32.37,108.72,52.53,107.72,63.66,132.83Z"/><line class="cls-2" x1="27.72" y1="109.17" x2="63.1" y2="132.75"/><path class="cls-2" d="M65.21,92.07s7.94-24.4,36.07-23.47C99.83,73,92.68,91.91,65.21,92.07Z"/><line class="cls-2" x1="101.28" y1="68.6" x2="65.51" y2="91.59"/><path class="cls-2" d="M64,119.07s7.1-24.65,35.24-24.68C98,98.87,91.47,118,64,119.07Z"/><line class="cls-2" x1="99.27" y1="94.39" x2="64.31" y2="118.58"/><circle class="cls-2" cx="63.11" cy="88.85" r="3.2"/><circle class="cls-2" cx="61.51" cy="116.05" r="3.2"/></svg>