<?xml version="1.0" encoding="utf-8"?>
<!-- Generator: Adobe Illustrator 23.0.2, SVG Export Plug-In . SVG Version: 6.00 Build 0)  -->
<svg version="1.1" id="Layer_1" xmlns="http://www.w3.org/2000/svg" xmlns:xlink="http://www.w3.org/1999/xlink" x="0px" y="0px"
	 viewBox="0 0 375 202" style="enable-background:new 0 0 375 202;" xml:space="preserve">
<style type="text/css">
	.st0{fill:#FFFFFF;stroke:#000000;stroke-miterlimit:10;}
	.st1{fill:#FFFFFF;stroke:#000000;stroke-width:1.0408;stroke-miterlimit:10;}
	.st2{fill:none;stroke:#000000;stroke-miterlimit:10;}
	.st3{fill:none;stroke:#000000;stroke-width:0.9033;stroke-miterlimit:10;}
	.st4{fill:#FFFFFF;stroke:#000000;stroke-width:0.8;stroke-miterlimit:10;}
	.st5{fill:#29A9E1;stroke:#FFFFFF;stroke-width:1.5;stroke-miterlimit:10;}
	.st6{fill-rule:evenodd;clip-rule:evenodd;fill:#FFFFFF;}
	.st7{fill:#29A9E1;stroke:#FFFFFF;stroke-width:1.2;stroke-miterlimit:10;}
	.st8{fill:#29A9E1;}
	.st9{fill:#FFFFFF;}
	.st10{fill:#F05A26;stroke:#FFFFFF;stroke-width:1.2;stroke-miterlimit:10;}
	.st11{fill:#F37A20;}
	.st12{fill:#F05A26;}
	.st13{fill:#2B9BE0;stroke:#FFFFFF;stroke-miterlimit:10;}
	.st14{fill:#F9EC23;}
	.st15{fill:none;stroke:#F9EC23;stroke-width:2;stroke-miterlimit:10;}
</style>
<g>
	<g>
		<polygon class="st6" points="180.1,46.7 163.2,46.7 161.3,36.3 167,40.1 171.7,35.4 176.4,40.1 182,36.3 		"/>
	</g>
</g>
<g>
	<g>
		<path class="st7" d="M306.3,72.8c0,0-0.5-25.7-27.6-33C278.8,44.5,280.1,64.6,306.3,72.8z"/>
		<line class="st7" x1="278.7" y1="39.8" x2="306.2" y2="72.3"/>
	</g>
	<rect x="284.3" y="163.2" class="st7" width="23.2" height="5.2"/>
	<polygon class="st7" points="304.7,136.9 295.9,133.6 287.1,136.9 287.1,163.2 304.7,163.2 	"/>
	<polygon class="st7" points="304.7,136.9 295.9,133.6 287.1,136.9 279.1,130.9 287.1,126.4 295.9,128.9 304.1,126.4 310.3,130.9 	
		"/>
	<line class="st7" x1="279.5" y1="131.2" x2="309.9" y2="131.2"/>
	<polygon class="st7" points="304.7,40 295.9,24 287.1,40 287.1,126.4 295.9,129.6 304.7,126.4 	"/>
	<line class="st7" x1="295.9" y1="24" x2="295.9" y2="129.6"/>
	<path class="st7" d="M304.7,64.1c4.9,8,12.3,27.7,11.2,52.8c-0.8,13.6-5.6,28-24.8,38.4c-1.6-2.4-2.4-5.6-2.4-5.6s23.2-8,23.2-36
		c0-9.1-2.5-31.1-7.4-40.2C304.7,72.1,304.7,64.1,304.7,64.1z"/>
	<g>
		<path class="st7" d="M314.7,89.2c0,0,22-13.2,14.8-40.4C325.5,51.2,308.7,62.5,314.7,89.2z"/>
		<line class="st7" x1="329.5" y1="48.8" x2="315.1" y2="88.8"/>
	</g>
	<g>
		<path class="st7" d="M316.1,116.5c0,0,23.9-9.2,21.5-37.3C333.3,80.9,314.8,89,316.1,116.5z"/>
		<line class="st7" x1="337.7" y1="79.2" x2="316.6" y2="116.1"/>
	</g>
	<g>
		<path class="st7" d="M311.3,132.8c0,0,25.5,2.5,35.9-23.7C342.6,108.7,322.5,107.7,311.3,132.8z"/>
		<line class="st7" x1="347.3" y1="109.2" x2="311.9" y2="132.7"/>
	</g>
	<g>
		<path class="st7" d="M309.8,92.1c0,0-7.9-24.4-36.1-23.5C275.2,73,282.3,91.9,309.8,92.1z"/>
		<line class="st7" x1="273.7" y1="68.6" x2="309.5" y2="91.6"/>
	</g>
	<g>
		<path class="st7" d="M311,119.1c0,0-7.1-24.7-35.2-24.7C277,98.9,283.5,118,311,119.1z"/>
		<line class="st7" x1="275.7" y1="94.4" x2="310.7" y2="118.6"/>
	</g>
	<circle class="st7" cx="311.9" cy="88.8" r="3.2"/>
	<circle class="st7" cx="313.5" cy="116.1" r="3.2"/>
</g>
<g>
	<g>
		<path class="st7" d="M68.7,72.8c0,0,0.5-25.7,27.6-33C96.2,44.5,94.9,64.6,68.7,72.8z"/>
		<line class="st7" x1="96.3" y1="39.8" x2="68.8" y2="72.3"/>
	</g>
	
		<rect x="67.5" y="163.2" transform="matrix(-1 -4.492596e-11 4.492596e-11 -1 158.2182 331.7)" class="st7" width="23.2" height="5.2"/>
	<polygon class="st7" points="70.3,136.9 79.1,133.6 87.9,136.9 87.9,163.2 70.3,163.2 	"/>
	<polygon class="st7" points="70.3,136.9 79.1,133.6 87.9,136.9 95.9,130.9 87.9,126.4 79.1,128.9 70.9,126.4 64.7,130.9 	"/>
	<line class="st7" x1="95.5" y1="131.2" x2="65.1" y2="131.2"/>
	<polygon class="st7" points="70.3,40 79.1,24 87.9,40 87.9,126.4 79.1,129.6 70.3,126.4 	"/>
	<line class="st7" x1="79.1" y1="24" x2="79.1" y2="129.6"/>
	<path class="st7" d="M70.3,64.1c-4.9,8-12.3,27.7-11.2,52.8c0.8,13.6,5.6,28,24.8,38.4c1.6-2.4,2.4-5.6,2.4-5.6s-23.2-8-23.2-36
		c0-9.1,2.4-31.1,7.3-40.2C70.3,72.1,70.3,64.1,70.3,64.1z"/>
	<g>
		<path class="st7" d="M60.3,89.2c0,0-22-13.2-14.8-40.4C49.5,51.2,66.3,62.5,60.3,89.2z"/>
		<line class="st7" x1="45.5" y1="48.8" x2="59.9" y2="88.8"/>
	</g>
	<g>
		<path class="st7" d="M58.9,116.5c0,0-23.9-9.2-21.5-37.3C41.7,80.9,60.2,89,58.9,116.5z"/>
		<line class="st7" x1="37.3" y1="79.2" x2="58.4" y2="116.1"/>
	</g>
	<g>
		<path class="st7" d="M63.7,132.8c0,0-25.5,2.5-35.9-23.7C32.4,108.7,52.5,107.7,63.7,132.8z"/>
		<line class="st7" x1="27.7" y1="109.2" x2="63.1" y2="132.7"/>
	</g>
	<g>
		<path class="st7" d="M65.2,92.1c0,0,7.9-24.4,36.1-23.5C99.8,73,92.7,91.9,65.2,92.1z"/>
		<line class="st7" x1="101.3" y1="68.6" x2="65.5" y2="91.6"/>
	</g>
	<g>
		<path class="st7" d="M64,119.1c0,0,7.1-24.7,35.2-24.7C98,98.9,91.5,118,64,119.1z"/>
		<line class="st7" x1="99.3" y1="94.4" x2="64.3" y2="118.6"/>
	</g>
	<circle class="st7" cx="63.1" cy="88.8" r="3.2"/>
	<circle class="st7" cx="61.5" cy="116.1" r="3.2"/>
</g>
<g>
	<path d="M153.4,113.5v42.9v3c0,0.8-0.1,1.5-0.2,2c-0.1,0.5-0.3,0.9-0.6,1.3c-0.3,0.3-0.7,0.5-1.3,0.7c-0.5,0.1-1.2,0.2-2.1,0.3
		c-2.4,0.1-4.9,0.1-7.3,0c-0.8,0-1.5-0.1-2-0.3c-0.5-0.1-0.9-0.4-1.2-0.7s-0.5-0.7-0.7-1.3c-0.2-0.5-0.3-1.2-0.3-2.1
		c0-0.6-0.1-1.1,0-1.7c0-0.5,0-1.1,0-1.7V86.7c0-1.5-0.1-2.7-0.2-3.6c-0.1-0.9-0.4-1.5-0.8-1.9c-0.4-0.4-1-0.7-1.9-0.8
		c-0.8-0.1-2-0.2-3.5-0.2c-1.1,0-2.1,0-3.2,0c-1.1,0-2.1,0-3.2-0.1c-1.3-0.1-2.1-0.3-2.5-0.7c-0.4-0.4-0.7-1.1-0.7-2.3
		c-0.1-1.8-0.1-3.6-0.1-5.4c0-1.7,0.1-3.5,0.1-5.3c0-0.9,0.2-1.6,0.7-2s1.2-0.7,2-0.8c0.9,0,1.7-0.1,2.6-0.1s1.7,0,2.5,0H148
		c1.2,0,2.2,0.1,2.9,0.2c0.7,0.1,1.2,0.3,1.6,0.7c0.4,0.4,0.6,0.9,0.7,1.6c0.1,0.7,0.2,1.7,0.2,3V113.5z"/>
	<path d="M196.9,102.4c0,5.4,0,10.7,0,16.1s0,10.8-0.1,16.2c0,1,0,2-0.1,3c0,1-0.2,2-0.4,2.9c-0.7,3.5-2.3,6.2-4.7,8.1
		c-2.4,2-5.3,3-8.8,3.2c-0.7,0-1.4,0.1-2,0.1c-0.6,0-1.1,0-1.7,0s-1.1,0-1.7,0c-0.6,0-1.2,0-2,0c-0.9,0-1.7-0.2-2.2-0.7
		c-0.5-0.5-0.8-1.2-0.8-2.1c0-1.8-0.1-3.6-0.1-5.3c0-1.7,0-3.5,0-5.3c0-0.9,0.3-1.6,0.8-2.1c0.5-0.5,1.2-0.8,2.1-1
		c1.5-0.2,2.7-0.5,3.6-0.7c0.9-0.2,1.5-0.5,1.9-1c0.4-0.5,0.6-1.1,0.7-2c0.1-0.9,0.1-2.1,0.1-3.7V87.2c0-0.5,0-1,0-1.5
		c0-0.5,0-1,0-1.4c-0.1-1.5-0.4-2.4-0.9-3c-0.5-0.5-1.5-0.8-2.9-0.9c-1.9-0.1-3.8-0.1-5.7-0.1c-1.9,0-3.8,0-5.7,0
		c-1,0-1.8-0.1-2.3-0.2s-1.1-0.3-1.4-0.6c-0.3-0.3-0.6-0.7-0.7-1.3c-0.1-0.6-0.2-1.3-0.2-2.3c0-6.1,0-12.3,0-18.4
		c0-0.9,0.1-1.7,0.2-2.3c0.1-0.6,0.3-1,0.7-1.3c0.3-0.3,0.8-0.5,1.4-0.7s1.4-0.2,2.3-0.2h5.4c0.9,0,1.6,0.1,2.1,0.2s1,0.3,1.3,0.6
		c0.3,0.3,0.5,0.7,0.6,1.2c0.1,0.5,0.2,1.2,0.2,2v2.1c0.2,1.6,0.5,2.7,1,3.2c0.5,0.6,1.5,0.9,3,0.9c1,0,1.9,0.1,2.7,0.1
		c0.8,0,1.6,0,2.4,0c0.8,0,1.6,0,2.4,0c0.8,0,1.8,0,2.8,0c1.6,0,2.8,0,3.7,0.1c0.9,0.1,1.5,0.3,1.9,0.7c0.4,0.4,0.6,1,0.7,1.9
		c0.1,0.9,0.1,2.1,0.1,3.6V102.4z"/>
	<path d="M253,147.9c0,1.1-0.1,1.9-0.2,2.5s-0.3,1.1-0.7,1.4c-0.3,0.3-0.8,0.5-1.5,0.7s-1.5,0.2-2.5,0.2c-2.4,0-4.8,0-7.2,0
		c-2.4,0-4.8,0-7.2-0.1c-0.7,0-1.3-0.1-1.8-0.2c-0.5-0.1-0.9-0.3-1.1-0.5c-0.3-0.3-0.5-0.6-0.6-1.1c-0.1-0.5-0.2-1.1-0.2-1.8
		c-0.1-1.1-0.1-2.3-0.1-3.4c0-1.1,0.1-2.2,0.1-3.3c0-1.9,1-3.1,3.1-3.5c0.8-0.2,1.5-0.4,2-0.6c0.5-0.2,0.9-0.4,1.1-0.8
		c0.2-0.3,0.4-0.7,0.5-1.3c0.1-0.5,0.2-1.2,0.2-2V87.7c0-0.6-0.1-1.1-0.2-1.7c-0.1-0.6-0.2-1.1-0.3-1.6c-0.3-1.3-0.9-2.2-1.9-3
		c-0.9-0.7-2-1.1-3.2-1.1c-1.3,0-2.4,0.3-3.3,1s-1.6,1.7-1.9,2.9c-0.2,0.9-0.3,1.8-0.4,2.7c0,0.9-0.1,1.8-0.1,2.7v57
		c0,1.5,0,2.6-0.1,3.4c-0.1,0.8-0.3,1.4-0.6,1.8c-0.4,0.4-0.9,0.6-1.7,0.7c-0.8,0.1-1.9,0.1-3.4,0.1c-1.1,0-2.2,0-3.3,0
		c-1.1,0-2.2,0-3.3-0.1c-1.3-0.1-2.3-0.4-2.8-0.8c-0.5-0.5-0.8-1.3-0.9-2.6c-0.1-0.5-0.1-1-0.1-1.5c0-0.5,0-1,0-1.5V94.3
		c0-1,0-2,0.1-3c0-1,0.1-2,0.2-2.9c0.1-0.7,0.2-1.5,0.3-2.2c0.1-0.7,0.2-1.4,0.1-2.1c0-0.7-0.2-1.4-0.5-2c-0.3-0.7-0.7-1.3-1.4-1.9
		c-0.2-0.2-0.4-0.5-0.5-0.9c-0.1-0.4-0.1-0.8-0.1-1.2c0-1.7,0-3.4,0-5.1c0-1.7,0-3.4,0-5.2c0-1.3,0.3-2.2,0.8-2.8s1.4-0.8,2.7-0.8
		c3.9,0,7.9,0,11.7,0c3.9,0,7.8,0.2,11.7,0.5c2.4,0.2,4.7,0.9,6.9,2.1c2.2,1.2,4,2.6,5.6,4.4c1.6,1.8,2.8,3.8,3.8,6.1
		s1.4,4.7,1.5,7.1c0,1.3,0.1,3.1,0.1,5.4c0,2.2,0,4.8,0.1,7.6c0,2.8,0,5.8,0.1,9.1c0,3.2,0.1,6.5,0.1,9.8c0,3.3,0.1,6.6,0.1,9.8
		s0,6.3,0,9.1c0,2.8,0,5.3,0,7.6S253,146.6,253,147.9z"/>
</g>
</svg>
