<?xml version="1.0" encoding="utf-8"?>
<!-- Generator: Adobe Illustrator 23.0.2, SVG Export Plug-In . SVG Version: 6.00 Build 0)  -->
<svg version="1.1" id="Layer_1" xmlns="http://www.w3.org/2000/svg" xmlns:xlink="http://www.w3.org/1999/xlink" x="0px" y="0px"
	 viewBox="0 0 375 194">
<style type="text/css">
	.st0{fill:#FFFFFF;stroke:#000000;stroke-miterlimit:10;}
	.st1{fill:#FFFFFF;stroke:#000000;stroke-width:1.0408;stroke-miterlimit:10;}
	.st2{fill:none;stroke:#000000;stroke-miterlimit:10;}
	.st3{fill:none;stroke:#000000;stroke-width:0.9033;stroke-miterlimit:10;}
	.st4{fill:#FFFFFF;stroke:#000000;stroke-width:0.8;stroke-miterlimit:10;}
	.st5{fill:#29A9E1;stroke:#FFFFFF;stroke-width:1.5;stroke-miterlimit:10;}
	.st6{fill-rule:evenodd;clip-rule:evenodd;fill:#FFFFFF;}
	.st7{fill:#29A9E1;stroke:#FFFFFF;stroke-width:1.2;stroke-miterlimit:10;}
	.st8{fill:#29A9E1;}
	.st9{fill:#FFFFFF;}
	.st10{fill:#F05A26;stroke:#FFFFFF;stroke-width:1.2;stroke-miterlimit:10;}
	.st11{fill:#F37A20;}
	.st12{fill:#F05A26;}
	.st13{fill:#2B9BE0;stroke:#FFFFFF;stroke-miterlimit:10;}
	.st14{fill:#F9EC23;}
	.st15{fill:none;stroke:#F9EC23;stroke-width:2;stroke-miterlimit:10;}
</style>
<g>
	<g>
		<g>
			<g>
				<path class="st13" d="M307.2,88.8c0,0,7.9-18.9-9.6-33.1C296.2,59.1,290.6,74.3,307.2,88.8z"/>
				<line class="st13" x1="297.6" y1="55.7" x2="307.2" y2="88.3"/>
			</g>
			
				<rect x="260.2" y="151.4" transform="matrix(0.9149 0.4036 -0.4036 0.9149 84.8742 -95.7125)" class="st13" width="18.6" height="4.2"/>
			<polygon class="st13" points="285.3,135.1 279.9,129.9 272.4,129.4 263.9,148.7 276.8,154.4 			"/>
			<polygon class="st13" points="285.3,135.1 279.9,129.9 272.4,129.4 268.5,122.4 275.8,121.8 281.4,126.4 288.2,127.3 
				291.3,132.5 			"/>
			<line class="st13" x1="268.7" y1="122.8" x2="290.9" y2="132.6"/>
			<polygon class="st13" points="316.5,64.2 315.3,49.7 303.7,58.6 275.8,121.8 281.2,127 288.6,127.5 			"/>
			<line class="st13" x1="315.3" y1="49.7" x2="281.2" y2="127"/>
			<path class="st13" d="M308.8,81.8c1,7.4,0,24.3-8.9,42.3c-5,9.7-13.1,18.7-30.6,20.1c-0.4-2.3,0.1-4.9,0.1-4.9
				s19.6,1.6,28.6-18.9c2.9-6.7,8.2-23.5,7.6-31.8C306.2,87.7,308.8,81.8,308.8,81.8z"/>
			<g>
				<path class="st13" d="M308,103.5c0,0,20.4-2.6,23.9-24.8C328.1,79.2,312.2,81.9,308,103.5z"/>
				<line class="st13" x1="331.9" y1="78.7" x2="308.4" y2="103.3"/>
			</g>
			<g>
				<path class="st13" d="M300.2,123.9c0,0,20.5,1,27.8-20.3C324.3,103.4,308.1,103.4,300.2,123.9z"/>
				<line class="st13" x1="328" y1="103.5" x2="300.7" y2="123.8"/>
			</g>
			<g>
				<path class="st13" d="M291.4,134.3c0,0,17.9,10.1,33.9-5.7C322.1,126.8,307.7,119.5,291.4,134.3z"/>
				<line class="st13" x1="325.4" y1="128.6" x2="291.9" y2="134.4"/>
			</g>
			<g>
				<path class="st13" d="M303.5,104c0,0,2.1-20.4-18.8-28.8C284.3,78.8,283.4,95,303.5,104z"/>
				<line class="st13" x1="284.7" y1="75.1" x2="303.4" y2="103.5"/>
			</g>
			<g>
				<path class="st13" d="M295.6,124.1c0,0,2.8-20.3-17.8-29.4C277.3,98.4,275.9,114.5,295.6,124.1z"/>
				<line class="st13" x1="277.8" y1="94.7" x2="295.6" y2="123.7"/>
			</g>
			<circle class="st13" cx="306.1" cy="102.3" r="2.6"/>
			<circle class="st13" cx="298.4" cy="122.7" r="2.6"/>
		</g>
	</g>
	<g>
		<g>
			<g>
				<path class="st13" d="M67.8,88.8c0,0-7.9-18.9,9.6-33.1C78.8,59.1,84.4,74.3,67.8,88.8z"/>
				<line class="st13" x1="77.4" y1="55.7" x2="67.8" y2="88.3"/>
			</g>
			
				<rect x="96.2" y="151.4" transform="matrix(-0.9149 0.4036 -0.4036 -0.9149 264.0129 251.3018)" class="st13" width="18.6" height="4.2"/>
			<polygon class="st13" points="89.7,135.1 95.1,129.9 102.6,129.4 111.1,148.7 98.2,154.4 			"/>
			<polygon class="st13" points="89.7,135.1 95.1,129.9 102.6,129.4 106.5,122.4 99.2,121.8 93.6,126.4 86.8,127.3 83.7,132.5 			
				"/>
			<line class="st13" x1="106.3" y1="122.8" x2="84.1" y2="132.6"/>
			<polygon class="st13" points="58.5,64.2 59.7,49.7 71.3,58.6 99.2,121.8 93.8,127 86.4,127.5 			"/>
			<line class="st13" x1="59.7" y1="49.7" x2="93.8" y2="127"/>
			<path class="st13" d="M66.2,81.8c-1,7.4,0,24.3,8.9,42.3c5,9.7,13.1,18.7,30.6,20.1c0.4-2.3-0.1-4.9-0.1-4.9S86,140.9,77,120.4
				c-2.9-6.7-8.2-23.5-7.6-31.8C68.8,87.7,66.2,81.8,66.2,81.8z"/>
			<g>
				<path class="st13" d="M67,103.5c0,0-20.4-2.6-23.9-24.8C46.9,79.2,62.8,81.9,67,103.5z"/>
				<line class="st13" x1="43.1" y1="78.7" x2="66.6" y2="103.3"/>
			</g>
			<g>
				<path class="st13" d="M74.8,123.9c0,0-20.5,1-27.8-20.3C50.7,103.4,66.9,103.4,74.8,123.9z"/>
				<line class="st13" x1="47" y1="103.5" x2="74.3" y2="123.8"/>
			</g>
			<g>
				<path class="st13" d="M83.6,134.3c0,0-17.9,10.1-33.9-5.7C52.9,126.8,67.3,119.5,83.6,134.3z"/>
				<line class="st13" x1="49.6" y1="128.6" x2="83.1" y2="134.4"/>
			</g>
			<g>
				<path class="st13" d="M71.5,104c0,0-2.1-20.4,18.8-28.8C90.7,78.8,91.6,95,71.5,104z"/>
				<line class="st13" x1="90.3" y1="75.1" x2="71.6" y2="103.5"/>
			</g>
			<g>
				<path class="st13" d="M79.4,124.1c0,0-2.8-20.3,17.8-29.4C97.7,98.4,99.1,114.5,79.4,124.1z"/>
				<line class="st13" x1="97.2" y1="94.7" x2="79.4" y2="123.7"/>
			</g>
			<circle class="st13" cx="68.9" cy="102.3" r="2.6"/>
			<circle class="st13" cx="76.6" cy="122.7" r="2.6"/>
		</g>
	</g>
</g>
<g>
	<g>
		<polygon class="st6" points="224.7,128.4 150.3,128.4 142,82.9 166.8,99.4 187.5,78.8 208.2,99.4 233,82.9 		"/>
	</g>
</g>
<polygon class="st14" points="293.3,154.7 295.6,161.3 302.3,163.7 295.6,166 293.3,172.6 291,166 284.3,163.7 291,161.3 "/>
<circle class="st15" cx="256.3" cy="39.4" r="7.2"/>
<polygon class="st14" points="339.8,107.4 343.3,117.6 353.6,121.2 343.3,124.7 339.8,135 336.2,124.7 326,121.2 336.2,117.6 "/>
<polygon class="st14" points="66.3,133.5 69.9,143.8 80.2,147.4 69.9,150.9 66.3,161.3 62.8,150.9 52.4,147.4 62.8,143.8 "/>
<circle class="st15" cx="21.3" cy="73.3" r="7.3"/>
</svg>
