<?xml version="1.0" encoding="utf-8"?>
<!-- Generator: Adobe Illustrator 23.0.2, SVG Export Plug-In . SVG Version: 6.00 Build 0)  -->
<svg version="1.1" id="Layer_1" xmlns="http://www.w3.org/2000/svg" xmlns:xlink="http://www.w3.org/1999/xlink" x="0px" y="0px"
	 viewBox="0 0 375 194" style="enable-background:new 0 0 375 194;" xml:space="preserve">
<style type="text/css">
	.st0{fill:#FFFFFF;stroke:#000000;stroke-miterlimit:10;}
	.st1{fill:#FFFFFF;stroke:#000000;stroke-width:1.0408;stroke-miterlimit:10;}
	.st2{fill:none;stroke:#000000;stroke-miterlimit:10;}
	.st3{fill:none;stroke:#000000;stroke-width:0.9033;stroke-miterlimit:10;}
	.st4{fill:#FFFFFF;stroke:#000000;stroke-width:0.8;stroke-miterlimit:10;}
	.st5{fill:#29A9E1;stroke:#FFFFFF;stroke-width:1.5;stroke-miterlimit:10;}
	.st6{fill-rule:evenodd;clip-rule:evenodd;fill:#FFFFFF;}
	.st7{fill:#29A9E1;stroke:#FFFFFF;stroke-width:1.2;stroke-miterlimit:10;}
	.st8{fill:#29A9E1;}
	.st9{fill:#FFFFFF;}
	.st10{fill:#F05A26;stroke:#FFFFFF;stroke-width:1.2;stroke-miterlimit:10;}
	.st11{fill:#F37A20;}
	.st12{fill:#F05A26;}
	.st13{fill:#2B9BE0;stroke:#FFFFFF;stroke-miterlimit:10;}
	.st14{fill:#F9EC23;}
	.st15{fill:none;stroke:#F9EC23;stroke-width:2;stroke-miterlimit:10;}
</style>
<g>
	<g>
		
			<rect x="226.6" y="50.3" transform="matrix(0.7071 0.7071 -0.7071 0.7071 107.166 -152.9538)" class="st10" width="23.2" height="5.2"/>
		<polygon class="st10" points="223.9,79.6 215.4,75.7 211.5,67.2 230.2,48.5 242.6,60.9 		"/>
		<polygon class="st10" points="223.9,79.6 215.4,75.7 211.5,67.2 201.6,65.8 204.1,74.5 212.1,79 216.2,86.6 223.6,87.8 		"/>
		<line class="st10" x1="202.1" y1="65.8" x2="223.6" y2="87.3"/>
		<polygon class="st10" points="155.5,148.1 137.9,153.2 143,135.6 204.1,74.5 212.6,78.5 216.6,87 		"/>
		<line class="st10" x1="137.9" y1="153.2" x2="212.6" y2="78.5"/>
	</g>
	<g>
		
			<rect x="125.2" y="48.6" transform="matrix(0.7071 -0.7071 0.7071 0.7071 3.869 111.7141)" class="st10" width="23.2" height="5.2"/>
		<polygon class="st10" points="163.5,65.5 159.6,74 151.1,77.9 132.4,59.2 144.8,46.8 		"/>
		<polygon class="st10" points="163.5,65.5 159.6,74 151.1,77.9 149.7,87.8 158.4,85.3 162.9,77.3 170.5,73.2 171.7,65.8 		"/>
		<line class="st10" x1="149.7" y1="87.3" x2="171.2" y2="65.8"/>
		<polygon class="st10" points="232,133.9 237.1,151.5 219.5,146.4 158.4,85.3 162.4,76.8 170.9,72.8 		"/>
		<line class="st10" x1="237.1" y1="151.5" x2="162.4" y2="76.8"/>
	</g>
</g>
</svg>
