<?xml version="1.0" encoding="UTF-8"?>
<svg width="225px" height="225px" viewBox="0 0 225 225" version="1.1" xmlns="http://www.w3.org/2000/svg" xmlns:xlink="http://www.w3.org/1999/xlink">
    <!-- Generator: Sketch 53.2 (72643) - https://sketchapp.com -->
    <title>EconomyIcon</title>
    <desc>Created with Sketch.</desc>
    <g id="EconomyIcon" stroke="none" stroke-width="1" fill="none" fill-rule="evenodd">
        <g fill="#10212B">
            <path d="M32,22.3225 C32,21.059 32,18 32,18 L18,18 L18,208 L32,208 C32,208 32,204.941 32,203.6775 L32,22.3225 Z" id="Path" fill-rule="nonzero"></path>
            <path d="M207,18 L19,18 L19,208 L207,208 L207,18 Z M225,1 L226,1 L226,214 L225,214 L225,226 L0,226 L0,208 L0,18 L0,0 L225,0 L225,1 Z" id="Combined-Shape"></path>
            <path d="M76.640568,203.677716 L76.640568,74.1326934 C76.640568,72.8692565 76.640568,69.8104095 76.640568,69.8104095 C76.640568,69.8104095 79.3175659,69.8104095 80.4187424,69.8104095 L99.2906288,69.8104095 C100.391805,69.8104095 101.293631,70.2188891 102.005598,71.0358482 C102.717566,71.8528074 103.068803,72.8787561 103.068803,74.1421929 L103.068803,177.763012 L135.145314,177.763012 C143.954726,177.763012 151.492089,174.153192 157.785882,166.962052 C164.079675,159.770911 167.221826,151.126344 167.221826,141.056847 L167.221826,22.3317834 C167.221826,21.0683466 167.573063,20.0423979 168.28503,19.2254387 C168.996998,18.4084796 169.898824,18 171,18 L89.8736714,18 C100.477241,18 110.273915,20.9828509 119.235213,26.9770511 C128.196511,32.9712514 135.297201,41.0743463 140.518296,51.3243338 C145.758377,61.5838208 148.359432,72.7837608 148.359432,84.9241538 L148.359432,151.848308 C148.359432,153.111744 148.008195,154.137693 147.296227,154.954652 C146.58426,155.771611 145.682434,156.180091 144.581258,156.180091 L125.718864,156.180091 C124.617688,156.180091 121.94069,156.180091 121.94069,156.180091 C121.94069,156.180091 121.94069,153.121244 121.94069,151.857807 L121.94069,84.9336533 C121.94069,74.8546573 118.789047,66.2290885 112.504746,59.0284486 C106.220446,51.8373081 98.6640974,48.2274886 89.8641785,48.2274886 L57.7781744,48.2274886 L57.7781744,203.668217 C57.7781744,204.931653 57.4269371,205.957602 56.7149696,206.774561 C56.003002,207.59152 55.1011765,208 54,208 L80.4187424,208 C79.3175659,208 78.4157404,207.59152 77.7037728,206.774561 C77.0012982,205.967102 76.640568,204.941153 76.640568,203.677716 Z" id="Path" fill-rule="nonzero"></path>
            <path d="M193.887304,18 C193.887304,18 193.887304,21.059 193.887304,22.3225 L193.887304,141.0725 C193.887304,153.2135 191.259686,164.414 185.994895,174.674 C180.72055,184.934 173.592539,193.0565 164.572644,199.0225 C155.533639,205.017 145.692016,208 135,208 L208,208 L208,18 L193.887304,18 Z" id="Path" fill-rule="nonzero"></path>
        </g>
    </g>
</svg>