<?xml version="1.0" encoding="UTF-8"?>
<svg width="225px" height="225px" viewBox="0 0 225 225" version="1.1" xmlns="http://www.w3.org/2000/svg" xmlns:xlink="http://www.w3.org/1999/xlink">
    <!-- Generator: Sketch 53.2 (72643) - https://sketchapp.com -->
    <title>ImageIcon</title>
    <desc>Created with Sketch.</desc>
    <g id="ImageIcon" stroke="none" stroke-width="1" fill="none" fill-rule="evenodd">
        <g fill="#10212B">
            <path d="M112.5,16.9502488 C114.175853,17.2093502 120.01123,17.2093502 122.788803,18.1106645 C135.505518,22.2372013 144.711,34.1689712 144.711,48.2609453 C144.711,59.89199 138.4315,70.0311443 129.093,75.5425871 L178.9205,93.549801 L178.5975,118.930945 L127.345,100.410597 L127.345,132.681045 L127.535,132.681045 L184.839,206.638905 L156.206,206.638905 L113.8265,152.398706 L69.68,206.629403 L41.047,206.629403 L98.7025,134.515025 L98.712,134.515025 L98.712,101.484378 L50.452,118.930945 L50.129,93.549801 L98.1135,76.2077612 C88.1385,70.8673632 81.3555,60.3576119 81.3555,48.2609453 C81.3555,34.0272608 90.7301237,21.9679098 103.653265,17.9888367 C107.026367,16.9502488 110.959956,17.1883529 112.5,16.9502488 L113,12.1670611 L18,11.9502488 L18,207 L208,207 L208,11.9502488 L146.558884,12.1670611 L113,12.1670611 L112.5,16.9502488 Z" id="Path" fill-rule="nonzero"></path>
            <rect id="Rectangle-Copy" x="0" y="206" width="225" height="21"></rect>
            <rect id="Rectangle-Copy-4" x="0" y="13" width="26" height="203"></rect>
            <rect id="Rectangle-Copy" x="0" y="0" width="225" height="17"></rect>
            <rect id="Rectangle-Copy-5" x="202" y="13" width="26" height="203"></rect>
        </g>
    </g>
</svg>