<?xml version="1.0" encoding="UTF-8"?>
<svg width="225px" height="225px" viewBox="0 0 225 225" version="1.1" xmlns="http://www.w3.org/2000/svg" xmlns:xlink="http://www.w3.org/1999/xlink">
    <!-- Generator: Sketch 53.2 (72643) - https://sketchapp.com -->
    <title>ReligionIcon</title>
    <desc>Created with Sketch.</desc>
    <g id="ReligionIcon" stroke="none" stroke-width="1" fill="none" fill-rule="evenodd">
        <g transform="translate(-1.000000, -1.000000)" fill="#10212B" fill-rule="nonzero" id="Shape">
            <path d="M0.86,0.08 L0.46,226.58 L225.96,226.98 L226.36,0.48 L0.86,0.08 Z M104.46,204.08 L87.46,204.08 L87.46,187.08 L104.46,187.08 L104.46,189.479312 L104.46,204.08 Z M104.46,184.08 L87.46,184.08 L87.46,165.08 L104.46,165.08 L104.46,184.08 L104.46,184.08 Z M104.46,163.003695 L104.46,163.08 L87.46,163.08 L87.46,144.08 L104.46,144.08 L104.46,163.003695 L104.46,163.003695 Z M104.46,140.08 L87.46,140.08 L87.46,123.08 L104.46,123.08 L104.46,140.08 L104.46,140.08 Z M126.46,189.459805 L126.46,204.08 L107.46,204.08 L107.46,189.459805 L107.46,187.08 L126.46,187.08 L126.46,189.459805 Z M126.46,184.08 L107.46,184.08 L107.46,165.08 L126.46,165.08 L126.46,184.08 Z M126.364618,163.08 L107.46,163.08 L107.46,144.08 L126.46,144.08 L126.364618,163.08 Z M126.46,140.08 L107.46,140.08 L107.46,123.08 L126.46,123.08 L126.46,140.08 Z M146.46,203.08 L129.46,203.08 L129.46,186.138319 L144.031429,186.138319 L146.352714,186.08 L146.46,188.160046 L146.46,203.08 Z M146.440493,184.08 L129.46,184.08 L129.46,165.08 L146.46,165.08 L146.440493,184.08 Z M146.411234,163.08 L129.46,163.08 L129.46,144.08 L146.46,144.08 L146.411234,163.08 Z M146.362467,140.08 L129.46,140.08 L129.46,123.08 L146.46,123.08 L146.362467,140.08 Z M125.926667,115.665031 L78.8028571,115.427257 L78.66,189.08 L34.46,189.08 L34.46,54.2053175 C36.0219048,44.5231775 39.8980952,35.3070738 46.0885714,27.6412537 C53.1742857,18.4727047 64.1266667,13.0895109 75.7361905,13.08 C107.698095,13.1275547 113.86,40.9280411 114.650476,57.1537098 C115.602857,40.9280411 121.764762,13.1560875 153.802857,13.2036423 C165.402857,13.2321751 176.33619,18.6153688 183.421905,27.7934288 C189.33619,35.1168549 193.126667,43.8669225 194.46,53.0830262 L194.46,189.08 L154.688571,189.08 L154.688571,144.473677 L154.688571,141.344577 L154.688571,115.665031 L125.926667,115.665031 Z"></path>
        </g>
    </g>
</svg>