<?xml version="1.0" encoding="UTF-8"?>
<svg width="225px" height="225px" viewBox="0 0 225 225" version="1.1" xmlns="http://www.w3.org/2000/svg" xmlns:xlink="http://www.w3.org/1999/xlink">
    <!-- Generator: Sketch 53.2 (72643) - https://sketchapp.com -->
    <title>SecurityIcon</title>
    <desc>Created with Sketch.</desc>
    <g id="SecurityIcon" stroke="none" stroke-width="1" fill="none" fill-rule="evenodd">
        <g transform="translate(0.000000, -1.000000)" fill="#10212B" fill-rule="nonzero">
            <path d="M0,226 L117.002456,226 L117.002456,208.792087 L102.68807,208.782609 C101.698246,208.782609 100.898772,207.986435 100.898772,207.000696 L100.898772,203.029304 C100.898772,202.043565 101.698246,201.247391 102.68807,201.247391 L105.581404,201.247391 C105.571886,198.470261 105.562368,185.105913 105.571886,167.665913 L105.333947,167.741739 L92.2758772,159.154435 L105.267325,150.254348 L105.581404,150.330174 C105.590921,112.274957 105.638509,66.2864348 105.705132,61.8126957 C105.952588,41.842 109.331316,32.9608696 115.098947,19.3406087 C115.098947,7.90982609 117.002456,0.0284347826 117.002456,-2.84078316e-14 L0,-2.84078316e-14 L0,226 Z M45.7446053,140.406435 C45.3258333,138.501304 45.0212719,136.548783 44.8214035,134.558348 C43.4413596,133.800087 42.5086404,132.349913 42.5086404,130.672261 C42.5086404,130.340522 42.5467105,130.018261 42.6228509,129.705478 C40.0435965,128.852435 32.3439035,125.734087 28.4892982,118.037739 C22.1125439,105.289478 24.2730263,92.3611304 24.2730263,92.3611304 C41.9566228,104.275304 43.5746053,121.772174 43.5650877,127.819304 C43.850614,127.487565 44.164693,127.184261 44.5263596,126.947304 C44.707193,117.080435 46.8962281,106.701739 49.7705263,97.1950435 C49.0376754,96.4746957 48.5713158,95.4794783 48.5713158,94.3705217 C48.5713158,93.327913 48.9900877,92.380087 49.6563158,91.6786957 C48.0478509,90.636087 45.4590789,88.0106087 42.7465789,81.4042609 C37.3596491,68.2294783 46.2014474,44.7518261 46.2014474,44.7518261 C60.1541667,59.6137391 54.4817105,82.5890435 52.1403947,89.982087 C57.0228947,76.068 62.7239035,65.0826957 64.3133333,62.1254783 C64.9985965,58.41 67.2257018,51.4434783 74.5066228,44.7518261 C82.5775,37.3208696 96.2732456,33.1314783 96.2732456,33.1314783 C86.8223246,63.3197391 70.0619298,65.0921739 65.3031579,64.95 C61.1725439,73.7932174 57.5939474,82.5795652 54.805307,91.1384348 C54.9861404,91.2616522 55.1574561,91.4038261 55.3192544,91.5649565 C56.870614,87.622 61.1154386,78.8546087 70.1,72.7316522 C80.7786842,65.4523478 92.5138158,64.115913 92.5138158,64.115913 C85.4042105,91.8682609 63.0379825,93.763913 56.4423246,93.7070435 C56.4803947,93.9345217 56.5089474,94.162 56.5089474,94.3894783 C56.5089474,96.5410435 54.7767544,98.2850435 52.6257895,98.3324348 C49.9323246,108.095043 48.3809649,117.497478 48.3333772,126.274348 C50.9697368,121.203478 56.0425877,113.07113 63.694693,107.73487 C77.9519737,97.7732174 92.5042982,96.3230435 92.5042982,96.3230435 C83.1104825,123.250783 61.4390351,129.222087 51.4360965,130.539565 C51.4360965,130.596435 51.4551316,130.643826 51.4551316,130.700696 C51.4551316,132.511043 50.3701316,134.065478 48.8092544,134.757391 C49.0376754,136.634087 49.3327193,138.482348 49.7229386,140.292696 C55.4620175,166.623304 86.2512719,179.750696 86.2512719,179.750696 L84.1669298,184.158087 C84.1669298,184.158087 70.8423684,178.092 59.6592544,165.950348 C59.6592544,165.950348 59.6687719,165.969304 59.6687719,165.969304 C59.6687719,165.969304 44.5073246,165.106783 32.6960526,155.998174 C19.4285965,145.761652 18.9527193,132.662696 18.9527193,132.662696 C32.3724561,134.823739 42.8322368,143.723826 49.7990789,151.780348 C48.0573684,148.273391 46.6392544,144.491565 45.7446053,140.406435 Z" id="Shape"></path>
            <path d="M115.117982,19.2742609 C115.1275,19.2553043 115.137018,19.2363478 115.146535,19.2173913 L115.098947,19.2173913 C115.098947,19.2363478 115.108465,19.2553043 115.117982,19.2742609 Z" id="Path"></path>
            <path d="M115.137018,19.2173913 C115.137018,19.2363478 115.137018,19.2837391 115.137018,19.3406087 C120.904649,32.9608696 124.283377,41.842 124.530833,61.8126957 C124.597456,66.295913 124.635526,112.464522 124.654561,150.56713 L137.179649,159.154435 L124.664079,167.391043 C124.664079,184.963739 124.664079,198.460783 124.654561,201.25687 L127.547895,201.25687 C128.537719,201.25687 129.337193,202.053043 129.337193,203.038783 L129.337193,207.010174 C129.337193,207.995913 128.537719,208.792087 127.547895,208.792087 L115.098947,208.792087 L112.5,227 L226,227 L226,0 L112.5,0 L115.137018,19.2173913 Z M194.351535,155.979217 C182.530746,165.087826 167.378816,165.950348 167.378816,165.950348 C167.378816,165.950348 167.388333,165.931391 167.388333,165.931391 C156.205219,178.073043 142.880658,184.13913 142.880658,184.13913 L140.796316,179.731739 C140.796316,179.731739 171.58557,166.613826 177.324649,140.273739 C177.714868,138.47287 178.01943,136.624609 178.238333,134.738435 C176.677456,134.037043 175.592456,132.492087 175.592456,130.681739 C175.592456,130.62487 175.601974,130.577478 175.611491,130.520609 C165.608553,129.20313 143.937105,123.231826 134.543289,96.304087 C134.543289,96.304087 149.095614,97.7637391 163.352895,107.715913 C171.005,113.061652 176.077851,121.184522 178.714211,126.255391 C178.666623,117.478522 177.124781,108.085565 174.421798,98.3134783 C172.270833,98.266087 170.53864,96.522087 170.53864,94.3705217 C170.53864,94.1335652 170.567193,93.906087 170.605263,93.688087 C164.009605,93.7449565 141.643377,91.8493043 134.533772,64.0969565 C134.533772,64.0969565 146.268904,65.4428696 156.947588,72.7126957 C165.932149,78.8356522 170.186491,87.6030435 171.728333,91.546 C171.890132,91.3943478 172.061447,91.2521739 172.242281,91.1194783 C169.45364,82.5606087 165.875044,73.7742609 161.74443,64.9310435 C156.985658,65.0732174 140.225263,63.3007826 130.774342,33.1125217 C130.774342,33.1125217 144.470088,37.3113913 152.540965,44.7328696 C159.821886,51.4245217 162.048991,58.3910435 162.734254,62.1065217 C164.323684,65.0637391 170.024693,76.0490435 174.907193,89.9631304 C172.565877,82.5606087 166.893421,59.5947826 180.84614,44.7328696 C180.84614,44.7328696 189.687939,68.2105217 184.291491,81.3947826 C181.588509,88.0011304 178.990219,90.6266087 177.381754,91.6692174 C178.047982,92.380087 178.466754,93.3184348 178.466754,94.3610435 C178.466754,95.47 178.009912,96.4652174 177.267544,97.1855652 C180.141842,106.701739 182.330877,117.070957 182.511711,126.937826 C182.873377,127.174783 183.196974,127.478087 183.472982,127.809826 C183.472982,121.772174 185.090965,104.275304 202.765044,92.3516522 C202.765044,92.3516522 204.925526,105.28 198.548772,118.028261 C194.694167,125.724609 186.994474,128.833478 184.415219,129.696 C184.481842,130.008783 184.52943,130.331043 184.52943,130.662783 C184.52943,132.340435 183.587193,133.78113 182.216667,134.54887 C182.016798,136.539304 181.712237,138.491826 181.293465,140.396957 C180.398816,144.482087 178.980702,148.263913 177.238991,151.77087 C184.196316,143.714348 194.656096,134.814261 208.085351,132.653217 C208.094868,132.662696 207.618991,145.761652 194.351535,155.979217 Z" id="Shape"></path>
        </g>
    </g>
</svg>